<svg width="27" height="48" viewBox="0 0 27 48" fill="none" xmlns="http://www.w3.org/2000/svg">
<mask id="path-1-outside-1_151_2272" maskUnits="userSpaceOnUse" x="-10.2078" y="-1.21327" width="44.6542" height="51.1939" fill="black">
<rect fill="white" x="-10.2078" y="-1.21327" width="44.6542" height="51.1939"/>
<path fill-rule="evenodd" clip-rule="evenodd" d="M18.6099 1.70548C20.6827 3.46194 23.3166 6.57159 24.4978 10.1685C25.6671 13.7294 25.419 17.7651 21.7532 21.5203C20.9194 22.3744 20.1 23.1094 19.2999 23.7378C19.0375 23.3393 18.7366 22.947 18.394 22.5628C15.2904 19.083 12.0892 17.9986 9.51063 18.3588C6.95469 18.7159 5.06323 20.5013 4.69714 22.6033C4.5009 23.73 4.96901 24.9062 5.85516 25.847C6.74659 26.7934 8.08833 27.5377 9.7437 27.8304C12.2606 28.2754 15.4765 27.6778 18.9916 25.2117C19.9855 27.2481 19.9865 29.4166 19.4834 31.4462C18.8085 34.1695 17.2313 36.6015 15.9864 37.9986L15.9696 38.0174L15.9549 38.0378C15.5096 38.6522 14.2157 39.8416 11.7888 41.2553C9.5273 42.5728 6.31064 44.0684 1.9497 45.4611L1.95542 45.435C2.05412 44.9836 2.18769 44.3637 2.32709 43.6897C2.6039 42.3515 2.91029 40.7695 3.00563 39.8835L2.01137 39.7765C1.92215 40.6056 1.6267 42.1389 1.34782 43.4871C1.20939 44.1564 1.07665 44.7725 0.9785 45.2214C0.929434 45.4458 0.889042 45.6282 0.860931 45.7545L0.828443 45.9L0.819961 45.9378L0.817812 45.9473L0.817275 45.9497L0.817144 45.9503L0.817115 45.9504L1.15293 46.0262L0.817106 45.9504L0.672372 46.5917L1.31603 46.5606L1.35671 46.6938C1.52441 46.6427 1.69055 46.5913 1.85517 46.5398C2.68934 46.5154 3.79369 46.5157 4.86313 46.5815C5.52018 46.6218 6.15556 46.6864 6.70289 46.7827C7.26029 46.8808 7.68605 47.0053 7.94951 47.1465L8.42192 46.2651C8.01565 46.0473 7.46337 45.9012 6.87621 45.7978C6.27897 45.6927 5.60326 45.6251 4.92446 45.5833C4.85846 45.5793 4.79235 45.5755 4.72619 45.5719C7.92777 44.4101 10.4179 43.2113 12.2922 42.1194C14.742 40.6922 16.1729 39.4284 16.7493 38.6456C18.0718 37.1556 19.7341 34.5919 20.4541 31.6868C21.0135 29.4295 21.0069 26.9421 19.8086 24.6085C20.6812 23.9322 21.5699 23.1396 22.4688 22.2188C26.4332 18.1577 26.7154 13.7165 25.4479 9.85655C24.1922 6.03276 21.4221 2.77781 19.2564 0.942563L18.6099 1.70548ZM17.6477 23.2284C17.9709 23.5908 18.2529 23.9612 18.4969 24.3378C15.1242 26.7296 12.1363 27.2379 9.9178 26.8457C8.4541 26.5869 7.31336 25.9366 6.58308 25.1613C5.84749 24.3804 5.55462 23.5079 5.68231 22.7748C5.96405 21.1572 7.46361 19.6545 9.649 19.3492C11.8117 19.0471 14.7022 19.9258 17.6477 23.2284Z"/>
</mask>
<path fill-rule="evenodd" clip-rule="evenodd" d="M18.6099 1.70548C20.6827 3.46194 23.3166 6.57159 24.4978 10.1685C25.6671 13.7294 25.419 17.7651 21.7532 21.5203C20.9194 22.3744 20.1 23.1094 19.2999 23.7378C19.0375 23.3393 18.7366 22.947 18.394 22.5628C15.2904 19.083 12.0892 17.9986 9.51063 18.3588C6.95469 18.7159 5.06323 20.5013 4.69714 22.6033C4.5009 23.73 4.96901 24.9062 5.85516 25.847C6.74659 26.7934 8.08833 27.5377 9.7437 27.8304C12.2606 28.2754 15.4765 27.6778 18.9916 25.2117C19.9855 27.2481 19.9865 29.4166 19.4834 31.4462C18.8085 34.1695 17.2313 36.6015 15.9864 37.9986L15.9696 38.0174L15.9549 38.0378C15.5096 38.6522 14.2157 39.8416 11.7888 41.2553C9.5273 42.5728 6.31064 44.0684 1.9497 45.4611L1.95542 45.435C2.05412 44.9836 2.18769 44.3637 2.32709 43.6897C2.6039 42.3515 2.91029 40.7695 3.00563 39.8835L2.01137 39.7765C1.92215 40.6056 1.6267 42.1389 1.34782 43.4871C1.20939 44.1564 1.07665 44.7725 0.9785 45.2214C0.929434 45.4458 0.889042 45.6282 0.860931 45.7545L0.828443 45.9L0.819961 45.9378L0.817812 45.9473L0.817275 45.9497L0.817144 45.9503L0.817115 45.9504L1.15293 46.0262L0.817106 45.9504L0.672372 46.5917L1.31603 46.5606L1.35671 46.6938C1.52441 46.6427 1.69055 46.5913 1.85517 46.5398C2.68934 46.5154 3.79369 46.5157 4.86313 46.5815C5.52018 46.6218 6.15556 46.6864 6.70289 46.7827C7.26029 46.8808 7.68605 47.0053 7.94951 47.1465L8.42192 46.2651C8.01565 46.0473 7.46337 45.9012 6.87621 45.7978C6.27897 45.6927 5.60326 45.6251 4.92446 45.5833C4.85846 45.5793 4.79235 45.5755 4.72619 45.5719C7.92777 44.4101 10.4179 43.2113 12.2922 42.1194C14.742 40.6922 16.1729 39.4284 16.7493 38.6456C18.0718 37.1556 19.7341 34.5919 20.4541 31.6868C21.0135 29.4295 21.0069 26.9421 19.8086 24.6085C20.6812 23.9322 21.5699 23.1396 22.4688 22.2188C26.4332 18.1577 26.7154 13.7165 25.4479 9.85655C24.1922 6.03276 21.4221 2.77781 19.2564 0.942563L18.6099 1.70548ZM17.6477 23.2284C17.9709 23.5908 18.2529 23.9612 18.4969 24.3378C15.1242 26.7296 12.1363 27.2379 9.9178 26.8457C8.4541 26.5869 7.31336 25.9366 6.58308 25.1613C5.84749 24.3804 5.55462 23.5079 5.68231 22.7748C5.96405 21.1572 7.46361 19.6545 9.649 19.3492C11.8117 19.0471 14.7022 19.9258 17.6477 23.2284Z" fill="#151B4A"/>
<path d="M24.4978 10.1685L24.2603 10.2465L24.4978 10.1685ZM18.6099 1.70548L18.4191 1.54386L18.2575 1.73459L18.4482 1.89622L18.6099 1.70548ZM21.7532 21.5203L21.9321 21.6949L21.7532 21.5203ZM19.2999 23.7378L19.0911 23.8753L19.2405 24.1023L19.4543 23.9344L19.2999 23.7378ZM18.394 22.5628L18.5805 22.3964L18.394 22.5628ZM9.51063 18.3588L9.54522 18.6064L9.51063 18.3588ZM4.69714 22.6033L4.94343 22.6461L4.69714 22.6033ZM5.85516 25.847L6.03714 25.6756L5.85516 25.847ZM9.7437 27.8304L9.70017 28.0766L9.7437 27.8304ZM18.9916 25.2117L19.2163 25.1021L19.0878 24.8389L18.848 25.0071L18.9916 25.2117ZM19.4834 31.4462L19.2408 31.3861L19.4834 31.4462ZM15.9864 37.9986L16.1731 38.1649L16.1731 38.1649L15.9864 37.9986ZM15.9696 38.0174L15.783 37.8511L15.7746 37.8605L15.7672 37.8707L15.9696 38.0174ZM15.9549 38.0378L15.7524 37.8911L15.7524 37.8911L15.9549 38.0378ZM11.7888 41.2553L11.9147 41.4713L11.7888 41.2553ZM1.9497 45.4611L1.70549 45.4076L1.61272 45.8312L2.02575 45.6993L1.9497 45.4611ZM1.95542 45.435L2.19963 45.4885L2.19965 45.4884L1.95542 45.435ZM2.32709 43.6897L2.08228 43.6391L2.32709 43.6897ZM3.00563 39.8835L3.2542 39.9103L3.28095 39.6617L3.03238 39.635L3.00563 39.8835ZM2.01137 39.7765L2.03812 39.528L1.78956 39.5012L1.76281 39.7498L2.01137 39.7765ZM1.34782 43.4871L1.10301 43.4365L1.34782 43.4871ZM0.9785 45.2214L1.22273 45.2748L0.9785 45.2214ZM0.860931 45.7545L1.10492 45.809L1.10496 45.8088L0.860931 45.7545ZM0.828443 45.9L1.07237 45.9548L1.07243 45.9545L0.828443 45.9ZM0.819961 45.9378L1.06386 45.9927L1.06389 45.9925L0.819961 45.9378ZM0.817812 45.9473L1.06168 46.0024L1.06171 46.0022L0.817812 45.9473ZM0.817275 45.9497L1.06105 46.0051L1.06114 46.0048L0.817275 45.9497ZM0.817144 45.9503L0.573365 45.8948L0.573054 45.8962L0.817144 45.9503ZM0.817115 45.9504L0.573024 45.8964L0.519215 46.1394L0.762054 46.1943L0.817115 45.9504ZM1.15293 46.0262L1.09789 46.2701L1.20799 45.7824L1.15293 46.0262ZM0.817106 45.9504L0.872143 45.7066L0.628277 45.6515L0.573241 45.8954L0.817106 45.9504ZM0.672372 46.5917L0.428507 46.5367L0.356139 46.8573L0.684464 46.8414L0.672372 46.5917ZM1.31603 46.5606L1.55514 46.4876L1.49832 46.3014L1.30393 46.3109L1.31603 46.5606ZM1.35671 46.6938L1.1176 46.7668L1.19059 47.0059L1.42969 46.933L1.35671 46.6938ZM1.85517 46.5398L1.84785 46.2899L1.8134 46.2909L1.7805 46.3012L1.85517 46.5398ZM4.86313 46.5815L4.8478 46.831L4.86313 46.5815ZM6.70289 46.7827L6.74622 46.5365L6.70289 46.7827ZM7.94951 47.1465L7.83141 47.3668L8.05175 47.4849L8.16985 47.2646L7.94951 47.1465ZM8.42192 46.2651L8.64226 46.3832L8.76037 46.1629L8.54002 46.0448L8.42192 46.2651ZM6.87621 45.7978L6.91954 45.5516L6.87621 45.7978ZM4.92446 45.5833L4.93979 45.3338L4.93979 45.3338L4.92446 45.5833ZM4.72619 45.5719L4.64091 45.3369L4.71267 45.8215L4.72619 45.5719ZM12.2922 42.1194L12.4181 42.3354L12.2922 42.1194ZM16.7493 38.6456L16.5623 38.4796L16.5547 38.4882L16.548 38.4974L16.7493 38.6456ZM20.4541 31.6868L20.2114 31.6267L20.4541 31.6868ZM19.8086 24.6085L19.6555 24.4109L19.4914 24.5381L19.5862 24.7227L19.8086 24.6085ZM22.4688 22.2188L22.2899 22.0442L22.4688 22.2188ZM25.4479 9.85655L25.6854 9.77855L25.4479 9.85655ZM19.2564 0.942563L19.418 0.751832L19.2273 0.59021L19.0656 0.78094L19.2564 0.942563ZM18.4969 24.3378L18.6415 24.5417L18.8371 24.403L18.7067 24.2018L18.4969 24.3378ZM17.6477 23.2284L17.4611 23.3948L17.6477 23.2284ZM9.9178 26.8457L9.96133 26.5995L9.9178 26.8457ZM6.58308 25.1613L6.4011 25.3328L6.58308 25.1613ZM5.68231 22.7748L5.9286 22.8177L5.68231 22.7748ZM9.649 19.3492L9.68359 19.5968L9.649 19.3492ZM24.7353 10.0905C23.5355 6.43688 20.8675 3.29091 18.7715 1.51475L18.4482 1.89622C20.4978 3.63297 23.0977 6.70629 24.2603 10.2465L24.7353 10.0905ZM21.9321 21.6949C23.7958 19.7857 24.7998 17.795 25.1841 15.8192C25.568 13.8454 25.3303 11.9024 24.7353 10.0905L24.2603 10.2465C24.8346 11.9956 25.0576 13.8508 24.6933 15.7238C24.3294 17.5949 23.3764 19.4996 21.5743 21.3456L21.9321 21.6949ZM19.4543 23.9344C20.2637 23.2988 21.0912 22.5563 21.9321 21.6949L21.5743 21.3456C20.7476 22.1925 19.9363 22.9201 19.1454 23.5412L19.4543 23.9344ZM18.2074 22.7292C18.5421 23.1045 18.8355 23.4872 19.0911 23.8753L19.5087 23.6003C19.2394 23.1914 18.9311 22.7895 18.5805 22.3964L18.2074 22.7292ZM9.54522 18.6064C12.0198 18.2607 15.1433 19.2936 18.2074 22.7292L18.5805 22.3964C15.4376 18.8723 12.1587 17.7364 9.47603 18.1112L9.54522 18.6064ZM4.94343 22.6461C5.28839 20.6655 7.08168 18.9506 9.54522 18.6064L9.47603 18.1112C6.8277 18.4813 4.83806 20.3371 4.45085 22.5604L4.94343 22.6461ZM6.03714 25.6756C5.18846 24.7746 4.76437 23.6743 4.94343 22.6461L4.45085 22.5604C4.23744 23.7857 4.74957 25.0379 5.67318 26.0184L6.03714 25.6756ZM9.78723 27.5842C8.17976 27.3 6.88828 26.5792 6.03714 25.6756L5.67318 26.0184C6.60491 27.0076 7.9969 27.7754 9.70017 28.0766L9.78723 27.5842ZM18.848 25.0071C15.3768 27.4424 12.2271 28.0156 9.78723 27.5842L9.70017 28.0766C12.2941 28.5352 15.5762 27.9133 19.1352 25.4164L18.848 25.0071ZM19.7261 31.5064C20.239 29.437 20.2427 27.2051 19.2163 25.1021L18.7669 25.3214C19.7282 27.291 19.7339 29.3962 19.2408 31.3861L19.7261 31.5064ZM16.1731 38.1649C17.438 36.7453 19.0392 34.278 19.7261 31.5064L19.2408 31.3861C18.5779 34.0609 17.0246 36.4577 15.7998 37.8323L16.1731 38.1649ZM16.1563 38.1837L16.1731 38.1649L15.7998 37.8323L15.783 37.8511L16.1563 38.1837ZM16.1573 38.1846L16.1721 38.1641L15.7672 37.8707L15.7524 37.8911L16.1573 38.1846ZM11.9147 41.4713C14.3528 40.051 15.6818 38.8406 16.1573 38.1845L15.7524 37.8911C15.3374 38.4638 14.0786 39.6321 11.663 41.0393L11.9147 41.4713ZM2.02575 45.6993C6.40188 44.3017 9.63556 42.7991 11.9147 41.4713L11.663 41.0393C9.41905 42.3465 6.21939 43.8351 1.87364 45.223L2.02575 45.6993ZM1.71121 45.3815L1.70549 45.4076L2.19391 45.5146L2.19963 45.4885L1.71121 45.3815ZM2.08228 43.6391C1.94311 44.3119 1.80975 44.9308 1.71119 45.3816L2.19965 45.4884C2.29848 45.0364 2.43226 44.4155 2.57191 43.7403L2.08228 43.6391ZM2.75707 39.8568C2.66325 40.7285 2.3596 42.2984 2.08228 43.6391L2.57191 43.7403C2.84821 42.4046 3.15733 40.8104 3.2542 39.9103L2.75707 39.8568ZM1.98462 40.0251L2.97888 40.1321L3.03238 39.635L2.03812 39.528L1.98462 40.0251ZM1.59264 43.5378C1.871 42.1921 2.16918 40.6466 2.25994 39.8033L1.76281 39.7498C1.67512 40.5647 1.38241 42.0857 1.10301 43.4365L1.59264 43.5378ZM1.22273 45.2748C1.32101 44.8253 1.45396 44.2082 1.59264 43.5378L1.10301 43.4365C0.964814 44.1046 0.832279 44.7197 0.734269 45.168L1.22273 45.2748ZM1.10496 45.8088C1.13313 45.6823 1.17359 45.4995 1.22273 45.2748L0.734269 45.168C0.68528 45.392 0.644953 45.5742 0.616903 45.7002L1.10496 45.8088ZM1.07243 45.9545L1.10492 45.809L0.61694 45.7L0.584452 45.8455L1.07243 45.9545ZM1.06389 45.9925L1.07237 45.9548L0.584515 45.8452L0.576034 45.883L1.06389 45.9925ZM1.06171 46.0022L1.06386 45.9927L0.576059 45.8829L0.573909 45.8924L1.06171 46.0022ZM1.06114 46.0048L1.06168 46.0024L0.573948 45.8923L0.573411 45.8946L1.06114 46.0048ZM1.06092 46.0057L1.06105 46.0051L0.5735 45.8943L0.573369 45.8948L1.06092 46.0057ZM1.0612 46.0044L1.06123 46.0043L0.573054 45.8962L0.573024 45.8964L1.0612 46.0044ZM1.20799 45.7824L0.872176 45.7065L0.762054 46.1943L1.09787 46.2701L1.20799 45.7824ZM0.762069 46.1943L1.09789 46.2701L1.20797 45.7824L0.872143 45.7066L0.762069 46.1943ZM0.916238 46.6468L1.06097 46.0055L0.573241 45.8954L0.428507 46.5367L0.916238 46.6468ZM1.30393 46.3109L0.66028 46.342L0.684464 46.8414L1.32812 46.8103L1.30393 46.3109ZM1.59582 46.6209L1.55514 46.4876L1.07691 46.6335L1.1176 46.7668L1.59582 46.6209ZM1.7805 46.3012C1.61644 46.3525 1.45086 46.4037 1.28373 46.4547L1.42969 46.933C1.59795 46.8816 1.76466 46.8301 1.92984 46.7784L1.7805 46.3012ZM4.87847 46.3319C3.79966 46.2656 2.68751 46.2653 1.84785 46.2899L1.86249 46.7897C2.69117 46.7654 3.78771 46.7659 4.8478 46.831L4.87847 46.3319ZM6.74622 46.5365C6.18641 46.438 5.54095 46.3726 4.87847 46.3319L4.8478 46.831C5.49941 46.871 6.12471 46.9348 6.65956 47.0289L6.74622 46.5365ZM8.06761 46.9261C7.7684 46.7658 7.31096 46.6359 6.74622 46.5365L6.65956 47.0289C7.20962 47.1257 7.6037 47.2448 7.83141 47.3668L8.06761 46.9261ZM8.20158 46.147L7.72917 47.0284L8.16985 47.2646L8.64226 46.3832L8.20158 46.147ZM6.83288 46.044C7.41252 46.1461 7.93321 46.2868 8.30382 46.4854L8.54002 46.0448C8.09809 45.8079 7.51422 45.6563 6.91954 45.5516L6.83288 46.044ZM4.90913 45.8329C5.58249 45.8742 6.24812 45.9411 6.83288 46.044L6.91954 45.5516C6.30983 45.4443 5.62404 45.3759 4.93979 45.3338L4.90913 45.8329ZM4.71267 45.8215C4.77824 45.8251 4.84375 45.8289 4.90914 45.8329L4.93979 45.3338C4.87317 45.3297 4.80645 45.3259 4.73971 45.3223L4.71267 45.8215ZM12.1664 41.9034C10.3062 42.987 7.82991 44.1797 4.64091 45.3369L4.81147 45.8069C8.02564 44.6405 10.5295 43.4356 12.4181 42.3354L12.1664 41.9034ZM16.548 38.4974C16.0014 39.2397 14.6047 40.4829 12.1664 41.9034L12.4181 42.3354C14.8794 40.9016 16.3445 39.6171 16.9506 38.7938L16.548 38.4974ZM20.2114 31.6267C19.5034 34.4834 17.865 37.0121 16.5623 38.4796L16.9362 38.8116C18.2787 37.2992 19.9648 34.7003 20.6967 31.7469L20.2114 31.6267ZM19.5862 24.7227C20.7496 26.9885 20.7607 29.4105 20.2114 31.6267L20.6967 31.7469C21.2664 29.4485 21.2641 26.8958 20.031 24.4943L19.5862 24.7227ZM22.2899 22.0442C21.3984 22.9574 20.5183 23.7421 19.6555 24.4109L19.9618 24.8061C20.8441 24.1222 21.7413 23.3219 22.6477 22.3934L22.2899 22.0442ZM25.2104 9.93455C26.4534 13.7198 26.1796 18.0596 22.2899 22.0442L22.6477 22.3934C26.6868 18.2558 26.9775 13.7132 25.6854 9.77855L25.2104 9.93455ZM19.0947 1.13329C21.2373 2.94885 23.9733 6.16747 25.2104 9.93455L25.6854 9.77855C24.4111 5.89805 21.607 2.60677 19.418 0.751832L19.0947 1.13329ZM18.8006 1.86711L19.4471 1.10419L19.0656 0.78094L18.4191 1.54386L18.8006 1.86711ZM18.7067 24.2018C18.4556 23.8143 18.1658 23.4337 17.8342 23.062L17.4611 23.3948C17.7761 23.748 18.0502 24.1082 18.2871 24.4737L18.7067 24.2018ZM9.87428 27.0919C12.1703 27.4978 15.2248 26.9648 18.6415 24.5417L18.3523 24.1338C15.0237 26.4944 12.1023 26.978 9.96133 26.5995L9.87428 27.0919ZM6.4011 25.3328C7.17166 26.1508 8.36264 26.8246 9.87428 27.0919L9.96133 26.5995C8.54556 26.3492 7.45507 25.7225 6.76506 24.9899L6.4011 25.3328ZM5.43601 22.7319C5.29124 23.5632 5.62764 24.5116 6.4011 25.3328L6.76506 24.9899C6.06735 24.2492 5.81801 23.4527 5.9286 22.8177L5.43601 22.7319ZM9.6144 19.1016C7.33608 19.4199 5.7388 20.9935 5.43601 22.7319L5.9286 22.8177C6.1893 21.3209 7.59113 19.8892 9.68359 19.5968L9.6144 19.1016ZM17.8342 23.062C14.8491 19.715 11.881 18.7849 9.6144 19.1016L9.68359 19.5968C11.7424 19.3092 14.5552 20.1365 17.4611 23.3948L17.8342 23.062Z" fill="#151B4A" mask="url(#path-1-outside-1_151_2272)"/>
</svg>
