<svg width="56" height="43" viewBox="0 0 56 43" fill="none" xmlns="http://www.w3.org/2000/svg">
<path d="M1.07619 40V31.2727H4.02506C4.70972 31.2727 5.26937 31.3963 5.70403 31.6435C6.14153 31.8878 6.4654 32.2188 6.67562 32.6364C6.88585 33.054 6.99097 33.5199 6.99097 34.0341C6.99097 34.5483 6.88585 35.0156 6.67562 35.4361C6.46824 35.8565 6.14722 36.1918 5.71256 36.4418C5.2779 36.6889 4.72108 36.8125 4.0421 36.8125H1.92847V35.875H4.00801C4.47676 35.875 4.85318 35.794 5.13727 35.6321C5.42136 35.4702 5.62733 35.2514 5.75517 34.9759C5.88585 34.6974 5.95119 34.3835 5.95119 34.0341C5.95119 33.6847 5.88585 33.3722 5.75517 33.0966C5.62733 32.821 5.41994 32.6051 5.13301 32.4489C4.84608 32.2898 4.4654 32.2102 3.99097 32.2102H2.13301V40H1.07619ZM8.79702 40V33.4545H9.76861V34.4432H9.83679C9.95611 34.1193 10.172 33.8565 10.4845 33.6548C10.797 33.4531 11.1493 33.3523 11.5413 33.3523C11.6152 33.3523 11.7075 33.3537 11.8183 33.3565C11.9291 33.3594 12.0129 33.3636 12.0697 33.3693V34.392C12.0357 34.3835 11.9575 34.3707 11.8354 34.3537C11.7161 34.3338 11.5896 34.3239 11.4561 34.3239C11.1379 34.3239 10.8538 34.3906 10.6038 34.5241C10.3567 34.6548 10.1607 34.8366 10.0158 35.0696C9.87372 35.2997 9.8027 35.5625 9.8027 35.858V40H8.79702ZM15.9617 40.1364C15.3708 40.1364 14.8524 39.9957 14.4063 39.7145C13.9632 39.4332 13.6166 39.0398 13.3666 38.5341C13.1194 38.0284 12.9958 37.4375 12.9958 36.7614C12.9958 36.0795 13.1194 35.4844 13.3666 34.9759C13.6166 34.4673 13.9632 34.0724 14.4063 33.7912C14.8524 33.5099 15.3708 33.3693 15.9617 33.3693C16.5526 33.3693 17.0697 33.5099 17.5129 33.7912C17.9589 34.0724 18.3055 34.4673 18.5526 34.9759C18.8026 35.4844 18.9276 36.0795 18.9276 36.7614C18.9276 37.4375 18.8026 38.0284 18.5526 38.5341C18.3055 39.0398 17.9589 39.4332 17.5129 39.7145C17.0697 39.9957 16.5526 40.1364 15.9617 40.1364ZM15.9617 39.233C16.4106 39.233 16.7799 39.1179 17.0697 38.8878C17.3595 38.6577 17.5739 38.3551 17.7132 37.9801C17.8524 37.6051 17.922 37.1989 17.922 36.7614C17.922 36.3239 17.8524 35.9162 17.7132 35.5384C17.5739 35.1605 17.3595 34.8551 17.0697 34.6222C16.7799 34.3892 16.4106 34.2727 15.9617 34.2727C15.5129 34.2727 15.1436 34.3892 14.8538 34.6222C14.564 34.8551 14.3495 35.1605 14.2103 35.5384C14.0711 35.9162 14.0015 36.3239 14.0015 36.7614C14.0015 37.1989 14.0711 37.6051 14.2103 37.9801C14.3495 38.3551 14.564 38.6577 14.8538 38.8878C15.1436 39.1179 15.5129 39.233 15.9617 39.233ZM23.3448 42.5909C22.859 42.5909 22.4414 42.5284 22.092 42.4034C21.7426 42.2812 21.4514 42.1193 21.2184 41.9176C20.9883 41.7188 20.8051 41.5057 20.6687 41.2784L21.4698 40.7159C21.5608 40.8352 21.6758 40.9716 21.815 41.125C21.9542 41.2812 22.1446 41.4162 22.386 41.5298C22.6304 41.6463 22.95 41.7045 23.3448 41.7045C23.8733 41.7045 24.3093 41.5767 24.6531 41.321C24.9968 41.0653 25.1687 40.6648 25.1687 40.1193V38.7898H25.0835C25.0096 38.9091 24.9045 39.0568 24.7681 39.233C24.6346 39.4062 24.4414 39.5611 24.1886 39.6974C23.9386 39.831 23.6005 39.8977 23.1744 39.8977C22.646 39.8977 22.1715 39.7727 21.7511 39.5227C21.3335 39.2727 21.0025 38.9091 20.7582 38.4318C20.5167 37.9545 20.396 37.375 20.396 36.6932C20.396 36.0227 20.5139 35.4389 20.7497 34.9418C20.9855 34.4418 21.3136 34.0554 21.734 33.7827C22.1545 33.5071 22.6403 33.3693 23.1914 33.3693C23.6176 33.3693 23.9556 33.4403 24.2056 33.5824C24.4585 33.7216 24.6517 33.8807 24.7852 34.0597C24.9215 34.2358 25.0267 34.3807 25.1005 34.4943H25.2028V33.4545H26.1744V40.1875C26.1744 40.75 26.0465 41.2074 25.7909 41.5597C25.538 41.9148 25.1971 42.1747 24.7681 42.3395C24.342 42.5071 23.8676 42.5909 23.3448 42.5909ZM23.3108 38.9943C23.7142 38.9943 24.0551 38.902 24.3335 38.7173C24.6119 38.5327 24.8235 38.267 24.9684 37.9205C25.1133 37.5739 25.1858 37.1591 25.1858 36.6761C25.1858 36.2045 25.1147 35.7884 24.9727 35.4276C24.8306 35.0668 24.6204 34.7841 24.342 34.5795C24.0636 34.375 23.7198 34.2727 23.3108 34.2727C22.8846 34.2727 22.5295 34.3807 22.2454 34.5966C21.9642 34.8125 21.7525 35.1023 21.6105 35.4659C21.4713 35.8295 21.4017 36.233 21.4017 36.6761C21.4017 37.1307 21.4727 37.5327 21.6147 37.8821C21.7596 38.2287 21.9727 38.5014 22.2539 38.7003C22.538 38.8963 22.8903 38.9943 23.3108 38.9943ZM28.2553 40V33.4545H29.2269V34.4432H29.2951C29.4144 34.1193 29.6303 33.8565 29.9428 33.6548C30.2553 33.4531 30.6076 33.3523 30.9996 33.3523C31.0735 33.3523 31.1658 33.3537 31.2766 33.3565C31.3874 33.3594 31.4712 33.3636 31.528 33.3693V34.392C31.4939 34.3835 31.4158 34.3707 31.2936 34.3537C31.1743 34.3338 31.0479 34.3239 30.9144 34.3239C30.5962 34.3239 30.3121 34.3906 30.0621 34.5241C29.815 34.6548 29.6189 34.8366 29.474 35.0696C29.332 35.2997 29.261 35.5625 29.261 35.858V40H28.2553ZM34.8863 40.1534C34.4715 40.1534 34.0951 40.0753 33.757 39.919C33.4189 39.7599 33.1505 39.5312 32.9516 39.233C32.7528 38.9318 32.6533 38.5682 32.6533 38.142C32.6533 37.767 32.7272 37.4631 32.8749 37.2301C33.0226 36.9943 33.2201 36.8097 33.4672 36.6761C33.7144 36.5426 33.9871 36.4432 34.2854 36.3778C34.5866 36.3097 34.8891 36.2557 35.1931 36.2159C35.5908 36.1648 35.9133 36.1264 36.1604 36.1009C36.4104 36.0724 36.5922 36.0256 36.7059 35.9602C36.8224 35.8949 36.8806 35.7812 36.8806 35.6193V35.5852C36.8806 35.1648 36.7655 34.8381 36.5354 34.6051C36.3082 34.3722 35.963 34.2557 35.4999 34.2557C35.0198 34.2557 34.6434 34.3608 34.3707 34.571C34.0979 34.7812 33.9062 35.0057 33.7954 35.2443L32.8408 34.9034C33.0113 34.5057 33.2386 34.196 33.5226 33.9744C33.8096 33.75 34.1221 33.5937 34.4601 33.5057C34.8011 33.4148 35.1363 33.3693 35.4658 33.3693C35.6761 33.3693 35.9175 33.3949 36.1903 33.446C36.4658 33.4943 36.7314 33.5952 36.9871 33.7486C37.2457 33.902 37.4601 34.1335 37.6306 34.4432C37.8011 34.7528 37.8863 35.1676 37.8863 35.6875V40H36.8806V39.1136H36.8295C36.7613 39.2557 36.6476 39.4077 36.4886 39.5696C36.3295 39.7315 36.1178 39.8693 35.8536 39.983C35.5894 40.0966 35.267 40.1534 34.8863 40.1534ZM35.0397 39.25C35.4374 39.25 35.7726 39.1719 36.0454 39.0156C36.3209 38.8594 36.5283 38.6577 36.6675 38.4105C36.8096 38.1634 36.8806 37.9034 36.8806 37.6307V36.7102C36.838 36.7614 36.7442 36.8082 36.5993 36.8509C36.4573 36.8906 36.2925 36.9261 36.105 36.9574C35.9204 36.9858 35.74 37.0114 35.5638 37.0341C35.3905 37.054 35.2499 37.071 35.142 37.0852C34.8806 37.1193 34.6363 37.1747 34.409 37.2514C34.1846 37.3253 34.0028 37.4375 33.8636 37.5881C33.7272 37.7358 33.659 37.9375 33.659 38.1932C33.659 38.5426 33.7883 38.8068 34.0468 38.9858C34.3082 39.1619 34.6391 39.25 35.0397 39.25ZM39.9619 40V33.4545H40.9335V34.4773H41.0187C41.155 34.1278 41.3752 33.8565 41.6792 33.6634C41.9832 33.4673 42.3482 33.3693 42.7744 33.3693C43.2062 33.3693 43.5656 33.4673 43.8525 33.6634C44.1423 33.8565 44.3681 34.1278 44.53 34.4773H44.5982C44.7658 34.1392 45.0173 33.8707 45.3525 33.6719C45.6877 33.4702 46.0897 33.3693 46.5585 33.3693C47.1437 33.3693 47.6224 33.5526 47.9945 33.919C48.3667 34.2827 48.5528 34.8494 48.5528 35.6193V40H47.5471V35.6193C47.5471 35.1364 47.415 34.7912 47.1508 34.5838C46.8866 34.3764 46.5755 34.2727 46.2175 34.2727C45.7573 34.2727 45.4008 34.4119 45.1479 34.6903C44.8951 34.9659 44.7687 35.3153 44.7687 35.7386V40H43.746V35.517C43.746 35.1449 43.6252 34.8452 43.3837 34.6179C43.1423 34.3878 42.8312 34.2727 42.4505 34.2727C42.1891 34.2727 41.9448 34.3423 41.7175 34.4815C41.4931 34.6207 41.3113 34.8139 41.1721 35.0611C41.0357 35.3054 40.9675 35.5881 40.9675 35.9091V40H39.9619ZM55.2679 34.9205L54.3645 35.1761C54.3077 35.0256 54.2239 34.8793 54.1131 34.7372C54.0051 34.5923 53.8574 34.473 53.6699 34.3793C53.4824 34.2855 53.2423 34.2386 52.9497 34.2386C52.5492 34.2386 52.2154 34.331 51.9483 34.5156C51.6841 34.6974 51.552 34.929 51.552 35.2102C51.552 35.4602 51.6429 35.6577 51.8247 35.8026C52.0065 35.9474 52.2906 36.0682 52.677 36.1648L53.6486 36.4034C54.2338 36.5455 54.6699 36.7628 54.9568 37.0554C55.2438 37.3452 55.3872 37.7187 55.3872 38.1761C55.3872 38.5511 55.2793 38.8864 55.0634 39.1818C54.8503 39.4773 54.552 39.7102 54.1685 39.8807C53.785 40.0511 53.3389 40.1364 52.8304 40.1364C52.1628 40.1364 51.6102 39.9915 51.1727 39.7017C50.7352 39.4119 50.4583 38.9886 50.3418 38.4318L51.2963 38.1932C51.3872 38.5455 51.5591 38.8097 51.8119 38.9858C52.0676 39.1619 52.4014 39.25 52.8134 39.25C53.2821 39.25 53.6543 39.1506 53.9298 38.9517C54.2083 38.75 54.3475 38.5085 54.3475 38.2273C54.3475 38 54.2679 37.8097 54.1088 37.6562C53.9497 37.5 53.7054 37.3835 53.3759 37.3068L52.285 37.0511C51.6855 36.9091 51.2452 36.6889 50.9639 36.3906C50.6855 36.0895 50.5463 35.7131 50.5463 35.2614C50.5463 34.892 50.65 34.5653 50.8574 34.2812C51.0676 33.9972 51.3531 33.7741 51.7139 33.6122C52.0776 33.4503 52.4895 33.3693 52.9497 33.3693C53.5975 33.3693 54.106 33.5114 54.4753 33.7955C54.8475 34.0795 55.1117 34.4545 55.2679 34.9205Z" fill="white"/>
<path d="M19 17.0001H26.2857V9.71436H19V17.0001Z" fill="#EA5858"/>
<path d="M28.7144 17.0001H36.0001V9.71436H28.7144V17.0001Z" fill="white"/>
<path d="M19 7.28571H26.2857V0H19V7.28571Z" fill="#EA5858"/>
<path d="M28.7144 7.28571H36.0001V0H28.7144V7.28571Z" fill="white"/>
</svg>
