<svg width="94" height="70" viewBox="0 0 94 70" fill="none" xmlns="http://www.w3.org/2000/svg">
<path d="M0 0H94V70H0V0Z" fill="black"/>
<path d="M12.8523 55H11.7444L14.9489 46.2727H16.0398L19.2444 55H18.1364L15.5285 47.6534H15.4603L12.8523 55ZM13.2614 51.5909H17.7273V52.5284H13.2614V51.5909ZM25.3438 49.9205L24.4404 50.1761C24.3835 50.0256 24.2997 49.8793 24.1889 49.7372C24.081 49.5923 23.9333 49.473 23.7458 49.3793C23.5583 49.2855 23.3182 49.2386 23.0256 49.2386C22.625 49.2386 22.2912 49.331 22.0242 49.5156C21.76 49.6974 21.6279 49.929 21.6279 50.2102C21.6279 50.4602 21.7188 50.6577 21.9006 50.8026C22.0824 50.9474 22.3665 51.0682 22.7529 51.1648L23.7245 51.4034C24.3097 51.5455 24.7458 51.7628 25.0327 52.0554C25.3196 52.3452 25.4631 52.7187 25.4631 53.1761C25.4631 53.5511 25.3551 53.8864 25.1392 54.1818C24.9262 54.4773 24.6279 54.7102 24.2443 54.8807C23.8608 55.0511 23.4148 55.1364 22.9063 55.1364C22.2387 55.1364 21.6861 54.9915 21.2486 54.7017C20.8111 54.4119 20.5341 53.9886 20.4176 53.4318L21.3722 53.1932C21.4631 53.5455 21.635 53.8097 21.8878 53.9858C22.1435 54.1619 22.4773 54.25 22.8892 54.25C23.358 54.25 23.7301 54.1506 24.0057 53.9517C24.2841 53.75 24.4233 53.5085 24.4233 53.2273C24.4233 53 24.3438 52.8097 24.1847 52.6562C24.0256 52.5 23.7813 52.3835 23.4517 52.3068L22.3608 52.0511C21.7614 51.9091 21.321 51.6889 21.0398 51.3906C20.7614 51.0895 20.6222 50.7131 20.6222 50.2614C20.6222 49.892 20.7259 49.5653 20.9333 49.2812C21.1435 48.9972 21.429 48.7741 21.7898 48.6122C22.1534 48.4503 22.5654 48.3693 23.0256 48.3693C23.6733 48.3693 24.1818 48.5114 24.5512 48.7955C24.9233 49.0795 25.1875 49.4545 25.3438 49.9205ZM31.8533 49.9205L30.9499 50.1761C30.8931 50.0256 30.8093 49.8793 30.6985 49.7372C30.5905 49.5923 30.4428 49.473 30.2553 49.3793C30.0678 49.2855 29.8277 49.2386 29.5351 49.2386C29.1346 49.2386 28.8007 49.331 28.5337 49.5156C28.2695 49.6974 28.1374 49.929 28.1374 50.2102C28.1374 50.4602 28.2283 50.6577 28.4101 50.8026C28.5919 50.9474 28.876 51.0682 29.2624 51.1648L30.234 51.4034C30.8192 51.5455 31.2553 51.7628 31.5422 52.0554C31.8292 52.3452 31.9726 52.7187 31.9726 53.1761C31.9726 53.5511 31.8647 53.8864 31.6488 54.1818C31.4357 54.4773 31.1374 54.7102 30.7539 54.8807C30.3703 55.0511 29.9243 55.1364 29.4158 55.1364C28.7482 55.1364 28.1956 54.9915 27.7581 54.7017C27.3206 54.4119 27.0436 53.9886 26.9272 53.4318L27.8817 53.1932C27.9726 53.5455 28.1445 53.8097 28.3973 53.9858C28.653 54.1619 28.9868 54.25 29.3988 54.25C29.8675 54.25 30.2397 54.1506 30.5152 53.9517C30.7936 53.75 30.9328 53.5085 30.9328 53.2273C30.9328 53 30.8533 52.8097 30.6942 52.6562C30.5351 52.5 30.2908 52.3835 29.9613 52.3068L28.8703 52.0511C28.2709 51.9091 27.8306 51.6889 27.5493 51.3906C27.2709 51.0895 27.1317 50.7131 27.1317 50.2614C27.1317 49.892 27.2354 49.5653 27.4428 49.2812C27.653 48.9972 27.9385 48.7741 28.2993 48.6122C28.663 48.4503 29.0749 48.3693 29.5351 48.3693C30.1828 48.3693 30.6914 48.5114 31.0607 48.7955C31.4328 49.0795 31.6971 49.4545 31.8533 49.9205ZM36.4708 55.1364C35.8401 55.1364 35.2961 54.9972 34.8387 54.7188C34.3841 54.4375 34.0333 54.0455 33.7861 53.5426C33.5418 53.0369 33.4196 52.4489 33.4196 51.7784C33.4196 51.108 33.5418 50.517 33.7861 50.0057C34.0333 49.4915 34.377 49.0909 34.8174 48.804C35.2606 48.5142 35.7776 48.3693 36.3685 48.3693C36.7094 48.3693 37.0461 48.4261 37.3785 48.5398C37.7108 48.6534 38.0134 48.8381 38.2861 49.0938C38.5589 49.3466 38.7762 49.6818 38.9381 50.0994C39.1 50.517 39.181 51.0312 39.181 51.642V52.0682H34.1356V51.1989H38.1583C38.1583 50.8295 38.0844 50.5 37.9367 50.2102C37.7918 49.9205 37.5844 49.6918 37.3145 49.5241C37.0475 49.3565 36.7321 49.2727 36.3685 49.2727C35.9679 49.2727 35.6214 49.3722 35.3287 49.571C35.039 49.767 34.816 50.0227 34.6597 50.3381C34.5035 50.6534 34.4253 50.9915 34.4253 51.3523V51.9318C34.4253 52.4261 34.5106 52.8452 34.681 53.1889C34.8543 53.5298 35.0944 53.7898 35.4012 53.9688C35.708 54.1449 36.0645 54.233 36.4708 54.233C36.735 54.233 36.9736 54.196 37.1867 54.1222C37.4026 54.0455 37.5887 53.9318 37.7449 53.7812C37.9012 53.6278 38.0219 53.4375 38.1071 53.2102L39.0787 53.483C38.9765 53.8125 38.8046 54.1023 38.5631 54.3523C38.3216 54.5994 38.0233 54.7926 37.6682 54.9318C37.3131 55.0682 36.914 55.1364 36.4708 55.1364ZM45.5872 49.9205L44.6838 50.1761C44.627 50.0256 44.5432 49.8793 44.4324 49.7372C44.3244 49.5923 44.1767 49.473 43.9892 49.3793C43.8017 49.2855 43.5616 49.2386 43.269 49.2386C42.8685 49.2386 42.5346 49.331 42.2676 49.5156C42.0034 49.6974 41.8713 49.929 41.8713 50.2102C41.8713 50.4602 41.9622 50.6577 42.144 50.8026C42.3258 50.9474 42.6099 51.0682 42.9963 51.1648L43.9679 51.4034C44.5531 51.5455 44.9892 51.7628 45.2761 52.0554C45.5631 52.3452 45.7065 52.7187 45.7065 53.1761C45.7065 53.5511 45.5986 53.8864 45.3827 54.1818C45.1696 54.4773 44.8713 54.7102 44.4878 54.8807C44.1043 55.0511 43.6582 55.1364 43.1497 55.1364C42.4821 55.1364 41.9295 54.9915 41.492 54.7017C41.0545 54.4119 40.7775 53.9886 40.6611 53.4318L41.6156 53.1932C41.7065 53.5455 41.8784 53.8097 42.1312 53.9858C42.3869 54.1619 42.7207 54.25 43.1327 54.25C43.6014 54.25 43.9736 54.1506 44.2491 53.9517C44.5275 53.75 44.6668 53.5085 44.6668 53.2273C44.6668 53 44.5872 52.8097 44.4281 52.6562C44.269 52.5 44.0247 52.3835 43.6952 52.3068L42.6043 52.0511C42.0048 51.9091 41.5645 51.6889 41.2832 51.3906C41.0048 51.0895 40.8656 50.7131 40.8656 50.2614C40.8656 49.892 40.9693 49.5653 41.1767 49.2812C41.3869 48.9972 41.6724 48.7741 42.0332 48.6122C42.3969 48.4503 42.8088 48.3693 43.269 48.3693C43.9168 48.3693 44.4253 48.5114 44.7946 48.7955C45.1668 49.0795 45.431 49.4545 45.5872 49.9205ZM52.0967 49.9205L51.1933 50.1761C51.1365 50.0256 51.0527 49.8793 50.9419 49.7372C50.834 49.5923 50.6862 49.473 50.4987 49.3793C50.3112 49.2855 50.0712 49.2386 49.7786 49.2386C49.378 49.2386 49.0442 49.331 48.7771 49.5156C48.5129 49.6974 48.3808 49.929 48.3808 50.2102C48.3808 50.4602 48.4717 50.6577 48.6536 50.8026C48.8354 50.9474 49.1195 51.0682 49.5058 51.1648L50.4774 51.4034C51.0626 51.5455 51.4987 51.7628 51.7857 52.0554C52.0726 52.3452 52.2161 52.7187 52.2161 53.1761C52.2161 53.5511 52.1081 53.8864 51.8922 54.1818C51.6791 54.4773 51.3808 54.7102 50.9973 54.8807C50.6138 55.0511 50.1678 55.1364 49.6592 55.1364C48.9916 55.1364 48.4391 54.9915 48.0016 54.7017C47.5641 54.4119 47.2871 53.9886 47.1706 53.4318L48.1251 53.1932C48.2161 53.5455 48.3879 53.8097 48.6408 53.9858C48.8965 54.1619 49.2303 54.25 49.6422 54.25C50.1109 54.25 50.4831 54.1506 50.7587 53.9517C51.0371 53.75 51.1763 53.5085 51.1763 53.2273C51.1763 53 51.0967 52.8097 50.9376 52.6562C50.7786 52.5 50.5342 52.3835 50.2047 52.3068L49.1138 52.0511C48.5144 51.9091 48.074 51.6889 47.7928 51.3906C47.5144 51.0895 47.3751 50.7131 47.3751 50.2614C47.3751 49.892 47.4788 49.5653 47.6862 49.2812C47.8965 48.9972 48.182 48.7741 48.5428 48.6122C48.9064 48.4503 49.3183 48.3693 49.7786 48.3693C50.4263 48.3693 50.9348 48.5114 51.3041 48.7955C51.6763 49.0795 51.9405 49.4545 52.0967 49.9205ZM53.9699 55V48.4545H54.9415V49.4773H55.0267C55.1631 49.1278 55.3833 48.8565 55.6872 48.6634C55.9912 48.4673 56.3563 48.3693 56.7824 48.3693C57.2142 48.3693 57.5736 48.4673 57.8605 48.6634C58.1503 48.8565 58.3762 49.1278 58.5381 49.4773H58.6063C58.7739 49.1392 59.0253 48.8707 59.3605 48.6719C59.6958 48.4702 60.0977 48.3693 60.5665 48.3693C61.1517 48.3693 61.6304 48.5526 62.0026 48.919C62.3747 49.2827 62.5608 49.8494 62.5608 50.6193V55H61.5551V50.6193C61.5551 50.1364 61.423 49.7912 61.1588 49.5838C60.8946 49.3764 60.5835 49.2727 60.2256 49.2727C59.7654 49.2727 59.4088 49.4119 59.156 49.6903C58.9031 49.9659 58.7767 50.3153 58.7767 50.7386V55H57.754V50.517C57.754 50.1449 57.6333 49.8452 57.3918 49.6179C57.1503 49.3878 56.8392 49.2727 56.4585 49.2727C56.1972 49.2727 55.9529 49.3423 55.7256 49.4815C55.5012 49.6207 55.3193 49.8139 55.1801 50.0611C55.0438 50.3054 54.9756 50.5881 54.9756 50.9091V55H53.9699ZM67.3839 55.1364C66.7532 55.1364 66.2092 54.9972 65.7518 54.7188C65.2973 54.4375 64.9464 54.0455 64.6993 53.5426C64.4549 53.0369 64.3328 52.4489 64.3328 51.7784C64.3328 51.108 64.4549 50.517 64.6993 50.0057C64.9464 49.4915 65.2902 49.0909 65.7305 48.804C66.1737 48.5142 66.6907 48.3693 67.2816 48.3693C67.6225 48.3693 67.9592 48.4261 68.2916 48.5398C68.624 48.6534 68.9265 48.8381 69.1993 49.0938C69.472 49.3466 69.6893 49.6818 69.8512 50.0994C70.0132 50.517 70.0941 51.0312 70.0941 51.642V52.0682H65.0487V51.1989H69.0714C69.0714 50.8295 68.9975 50.5 68.8498 50.2102C68.7049 49.9205 68.4975 49.6918 68.2277 49.5241C67.9606 49.3565 67.6453 49.2727 67.2816 49.2727C66.8811 49.2727 66.5345 49.3722 66.2419 49.571C65.9521 49.767 65.7291 50.0227 65.5728 50.3381C65.4166 50.6534 65.3385 50.9915 65.3385 51.3523V51.9318C65.3385 52.4261 65.4237 52.8452 65.5941 53.1889C65.7674 53.5298 66.0075 53.7898 66.3143 53.9688C66.6211 54.1449 66.9777 54.233 67.3839 54.233C67.6481 54.233 67.8868 54.196 68.0998 54.1222C68.3157 54.0455 68.5018 53.9318 68.6581 53.7812C68.8143 53.6278 68.935 53.4375 69.0203 53.2102L69.9919 53.483C69.8896 53.8125 69.7177 54.1023 69.4762 54.3523C69.2348 54.5994 68.9365 54.7926 68.5814 54.9318C68.2262 55.0682 67.8271 55.1364 67.3839 55.1364ZM72.8696 51.0625V55H71.864V48.4545H72.8356V49.4773H72.9208C73.0742 49.1449 73.3071 48.8778 73.6196 48.6761C73.9321 48.4716 74.3356 48.3693 74.8299 48.3693C75.2731 48.3693 75.6608 48.4602 75.9932 48.642C76.3256 48.821 76.5841 49.0938 76.7688 49.4602C76.9535 49.8239 77.0458 50.2841 77.0458 50.8409V55H76.0401V50.9091C76.0401 50.3949 75.9066 49.9943 75.6395 49.7074C75.3725 49.4176 75.006 49.2727 74.5401 49.2727C74.2191 49.2727 73.9321 49.3423 73.6793 49.4815C73.4293 49.6207 73.2319 49.8239 73.087 50.0909C72.9421 50.358 72.8696 50.6818 72.8696 51.0625ZM81.9701 48.4545V49.3068H78.578V48.4545H81.9701ZM79.5667 46.8864H80.5724V53.125C80.5724 53.4091 80.6136 53.6222 80.6959 53.7642C80.7812 53.9034 80.8891 53.9972 81.0198 54.0455C81.1533 54.0909 81.294 54.1136 81.4417 54.1136C81.5525 54.1136 81.6434 54.108 81.7144 54.0966C81.7854 54.0824 81.8423 54.071 81.8849 54.0625L82.0894 54.9659C82.0212 54.9915 81.9261 55.017 81.8039 55.0426C81.6817 55.071 81.5269 55.0852 81.3394 55.0852C81.0553 55.0852 80.7769 55.0241 80.5042 54.902C80.2343 54.7798 80.0099 54.5938 79.8309 54.3438C79.6548 54.0938 79.5667 53.7784 79.5667 53.3977V46.8864Z" fill="white"/>
<path d="M41.1313 16.7782H47.4453C47.6159 16.7782 47.7866 16.6416 47.7866 16.4369V14.1843C47.7866 14.0136 47.65 13.843 47.4453 13.843H46.3873C46.2507 12.8191 45.3634 12 44.2712 12C43.2132 12 42.2917 12.8191 42.1552 13.843H41.0972C40.9265 13.843 40.7559 13.9795 40.7559 14.1843V16.4369C40.79 16.6416 40.9265 16.7782 41.1313 16.7782ZM44.2712 12.6485C44.9879 12.6485 45.5681 13.1604 45.7047 13.8089H42.8378C42.9743 13.1604 43.5545 12.6485 44.2712 12.6485Z" fill="white"/>
<path d="M50.5512 28.4847C49.0153 27.6997 47.9573 26.0956 47.9573 24.2526C47.9573 21.727 49.9027 19.6793 52.36 19.5086V14.7305C52.36 14.5598 52.2235 14.3892 52.0187 14.3892H48.4351V16.4369C48.4351 16.983 47.9914 17.4267 47.4454 17.4267H41.1314C40.5853 17.4267 40.1416 16.983 40.1416 16.4369V14.4233H36.4897C36.3191 14.4233 36.1484 14.5598 36.1484 14.7646V33.1605C36.1484 33.3311 36.285 33.5018 36.4897 33.5018H50.8583C50.6535 33.1605 50.517 32.785 50.517 32.3414V28.4847H50.5512ZM39.1177 31.3175H38.5034C38.3327 31.3175 38.1621 31.1809 38.1621 30.9762C38.1621 30.8055 38.2986 30.6349 38.5034 30.6349H39.0836C39.2542 30.6349 39.4249 30.7714 39.4249 30.9762C39.4249 31.1809 39.2884 31.3175 39.1177 31.3175ZM39.1177 28.8601H38.5034C38.3327 28.8601 38.1621 28.7236 38.1621 28.5188C38.1621 28.3141 38.2986 28.1775 38.5034 28.1775H39.0836C39.2542 28.1775 39.4249 28.3141 39.4249 28.5188C39.4249 28.7236 39.2884 28.8601 39.1177 28.8601ZM39.1177 26.4028H38.5034C38.3327 26.4028 38.1621 26.2663 38.1621 26.0615C38.1621 25.8909 38.2986 25.7202 38.5034 25.7202H39.0836C39.2542 25.7202 39.4249 25.8567 39.4249 26.0615C39.4249 26.2663 39.2884 26.4028 39.1177 26.4028ZM39.1177 23.9455H38.5034C38.3327 23.9455 38.1621 23.8089 38.1621 23.6042C38.1621 23.4335 38.2986 23.2629 38.5034 23.2629H39.0836C39.2542 23.2629 39.4249 23.3994 39.4249 23.6042C39.4249 23.7748 39.2884 23.9455 39.1177 23.9455ZM39.1177 21.454H38.5034C38.3327 21.454 38.1621 21.3175 38.1621 21.1127C38.1621 20.9421 38.2986 20.7714 38.5034 20.7714H39.0836C39.2542 20.7714 39.4249 20.9079 39.4249 21.1127C39.4249 21.3175 39.2884 21.454 39.1177 21.454ZM41.4044 20.8055H48.0938C48.2645 20.8055 48.4351 20.9421 48.4351 21.1468C48.4351 21.3175 48.2986 21.4881 48.0938 21.4881H41.4044C41.2338 21.4881 41.0631 21.3516 41.0631 21.1468C41.0631 20.9421 41.2338 20.8055 41.4044 20.8055ZM41.4044 23.2629H46.0802C46.2508 23.2629 46.4215 23.3994 46.4215 23.6042C46.4215 23.7748 46.2849 23.9455 46.0802 23.9455H41.4044C41.2338 23.9455 41.0631 23.8089 41.0631 23.6042C41.0631 23.4335 41.2338 23.2629 41.4044 23.2629ZM41.4044 25.7202H46.0802C46.2508 25.7202 46.4215 25.8567 46.4215 26.0615C46.4215 26.2321 46.2849 26.4028 46.0802 26.4028H41.4044C41.2338 26.4028 41.0631 26.2663 41.0631 26.0615C41.0631 25.8909 41.2338 25.7202 41.4044 25.7202ZM47.1041 31.3175H41.4044C41.2338 31.3175 41.0631 31.1809 41.0631 30.9762C41.0631 30.8055 41.1996 30.6349 41.4044 30.6349H47.1041C47.2747 30.6349 47.4454 30.7714 47.4454 30.9762C47.4112 31.1809 47.2747 31.3175 47.1041 31.3175ZM47.7184 28.8601H41.4044C41.2338 28.8601 41.0631 28.7236 41.0631 28.5188C41.0631 28.3141 41.1996 28.1775 41.4044 28.1775H47.7184C47.889 28.1775 48.0597 28.3141 48.0597 28.5188C48.0597 28.7236 47.9232 28.8601 47.7184 28.8601Z" fill="white"/>
<path d="M52.7013 20.1909C50.4487 20.1909 48.6057 22.0339 48.6057 24.2865C48.6057 26.539 50.4487 28.382 52.7013 28.382C54.9538 28.382 56.7968 26.539 56.7968 24.2865C56.7968 22.0339 54.9538 20.1909 52.7013 20.1909Z" fill="#EA5858"/>
<path d="M52.7149 21.3452C51.0795 21.3452 49.7415 22.6833 49.7415 24.3187C49.7415 25.9541 51.0795 27.2922 52.7149 27.2922C54.3504 27.2922 55.6884 25.9541 55.6884 24.3187C55.6884 22.6833 54.3504 21.3452 52.7149 21.3452Z" fill="#D3D3D3"/>
<path d="M51.1997 28.7915V32.341C51.1997 33.1601 51.8823 33.8427 52.7014 33.8427C53.5205 33.8427 54.2031 33.1601 54.2031 32.341V28.7915C53.7253 28.9622 53.2134 29.0304 52.7014 29.0304C52.1895 29.0304 51.6775 28.9622 51.1997 28.7915Z" fill="#EA5858"/>
</svg>
