<svg width="94" height="70" viewBox="0 0 94 70" fill="none" xmlns="http://www.w3.org/2000/svg">
<path d="M0 0H94V70H0V0Z" fill="black"/>
<path d="M31.5529 49H30.4961C30.4336 48.696 30.3242 48.429 30.168 48.1989C30.0146 47.9688 29.8271 47.7756 29.6055 47.6193C29.3867 47.4602 29.1438 47.3409 28.8768 47.2614C28.6097 47.1818 28.3313 47.142 28.0415 47.142C27.5131 47.142 27.0344 47.2756 26.6055 47.5426C26.1793 47.8097 25.8398 48.2031 25.587 48.723C25.337 49.2429 25.212 49.8807 25.212 50.6364C25.212 51.392 25.337 52.0298 25.587 52.5497C25.8398 53.0696 26.1793 53.4631 26.6055 53.7301C27.0344 53.9972 27.5131 54.1307 28.0415 54.1307C28.3313 54.1307 28.6097 54.0909 28.8768 54.0114C29.1438 53.9318 29.3867 53.8139 29.6055 53.6577C29.8271 53.4986 30.0146 53.304 30.168 53.0739C30.3242 52.8409 30.4336 52.5739 30.4961 52.2727H31.5529C31.4734 52.7187 31.3285 53.1179 31.1182 53.4702C30.908 53.8224 30.6467 54.1222 30.3342 54.3693C30.0217 54.6136 29.6708 54.7997 29.2816 54.9276C28.8952 55.0554 28.4819 55.1193 28.0415 55.1193C27.2972 55.1193 26.6353 54.9375 26.0557 54.5739C25.4762 54.2102 25.0202 53.6932 24.6878 53.0227C24.3555 52.3523 24.1893 51.5568 24.1893 50.6364C24.1893 49.7159 24.3555 48.9205 24.6878 48.25C25.0202 47.5795 25.4762 47.0625 26.0557 46.6989C26.6353 46.3352 27.2972 46.1534 28.0415 46.1534C28.4819 46.1534 28.8952 46.2173 29.2816 46.3452C29.6708 46.473 30.0217 46.6605 30.3342 46.9077C30.6467 47.152 30.908 47.4503 31.1182 47.8026C31.3285 48.152 31.4734 48.5511 31.5529 49ZM36.1086 55.1364C35.4779 55.1364 34.9339 54.9972 34.4765 54.7188C34.022 54.4375 33.6711 54.0455 33.4239 53.5426C33.1796 53.0369 33.0575 52.4489 33.0575 51.7784C33.0575 51.108 33.1796 50.517 33.4239 50.0057C33.6711 49.4915 34.0149 49.0909 34.4552 48.804C34.8984 48.5142 35.4154 48.3693 36.0063 48.3693C36.3472 48.3693 36.6839 48.4261 37.0163 48.5398C37.3487 48.6534 37.6512 48.8381 37.9239 49.0938C38.1967 49.3466 38.414 49.6818 38.5759 50.0994C38.7379 50.517 38.8188 51.0312 38.8188 51.642V52.0682H33.7734V51.1989H37.7961C37.7961 50.8295 37.7222 50.5 37.5745 50.2102C37.4296 49.9205 37.2222 49.6918 36.9524 49.5241C36.6853 49.3565 36.37 49.2727 36.0063 49.2727C35.6058 49.2727 35.2592 49.3722 34.9666 49.571C34.6768 49.767 34.4538 50.0227 34.2975 50.3381C34.1413 50.6534 34.0631 50.9915 34.0631 51.3523V51.9318C34.0631 52.4261 34.1484 52.8452 34.3188 53.1889C34.4921 53.5298 34.7322 53.7898 35.039 53.9688C35.3458 54.1449 35.7024 54.233 36.1086 54.233C36.3728 54.233 36.6114 54.196 36.8245 54.1222C37.0404 54.0455 37.2265 53.9318 37.3827 53.7812C37.539 53.6278 37.6597 53.4375 37.745 53.2102L38.7166 53.483C38.6143 53.8125 38.4424 54.1023 38.2009 54.3523C37.9595 54.5994 37.6612 54.7926 37.306 54.9318C36.9509 55.0682 36.5518 55.1364 36.1086 55.1364ZM41.5943 51.0625V55H40.5887V48.4545H41.5602V49.4773H41.6455C41.7989 49.1449 42.0318 48.8778 42.3443 48.6761C42.6568 48.4716 43.0602 48.3693 43.5546 48.3693C43.9977 48.3693 44.3855 48.4602 44.7179 48.642C45.0503 48.821 45.3088 49.0938 45.4935 49.4602C45.6781 49.8239 45.7705 50.2841 45.7705 50.8409V55H44.7648V50.9091C44.7648 50.3949 44.6313 49.9943 44.3642 49.7074C44.0972 49.4176 43.7307 49.2727 43.2648 49.2727C42.9438 49.2727 42.6568 49.3423 42.404 49.4815C42.154 49.6207 41.9566 49.8239 41.8117 50.0909C41.6668 50.358 41.5943 50.6818 41.5943 51.0625ZM50.6948 48.4545V49.3068H47.3027V48.4545H50.6948ZM48.2914 46.8864H49.2971V53.125C49.2971 53.4091 49.3382 53.6222 49.4206 53.7642C49.5059 53.9034 49.6138 53.9972 49.7445 54.0455C49.878 54.0909 50.0186 54.1136 50.1664 54.1136C50.2772 54.1136 50.3681 54.108 50.4391 54.0966C50.5101 54.0824 50.5669 54.071 50.6096 54.0625L50.8141 54.9659C50.7459 54.9915 50.6507 55.017 50.5286 55.0426C50.4064 55.071 50.2516 55.0852 50.0641 55.0852C49.78 55.0852 49.5016 55.0241 49.2289 54.902C48.959 54.7798 48.7346 54.5938 48.5556 54.3438C48.3794 54.0938 48.2914 53.7784 48.2914 53.3977V46.8864ZM52.4476 55V48.4545H53.4192V49.4432H53.4873C53.6067 49.1193 53.8226 48.8565 54.1351 48.6548C54.4476 48.4531 54.7998 48.3523 55.1919 48.3523C55.2657 48.3523 55.3581 48.3537 55.4689 48.3565C55.5797 48.3594 55.6635 48.3636 55.7203 48.3693V49.392C55.6862 49.3835 55.6081 49.3707 55.4859 49.3537C55.3666 49.3338 55.2402 49.3239 55.1067 49.3239C54.7885 49.3239 54.5044 49.3906 54.2544 49.5241C54.0072 49.6548 53.8112 49.8366 53.6663 50.0696C53.5243 50.2997 53.4532 50.5625 53.4532 50.858V55H52.4476ZM59.6975 55.1364C59.0668 55.1364 58.5228 54.9972 58.0654 54.7188C57.6109 54.4375 57.26 54.0455 57.0129 53.5426C56.7685 53.0369 56.6464 52.4489 56.6464 51.7784C56.6464 51.108 56.7685 50.517 57.0129 50.0057C57.26 49.4915 57.6038 49.0909 58.0441 48.804C58.4873 48.5142 59.0043 48.3693 59.5952 48.3693C59.9361 48.3693 60.2728 48.4261 60.6052 48.5398C60.9376 48.6534 61.2401 48.8381 61.5129 49.0938C61.7856 49.3466 62.0029 49.6818 62.1648 50.0994C62.3268 50.517 62.4077 51.0312 62.4077 51.642V52.0682H57.3623V51.1989H61.385C61.385 50.8295 61.3111 50.5 61.1634 50.2102C61.0185 49.9205 60.8111 49.6918 60.5413 49.5241C60.2742 49.3565 59.9589 49.2727 59.5952 49.2727C59.1947 49.2727 58.8481 49.3722 58.5555 49.571C58.2657 49.767 58.0427 50.0227 57.8864 50.3381C57.7302 50.6534 57.6521 50.9915 57.6521 51.3523V51.9318C57.6521 52.4261 57.7373 52.8452 57.9077 53.1889C58.081 53.5298 58.3211 53.7898 58.6279 53.9688C58.9347 54.1449 59.2913 54.233 59.6975 54.233C59.9617 54.233 60.2004 54.196 60.4134 54.1222C60.6293 54.0455 60.8154 53.9318 60.9717 53.7812C61.1279 53.6278 61.2486 53.4375 61.3339 53.2102L62.3055 53.483C62.2032 53.8125 62.0313 54.1023 61.7898 54.3523C61.5484 54.5994 61.2501 54.7926 60.895 54.9318C60.5398 55.0682 60.1407 55.1364 59.6975 55.1364ZM68.8139 49.9205L67.9105 50.1761C67.8537 50.0256 67.7699 49.8793 67.6591 49.7372C67.5511 49.5923 67.4034 49.473 67.2159 49.3793C67.0284 49.2855 66.7884 49.2386 66.4957 49.2386C66.0952 49.2386 65.7614 49.331 65.4943 49.5156C65.2301 49.6974 65.098 49.929 65.098 50.2102C65.098 50.4602 65.1889 50.6577 65.3707 50.8026C65.5526 50.9474 65.8367 51.0682 66.223 51.1648L67.1946 51.4034C67.7798 51.5455 68.2159 51.7628 68.5028 52.0554C68.7898 52.3452 68.9332 52.7187 68.9332 53.1761C68.9332 53.5511 68.8253 53.8864 68.6094 54.1818C68.3963 54.4773 68.098 54.7102 67.7145 54.8807C67.331 55.0511 66.885 55.1364 66.3764 55.1364C65.7088 55.1364 65.1563 54.9915 64.7188 54.7017C64.2813 54.4119 64.0043 53.9886 63.8878 53.4318L64.8423 53.1932C64.9332 53.5455 65.1051 53.8097 65.358 53.9858C65.6136 54.1619 65.9475 54.25 66.3594 54.25C66.8281 54.25 67.2003 54.1506 67.4759 53.9517C67.7543 53.75 67.8935 53.5085 67.8935 53.2273C67.8935 53 67.8139 52.8097 67.6548 52.6562C67.4957 52.5 67.2514 52.3835 66.9219 52.3068L65.831 52.0511C65.2315 51.9091 64.7912 51.6889 64.51 51.3906C64.2315 51.0895 64.0923 50.7131 64.0923 50.2614C64.0923 49.892 64.196 49.5653 64.4034 49.2812C64.6136 48.9972 64.8992 48.7741 65.26 48.6122C65.6236 48.4503 66.0355 48.3693 66.4957 48.3693C67.1435 48.3693 67.652 48.5114 68.0213 48.7955C68.3935 49.0795 68.6577 49.4545 68.8139 49.9205Z" fill="white"/>
<path d="M51.3642 30.5255C51.3642 33.2057 46.6344 34.3882 44.033 32.4963C43.2447 31.9445 42.8506 31.235 42.8506 30.5255C42.8506 29.8161 43.2447 29.1854 43.6389 28.8701C43.9542 29.2643 45.2155 31.0773 45.6884 31.6291C46.3979 32.4963 47.738 32.4963 48.4475 31.6291C48.684 31.3138 49.3934 30.4467 50.1029 29.5008C50.2605 29.2643 50.4182 29.1066 50.5759 28.8701C51.1277 29.2643 51.3642 29.8949 51.3642 30.5255Z" fill="#EA5858"/>
<path d="M47.1076 12C43.245 12 40.0918 15.1532 40.0918 19.0158C40.0918 21.4595 42.772 25.7163 45.058 28.7907C46.004 30.0519 46.6346 30.8402 46.6346 30.919C46.8711 31.2344 47.3441 31.2344 47.5018 30.919C47.5018 30.919 48.2112 30.0519 49.0783 28.7907C51.3644 25.7163 54.0446 21.4595 54.0446 19.0158C54.1234 15.1532 50.9702 12 47.1076 12ZM47.1076 15.705C48.9207 15.705 50.4184 17.2027 50.4184 19.0158C50.4184 20.8289 48.9207 22.3266 47.1076 22.3266C45.2945 22.3266 43.7968 20.8289 43.7968 19.0158C43.7968 17.2027 45.2945 15.705 47.1076 15.705Z" fill="white"/>
</svg>
