<svg width="94" height="70" viewBox="0 0 94 70" fill="none" xmlns="http://www.w3.org/2000/svg">
<path d="M94 10C94 4.47715 89.5228 0 84 0H0V70H94V10Z" fill="black"/>
<path d="M40.1175 45.2727H41.1743V51.0511C41.1743 51.6477 41.0336 52.1804 40.7524 52.6491C40.474 53.1151 40.0805 53.483 39.572 53.7528C39.0635 54.0199 38.4669 54.1534 37.7822 54.1534C37.0976 54.1534 36.501 54.0199 35.9925 53.7528C35.4839 53.483 35.089 53.1151 34.8078 52.6491C34.5294 52.1804 34.3902 51.6477 34.3902 51.0511V45.2727H35.447V50.9659C35.447 51.392 35.5407 51.7713 35.7282 52.1037C35.9157 52.4332 36.1828 52.6932 36.5294 52.8835C36.8788 53.071 37.2964 53.1648 37.7822 53.1648C38.268 53.1648 38.6856 53.071 39.0351 52.8835C39.3845 52.6932 39.6515 52.4332 39.8362 52.1037C40.0237 51.7713 40.1175 51.392 40.1175 50.9659V45.2727ZM48.0247 48.9205L47.1213 49.1761C47.0645 49.0256 46.9807 48.8793 46.8699 48.7372C46.7619 48.5923 46.6142 48.473 46.4267 48.3793C46.2392 48.2855 45.9991 48.2386 45.7065 48.2386C45.306 48.2386 44.9722 48.331 44.7051 48.5156C44.4409 48.6974 44.3088 48.929 44.3088 49.2102C44.3088 49.4602 44.3997 49.6577 44.5815 49.8026C44.7633 49.9474 45.0474 50.0682 45.4338 50.1648L46.4054 50.4034C46.9906 50.5455 47.4267 50.7628 47.7136 51.0554C48.0006 51.3452 48.144 51.7187 48.144 52.1761C48.144 52.5511 48.0361 52.8864 47.8202 53.1818C47.6071 53.4773 47.3088 53.7102 46.9253 53.8807C46.5418 54.0511 46.0957 54.1364 45.5872 54.1364C44.9196 54.1364 44.367 53.9915 43.9295 53.7017C43.492 53.4119 43.215 52.9886 43.0986 52.4318L44.0531 52.1932C44.144 52.5455 44.3159 52.8097 44.5687 52.9858C44.8244 53.1619 45.1582 53.25 45.5702 53.25C46.0389 53.25 46.4111 53.1506 46.6866 52.9517C46.965 52.75 47.1043 52.5085 47.1043 52.2273C47.1043 52 47.0247 51.8097 46.8656 51.6562C46.7065 51.5 46.4622 51.3835 46.1327 51.3068L45.0418 51.0511C44.4423 50.9091 44.002 50.6889 43.7207 50.3906C43.4423 50.0895 43.3031 49.7131 43.3031 49.2614C43.3031 48.892 43.4068 48.5653 43.6142 48.2812C43.8244 47.9972 44.1099 47.7741 44.4707 47.6122C44.8344 47.4503 45.2463 47.3693 45.7065 47.3693C46.3543 47.3693 46.8628 47.5114 47.2321 47.7955C47.6043 48.0795 47.8685 48.4545 48.0247 48.9205ZM52.6422 54.1364C52.0115 54.1364 51.4675 53.9972 51.0101 53.7188C50.5555 53.4375 50.2047 53.0455 49.9575 52.5426C49.7132 52.0369 49.5911 51.4489 49.5911 50.7784C49.5911 50.108 49.7132 49.517 49.9575 49.0057C50.2047 48.4915 50.5484 48.0909 50.9888 47.804C51.432 47.5142 51.949 47.3693 52.5399 47.3693C52.8808 47.3693 53.2175 47.4261 53.5499 47.5398C53.8823 47.6534 54.1848 47.8381 54.4575 48.0938C54.7303 48.3466 54.9476 48.6818 55.1095 49.0994C55.2715 49.517 55.3524 50.0312 55.3524 50.642V51.0682H50.307V50.1989H54.3297C54.3297 49.8295 54.2558 49.5 54.1081 49.2102C53.9632 48.9205 53.7558 48.6918 53.4859 48.5241C53.2189 48.3565 52.9036 48.2727 52.5399 48.2727C52.1394 48.2727 51.7928 48.3722 51.5001 48.571C51.2104 48.767 50.9874 49.0227 50.8311 49.3381C50.6749 49.6534 50.5967 49.9915 50.5967 50.3523V50.9318C50.5967 51.4261 50.682 51.8452 50.8524 52.1889C51.0257 52.5298 51.2658 52.7898 51.5726 52.9688C51.8794 53.1449 52.2359 53.233 52.6422 53.233C52.9064 53.233 53.145 53.196 53.3581 53.1222C53.574 53.0455 53.7601 52.9318 53.9163 52.7812C54.0726 52.6278 54.1933 52.4375 54.2786 52.2102L55.2501 52.483C55.1479 52.8125 54.976 53.1023 54.7345 53.3523C54.493 53.5994 54.1948 53.7926 53.8396 53.9318C53.4845 54.0682 53.0854 54.1364 52.6422 54.1364ZM57.1223 54V47.4545H58.0938V48.4432H58.162C58.2813 48.1193 58.4973 47.8565 58.8098 47.6548C59.1223 47.4531 59.4745 47.3523 59.8666 47.3523C59.9404 47.3523 60.0328 47.3537 60.1436 47.3565C60.2544 47.3594 60.3382 47.3636 60.395 47.3693V48.392C60.3609 48.3835 60.2828 48.3707 60.1606 48.3537C60.0413 48.3338 59.9149 48.3239 59.7813 48.3239C59.4632 48.3239 59.1791 48.3906 58.9291 48.5241C58.6819 48.6548 58.4859 48.8366 58.341 49.0696C58.199 49.2997 58.1279 49.5625 58.1279 49.858V54H57.1223Z" fill="white"/>
<path d="M47.5 21.5C49.8472 21.5 51.75 19.5972 51.75 17.25C51.75 14.9028 49.8472 13 47.5 13C45.1528 13 43.25 14.9028 43.25 17.25C43.25 19.5972 45.1528 21.5 47.5 21.5Z" fill="#EA5858"/>
<path d="M56 31.0625V26.8125C56 26.175 55.6813 25.5375 55.15 25.1125C53.9813 24.1562 52.4938 23.5188 51.0063 23.0938C49.9438 22.775 48.775 22.5625 47.5 22.5625C46.3313 22.5625 45.1625 22.775 43.9937 23.0938C42.5062 23.5188 41.0188 24.2625 39.85 25.1125C39.3188 25.5375 39 26.175 39 26.8125V31.0625H56Z" fill="white"/>
</svg>
