<svg width="56" height="48" viewBox="0 0 56 48" fill="none" xmlns="http://www.w3.org/2000/svg">
<path fill-rule="evenodd" clip-rule="evenodd" d="M19.0259 46.3439V43.6259H5.97934V46.3439C5.97934 46.9443 8.89991 47.4311 12.5026 47.4311C16.1053 47.4311 19.0259 46.9443 19.0259 46.3439Z" fill="#FF9B6D"/>
<path d="M12.5026 44.7126C8.89991 44.7126 5.97934 44.2258 5.97934 43.6254C5.97934 43.0249 8.89991 42.5381 12.5026 42.5381C16.1053 42.5381 19.0259 43.0249 19.0259 43.6254C19.0259 44.2258 16.1053 44.7126 12.5026 44.7126Z" fill="#D6DCFF"/>
<path d="M12.5032 42.5381C5.59799 42.5381 0.000238419 36.9403 0.000238419 30.0352C0.000238419 23.13 5.59799 17.5322 12.5032 17.5322C19.4083 17.5322 25.0061 23.13 25.0061 30.0352C25.0061 36.9403 19.4083 42.5381 12.5032 42.5381Z" fill="#0ACC94"/>
<path d="M23.7887 20.7183C21.0744 19.8633 19.5942 19.7497 19.3481 20.3773C18.9789 21.3188 20.7753 22.0707 19.7899 23.1449C18.8045 24.2191 22.5445 24.1213 23.1666 25.793C23.7887 27.4647 22.945 28.1577 23.3669 28.9602C23.7887 29.7626 24.6567 30.6337 24.4239 31.308" stroke="white" stroke-width="0.75" stroke-linecap="round"/>
<path fill-rule="evenodd" clip-rule="evenodd" d="M21.3343 28.1458C21.1155 28.008 20.9749 28.9874 20.6166 29.6981C20.2583 30.4089 18.263 30.9589 18.7153 31.6493C19.1676 32.3397 21.7451 31.1197 21.7451 30.4089C21.7451 29.6981 21.5532 28.2837 21.3343 28.1458Z" stroke="white" stroke-width="0.75" stroke-linecap="round"/>
<path fill-rule="evenodd" clip-rule="evenodd" d="M16.1059 37.7079C14.4107 37.7079 12.4023 38.937 10.8291 38.937C9.256 38.937 9.59305 37.3573 8.54117 37.7079C7.48928 38.0584 7.15809 37.7159 6.23648 36.9345C5.31486 36.1531 6.4725 40.0347 8.54117 40.3442C10.6098 40.6537 12.5876 40.6462 13.8052 40.0147C15.0227 39.3833 15.1347 38.937 16.1059 38.937C17.077 38.937 17.801 37.7079 16.1059 37.7079Z" stroke="white" stroke-width="0.75" stroke-linecap="round"/>
<path fill-rule="evenodd" clip-rule="evenodd" d="M7.95147 23.2493C9.84846 23.7096 12.7203 22.4407 12.7203 23.8885C12.7203 25.3362 14.9596 26.0135 16.0449 28.1014C17.1302 30.1893 14.7812 29.6184 10.3795 30.1893C5.97771 30.7602 14.2989 34.9531 10.8676 34.7146C7.43624 34.476 6.41396 32.6075 4.7435 30.7353C3.07303 28.8632 3.72249 25.4239 2.57759 25.4239C1.4327 25.4239 2.69397 24.8242 2.90517 23.7526C3.11636 22.681 2.72202 21.6097 3.32932 21.6097C3.93661 21.6097 6.05448 22.7889 7.95147 23.2493Z" stroke="white" stroke-width="0.75" stroke-linecap="round"/>
<path d="M12.5039 16.0532V16.0532C7.53122 17.166 4.0475 21.6508 4.19928 26.7442L4.40942 33.7964C4.53788 38.1072 7.5352 41.7989 11.7277 42.8101" stroke="#1D70D3" stroke-width="2" stroke-linecap="round"/>
<path fill-rule="evenodd" clip-rule="evenodd" d="M36.1939 37.4398C33.2293 37.3083 31.3123 37.7868 30.4428 38.8751C29.1386 40.5075 29.4478 44.195 36.1939 44.584C40.6913 44.8434 40.6913 42.462 36.1939 37.4398Z" fill="white" stroke="#4A4A4A" stroke-width="0.25" stroke-linecap="round" stroke-linejoin="round"/>
<path fill-rule="evenodd" clip-rule="evenodd" d="M27.5455 42.2319H32.4793V45.842H27.5455C26.5486 45.842 25.7405 45.0338 25.7405 44.0369C25.7405 43.04 26.5486 42.2319 27.5455 42.2319Z" fill="#1D70D3"/>
<path fill-rule="evenodd" clip-rule="evenodd" d="M34.7623 39.2105C31.7977 39.079 29.8807 39.5574 29.0112 40.6457C27.707 42.2782 28.0162 45.9657 34.7623 46.3547C39.2597 46.614 39.2597 44.2326 34.7623 39.2105Z" fill="white" stroke="#4A4A4A" stroke-width="0.25" stroke-linecap="round" stroke-linejoin="round"/>
<path fill-rule="evenodd" clip-rule="evenodd" d="M54.6227 33.7863V35.0516C56.3434 39.3473 56.19 42.7349 54.1626 45.2146C52.1352 47.6942 45.3777 48.1602 33.8901 46.6127L34.4199 38.6266L35.59 38.4502L35.6082 36.6654L42.3183 37.4359L43.15 36.6654L54.6227 33.7863Z" fill="#FFDC84"/>
<path fill-rule="evenodd" clip-rule="evenodd" d="M33.8901 45.2611L45.8874 45.7264C47.8234 45.8015 49.7293 45.23 51.3045 44.102C52.7861 43.041 53.516 41.2156 53.1744 39.4256L52.4699 35.7339" fill="#FFDC84"/>
<path d="M33.8901 45.2611L45.8874 45.7264C47.8234 45.8015 49.7293 45.23 51.3045 44.102C52.7861 43.041 53.516 41.2156 53.1744 39.4256L52.4699 35.7339" stroke="white" stroke-width="0.75" stroke-linecap="round" stroke-linejoin="round"/>
<path fill-rule="evenodd" clip-rule="evenodd" d="M46.7566 15.3303C48.5099 16.2997 50.216 18.6723 51.875 22.4483C54.3634 28.1123 55.6002 31.2991 55.2475 33.0388C54.8947 34.7785 46.0669 37.4057 42.7243 37.0102C39.3817 36.6147 40.5751 29.1467 39.9784 26.897C39.3817 24.6474 39.4554 20.6269 41.5073 18.6807C42.8752 17.3832 44.6249 16.2664 46.7566 15.3303Z" fill="white" stroke="#D6DCFF" stroke-width="0.75"/>
<path fill-rule="evenodd" clip-rule="evenodd" d="M36.0673 24.3613L34.544 25.512C30.083 21.8514 27.0796 19.408 25.5338 18.1817C24.8042 17.007 24.1483 16.0566 23.566 15.3305C22.9836 14.6044 22.6312 14.4739 22.5087 14.939C22.6594 15.7829 22.7897 16.4023 22.8998 16.7971L20.3083 14.557C20.1403 14.4118 19.8862 14.4302 19.741 14.5983C19.7374 14.6025 19.7339 14.6067 19.7304 14.611C19.5744 14.8072 19.5604 15.0809 19.6955 15.292L20.6586 16.7971L20.2268 16.5334C19.7501 16.2423 19.1276 16.3927 18.8365 16.8694C18.784 16.9553 18.7447 17.0485 18.7197 17.146C18.5219 17.9196 18.8912 18.7262 19.606 19.082L22.8998 20.7213C27.985 26.6553 31.3472 29.8146 32.9866 30.1993C34.626 30.5841 36.749 29.719 39.3556 27.6042" fill="white"/>
<path d="M36.0673 24.3613L34.544 25.512C30.083 21.8514 27.0796 19.408 25.5338 18.1817C24.8042 17.007 24.1483 16.0566 23.566 15.3305C22.9836 14.6044 22.6312 14.4739 22.5087 14.939C22.6594 15.7829 22.7897 16.4023 22.8998 16.7971L20.3083 14.557C20.1403 14.4118 19.8862 14.4302 19.741 14.5983C19.7374 14.6025 19.7339 14.6067 19.7304 14.611C19.5744 14.8072 19.5604 15.0809 19.6955 15.292L20.6586 16.7971L20.2268 16.5334C19.7501 16.2423 19.1276 16.3927 18.8365 16.8694C18.784 16.9553 18.7447 17.0485 18.7197 17.146C18.5219 17.9196 18.8912 18.7262 19.606 19.082L22.8998 20.7213C27.985 26.6553 31.3472 29.8146 32.9866 30.1993C34.626 30.5841 36.749 29.719 39.3556 27.6042" stroke="#4A4A4A" stroke-width="0.25" stroke-linecap="round" stroke-linejoin="round"/>
<path fill-rule="evenodd" clip-rule="evenodd" d="M39.2754 4.48394C38.6837 5.02691 38.3878 5.74309 38.3878 6.6325C38.3878 7.96662 38.286 9.04329 37.7728 9.35988C37.2595 9.67647 36.3119 10.1644 37.1107 10.6213C36.5367 11.5339 36.0633 14.5972 38.7736 15.1683L41.0842 15.6887L42.1867 17.4634L46.1724 14.4561C45.3337 13.7749 44.7298 12.9998 44.3608 12.1308C45.6849 11.9935 46.347 10.7395 46.347 8.36882C46.347 7.8607 45.6692 5.4714 43.5591 4.48394C42.8632 4.15827 41.4353 4.15827 39.2754 4.48394Z" fill="white" stroke="#4A4A4A" stroke-width="0.25" stroke-linecap="round" stroke-linejoin="round"/>
<path fill-rule="evenodd" clip-rule="evenodd" d="M36.6684 3.04928C37.046 4.00541 38.5741 4.71632 41.2526 5.18202C41.0917 6.32529 41.4128 7.05912 42.2159 7.38351C41.9526 8.52733 41.5218 10.5419 42.447 10.3808C43.3723 10.2196 43.3425 9.29011 44.2974 9.29011C45.2523 9.29011 44.5494 11.5081 43.2738 11.7821C43.8532 13.3749 44.7691 14.2635 46.0217 14.4479C46.2937 11.7409 49.9404 9.48152 49.683 6.98249C49.5115 5.31647 48.8754 4.48347 47.7749 4.48347C47.8318 2.6975 46.6726 1.44205 44.2974 0.717139C40.7346 -0.370233 39.5309 -0.0345992 40.1327 0.504241C39.3972 0.547294 36.1019 1.6151 36.6684 3.04928Z" fill="#4A4A4A"/>
<path d="M43.1494 10.9726L43.9701 10.5034" stroke="#4A4A4A" stroke-width="0.25" stroke-linecap="round"/>
<path fill-rule="evenodd" clip-rule="evenodd" d="M41.4192 18.6811C41.6203 17.6492 42.1966 16.7911 43.148 16.1066C44.0995 15.4222 45.1073 14.7728 46.1716 14.1586L47.3009 15.4752L41.4192 18.6811Z" fill="#1D70D3"/>
<path fill-rule="evenodd" clip-rule="evenodd" d="M37.351 11.7689C37.6235 11.0663 38.172 11.9807 38.169 12.4715C37.4608 13.1949 37.0784 12.4715 37.351 11.7689Z" fill="#D6DCFF"/>
<path fill-rule="evenodd" clip-rule="evenodd" d="M42.2449 18.8937C43.7573 18.4727 45.955 18.3161 45.955 20.7224C45.955 22.3265 43.7482 25.0333 39.3346 28.8427L35.6082 24.2735C39.0243 20.9676 41.2366 19.1744 42.2449 18.8937Z" fill="#1D70D3"/>
<path d="M35.2905 38.2502L39.9791 37.7523" stroke="white" stroke-width="0.75" stroke-linecap="round" stroke-linejoin="round"/>
</svg>
