<svg width="203" height="203" viewBox="0 0 203 203" fill="none" xmlns="http://www.w3.org/2000/svg">
<path d="M20.6427 4.93605C11.18 3.98605 3.80767 11.4972 4.27494 20.9345C4.9713 34.9989 5.27592 57.0015 2.97717 83.6792C0.188037 116.048 1.40287 161.643 2.30925 184.784C2.64621 193.387 9.89517 200.011 18.4812 199.797C35.9981 199.362 65.4442 198.939 86.2679 200.242C124.267 202.621 162.217 201.663 181.492 200.879C189.365 200.559 195.621 194.372 196.154 186.523C197.639 164.663 200.497 119.024 201.44 78.8455C201.911 58.7599 201.904 40.0182 201.005 26.2893C200.556 19.4313 199.882 13.7866 198.922 9.84128C198.443 7.87477 197.881 6.2768 197.208 5.15356C196.547 4.05023 195.659 3.21976 194.487 3.21976C191.139 3.21976 185.773 2.98542 178.743 2.67843C155.2 1.65032 112.997 -0.192696 65.4229 3.22168C35.5012 5.36915 25.5587 5.42959 20.6427 4.93605Z" stroke="#FFCC00" stroke-width="1.5"/>
</svg>
