<svg width="147" height="157" viewBox="0 0 147 157" fill="none" xmlns="http://www.w3.org/2000/svg">
<mask id="mask0_151_2335" style="mask-type:alpha" maskUnits="userSpaceOnUse" x="-4" y="2" width="150" height="152">
<path d="M138.211 71.2185C139.533 110.335 175.972 175.381 69.8093 145.363C-4.64305 124.312 -2.11953 115.12 -3.441 76.004C-4.76246 36.8877 25.8763 4.10648 64.9925 2.78501C104.109 1.46354 136.89 32.1023 138.211 71.2185Z" fill="#C4C4C4"/>
</mask>
<g mask="url(#mask0_151_2335)">
<path fill-rule="evenodd" clip-rule="evenodd" d="M104.953 53.6342C103.086 64.3385 101.893 70.551 101.374 72.2718C98.696 81.1388 93.2223 78.2625 93.0264 73.941C92.8958 71.0601 95.354 63.8453 100.401 52.2968C99.9409 50.3148 99.736 48.5925 99.7863 47.1298C99.829 45.8895 99.8549 44.751 99.8642 43.7143L99.8642 43.7143C99.8668 43.418 100.117 43.1859 100.424 43.1958C100.427 43.196 100.431 43.1961 100.435 43.1963C100.771 43.214 101.058 43.446 101.138 43.7633L101.863 46.6454L103.335 40.7076C103.408 40.4137 103.697 40.2241 104.009 40.2656C104.305 40.3048 104.517 40.5679 104.484 40.8532C104.484 40.8568 104.483 40.8604 104.483 40.864L103.79 45.8671L105.351 40.5383C105.438 40.2411 105.755 40.0701 106.067 40.1516C106.382 40.2339 106.584 40.5367 106.528 40.8447L105.551 46.291L107.185 41.6431C107.302 41.3092 107.67 41.128 108.024 41.2295C108.367 41.3276 108.57 41.6745 108.477 42.0041C108.476 42.0072 108.476 42.0103 108.475 42.0134L106.887 47.3128L108.52 44.5371C108.709 44.2155 109.128 44.0988 109.476 44.271C109.819 44.441 109.964 44.8428 109.802 45.1731C108.474 47.8797 107.647 49.6707 107.32 50.546C106.97 51.4839 106.181 52.5133 104.953 53.6342Z" fill="white" stroke="#4B4745" stroke-width="0.75" stroke-linejoin="round"/>
<path d="M101.756 46.2161C101.929 47.0252 102.186 47.7191 102.527 48.2979C103.039 49.1662 104.874 49.6173 105.216 51.0034" stroke="#4B4745" stroke-width="0.75"/>
<path d="M107.041 47.4795C107.071 47.2205 105.942 45.7174 103.264 45.7869" stroke="#4B4745" stroke-width="0.75"/>
<path fill-rule="evenodd" clip-rule="evenodd" d="M26.8865 50.66C29.3599 61.1547 30.909 67.2364 31.5337 68.9053C34.7529 77.5053 40.2687 74.1923 40.2523 69.8771C40.2413 67.0004 37.3329 60.026 31.5272 48.9539C31.9025 46.9443 32.0271 45.214 31.9009 43.7631C31.7939 42.5328 31.7094 41.4024 31.6472 40.3718L31.6472 40.3718C31.6295 40.0773 31.3586 39.867 31.0423 39.9022C31.0383 39.9027 31.0343 39.9031 31.0303 39.9037C30.6843 39.949 30.3987 40.2034 30.3322 40.5257L29.7286 43.4526L27.9051 37.6671C27.8148 37.3808 27.506 37.216 27.1852 37.283C26.8814 37.3465 26.6746 37.6258 26.7235 37.9069C26.7241 37.9104 26.7247 37.9139 26.7254 37.9175L27.6957 42.8374L25.8108 37.6651C25.7057 37.3766 25.3696 37.2326 25.0509 37.3394C24.7291 37.4473 24.5359 37.7652 24.6087 38.067L25.8955 43.4044L23.9702 38.9154C23.832 38.593 23.4422 38.4431 23.0807 38.5733C22.7309 38.6992 22.5388 39.061 22.6516 39.3812C22.6526 39.3843 22.6537 39.3873 22.6549 39.3903L24.5659 44.5311L22.7361 41.9046C22.524 41.6003 22.0844 41.5188 21.7336 41.7188C21.3874 41.9162 21.2575 42.3278 21.4418 42.6431C22.9525 45.2261 23.8991 46.9395 24.2818 47.7832C24.6918 48.6874 25.56 49.6463 26.8865 50.66Z" fill="white" stroke="#4B4745" stroke-width="0.75" stroke-linejoin="round"/>
<path d="M29.684 42.9744C29.5494 43.7881 29.3235 44.4948 29.0064 45.0945C28.5307 45.994 26.6937 46.587 26.4163 47.9848" stroke="#4B4745" stroke-width="0.75"/>
<path d="M24.3991 44.5907C24.3558 44.3409 25.4101 42.7888 28.0972 42.646" stroke="#4B4745" stroke-width="0.75"/>
<path fill-rule="evenodd" clip-rule="evenodd" d="M17.0192 65.3007C27.4499 68.7143 30.8975 75.039 27.362 84.2748C31.4067 79.4043 38.5157 76.9355 48.6888 76.8683C37.5698 73.3657 30.592 70.7176 27.7556 68.9239C24.9191 67.1302 21.3403 65.9225 17.0192 65.3007Z" fill="#1D70D3"/>
<path fill-rule="evenodd" clip-rule="evenodd" d="M53.0773 65.7198L56.6402 70.0794L56.2928 74.7387C47.9531 77.9558 40.5532 77.4439 34.0932 73.203C27.6332 68.9622 21.8863 67.436 16.8525 68.6244C17.6347 65.9048 16.561 64.3249 13.6313 63.8846C18.9133 63.589 24.2552 65.0019 29.6572 68.1233C35.0591 71.2448 42.8659 70.4436 53.0773 65.7198Z" fill="white" stroke="#1D70D3" stroke-width="0.75" stroke-linecap="round" stroke-linejoin="round"/>
<path d="M63.4966 69.3223C58.2779 72.464 53.2824 73.6369 48.51 72.841" stroke="#1D70D3" stroke-width="0.75"/>
<path fill-rule="evenodd" clip-rule="evenodd" d="M50.917 53.3996L48.9617 50.6472L45.4609 44.3504L47.8813 40.7226C47.4461 40.2728 46.731 40.2289 46.2841 40.6246C46.2466 40.6578 46.2117 40.6936 46.1796 40.7317L45.2794 41.8015L44.9913 38.1836C44.9677 37.8869 44.7375 37.6334 44.4329 37.5686C44.1713 37.5129 43.9229 37.6695 43.8782 37.9182C43.8758 37.9317 43.874 37.9453 43.8728 37.959L43.6336 40.8226L43.2493 39.7572C42.9966 39.0565 42.2099 38.6566 41.4922 38.8641C41.2981 38.9202 41.1218 39.018 40.9762 39.1504C40.0369 40.0044 39.744 41.3388 40.2305 42.5472L45.8531 56.5131L50.917 53.3996Z" fill="white" stroke="#4B4745" stroke-width="0.75" stroke-linejoin="round"/>
<path d="M45.4146 41.7764L42.9951 43.1903" stroke="#4B4745" stroke-width="0.75" stroke-linecap="round"/>
<path fill-rule="evenodd" clip-rule="evenodd" d="M68.5283 54.2252L70.2021 50.7398L72.9294 44.1022L70.2841 40.6972C70.7016 40.217 71.4242 40.1172 71.8981 40.4742C71.9379 40.5041 71.9752 40.5368 72.0098 40.5721L72.9789 41.5614L73.0799 37.9528C73.0882 37.6568 73.3081 37.3874 73.6136 37.2992C73.8758 37.2234 74.1359 37.359 74.1944 37.602C74.1975 37.6152 74.2001 37.6285 74.202 37.642L74.5957 40.4614L74.929 39.3752C75.1482 38.6607 75.9247 38.2024 76.6632 38.3514C76.863 38.3917 77.0469 38.4748 77.2015 38.5946C78.1906 39.3607 78.5258 40.6669 78.044 41.8781L72.811 55.0355L68.5283 54.2252Z" fill="white" stroke="#4B4745" stroke-width="0.75" stroke-linejoin="round"/>
<path d="M72.7866 41.541L75.3034 42.7499" stroke="#4B4745" stroke-width="0.75" stroke-linecap="round"/>
<path fill-rule="evenodd" clip-rule="evenodd" d="M63.6925 49.1177L64.5574 54.7163L57.2493 60.7163C53.9952 59.3645 51.9496 58.1638 51.1125 57.1143C50.2754 56.0647 51.1311 53.4824 53.6797 49.3674C56.0326 48.2674 57.9175 47.6997 59.3343 47.6643C60.7511 47.629 62.2039 48.1134 63.6925 49.1177Z" fill="white"/>
<path fill-rule="evenodd" clip-rule="evenodd" d="M63.9708 48.0893C63.9708 48.0893 66.9137 51.2771 65.1378 51.3478C63.9539 51.3949 62.1899 50.5977 59.8458 48.9561C61.1896 50.1818 61.2059 50.8207 59.8949 50.8729C58.5839 50.9251 57.209 50.7146 55.7702 50.2412C56.0067 52.1557 55.6633 53.3548 54.7401 53.8387C53.8169 54.3225 53.6236 55.3007 54.1604 56.7732C52.9558 55.3636 52.2025 55.2134 51.9006 56.3227C49.7897 54.8204 49.5793 52.718 49.5553 51.7798C49.5246 50.5825 49.8912 49.7846 50.6549 49.3862C50.1002 47.5588 51.0346 46.388 53.458 45.8737C57.093 45.1023 64.5204 46.6357 65.5919 47.5681C66.6633 48.5006 63.9708 48.0893 63.9708 48.0893Z" fill="#4A4B50"/>
<path fill-rule="evenodd" clip-rule="evenodd" d="M53.179 57.5184L51.3732 55.147L46.1737 44.861C43.2961 45.8122 41.3756 46.7071 40.4124 47.5458C42.7663 53.675 44.4687 57.8114 45.5196 59.9549C46.5705 62.0983 48.1978 64.5473 50.4016 67.3017L52.5182 80.1026C54.187 81.0735 55.5171 80.8203 56.5085 79.3429C57.4998 77.8656 58.4224 74.7616 59.2762 70.0311L70.1447 64.2072C71.5495 61.2486 72.8098 58.9326 73.9254 57.2593C75.041 55.586 76.2794 51.9372 77.6407 46.3128L72.6022 44.5844L68.323 54.4716L66.7462 56.9777C62.6951 59.5346 59.959 60.8414 58.5377 60.898C57.5164 60.9387 56.3184 60.7615 54.9202 59.5803C54.5552 59.2719 53.9748 58.5846 53.179 57.5184Z" fill="#FFCC00"/>
<path fill-rule="evenodd" clip-rule="evenodd" d="M63.9826 51.3941C64.2706 53.4982 64.5778 54.9331 64.9044 55.6988C65.3943 56.8472 66.1777 60.1505 62.5879 61.0636C60.1946 61.6722 57.6164 61.1944 54.8532 59.63" fill="white"/>
<path d="M63.9826 51.3941C64.2706 53.4982 64.5778 54.9331 64.9044 55.6988C65.3943 56.8472 66.1777 60.1505 62.5879 61.0636C60.1946 61.6722 57.6164 61.1944 54.8532 59.63" stroke="#4B4745" stroke-width="0.75" stroke-linecap="round" stroke-linejoin="round"/>
<path fill-rule="evenodd" clip-rule="evenodd" d="M63.5146 57.748L61.5174 58.2852C61.8567 58.7254 62.2792 58.9354 62.7851 58.9153C63.291 58.8952 63.5342 58.5061 63.5146 57.748Z" fill="#4B4745"/>
<path d="M61.8663 54.4298C62.0226 54.9051 62.4171 55.2913 63.0497 55.5885C63.6823 55.8857 63.5835 56.2482 62.7535 56.6759" stroke="#4B4745" stroke-width="0.75" stroke-linecap="round" stroke-linejoin="round"/>
<path d="M62.0298 53.6134C62.5982 52.8691 63.204 52.7354 63.8471 53.2121" stroke="#4A4A4A" stroke-width="0.75" stroke-linecap="round"/>
<path d="M57.5025 54.5841C58.0345 53.8429 58.6412 53.7136 59.3226 54.1963" stroke="#4A4A4A" stroke-width="0.75" stroke-linecap="round"/>
<path fill-rule="evenodd" clip-rule="evenodd" d="M71.2691 86.131C70.379 91.4388 68.1854 93.93 64.6882 93.6047C59.4425 93.1167 55.6344 85.5699 55.624 85.2166C55.617 84.9811 56.0684 84.029 56.9782 82.3605L71.2691 86.131Z" fill="white"/>
<path fill-rule="evenodd" clip-rule="evenodd" d="M81.4777 122.417C82.0929 145.86 82.4778 160.525 82.6324 166.414C82.787 172.303 83.2075 188.326 83.894 214.481L73.9946 214.87L66.9949 141.995L64.9165 142.076C60.9016 163.459 58.0248 177.094 56.286 182.981C54.5471 188.868 51.0834 199.866 45.8948 215.975L35.6014 216.379C40.7507 188.045 43.9655 170.468 45.2457 163.649C46.3307 157.87 45.5956 147.707 47.0707 130.415C47.2477 128.341 48.1912 124.584 49.9013 119.146L81.4777 122.417Z" fill="#323443"/>
<path d="M53.8306 120.267C51.0369 125.325 49.7457 131.567 49.9569 138.993C50.2738 150.132 48.1751 165.991 47.011 171.547C46.2349 175.251 43.2759 190.408 38.134 217.018" stroke="white" stroke-width="0.75" stroke-linecap="round" stroke-linejoin="round"/>
<path d="M66.1274 141.581C67.8 141.411 68.7032 143.513 68.8369 147.887C68.9707 152.26 71.1165 174.815 75.2743 215.552" stroke="white" stroke-width="0.75" stroke-linecap="round" stroke-linejoin="round"/>
<path fill-rule="evenodd" clip-rule="evenodd" d="M50.8193 81.3604L41.2658 71.7145L33.5485 50.7948L25.8976 55.5593C29.5289 69.8116 31.8707 77.9736 32.9228 80.0455C33.5433 81.2674 35.5369 83.6455 38.9036 87.1795C40.4647 88.8182 43.4706 91.8355 47.9212 96.2313C47.9374 107.584 48.4788 115.616 49.5454 120.33C60.0713 124.35 70.4513 124.918 80.6853 122.032L81.7349 97.1476C89.6667 90.7703 95.1933 86.1187 98.3147 83.1927C101.436 80.2668 104.024 71.6934 106.079 57.4725L99.1809 55.5616L90.7219 74.6894L76.8636 84.0071L70.3644 86.5867C69.8173 90.2453 68.3105 92.3604 65.8441 92.9322C63.3776 93.5041 60.6729 91.3076 57.7298 86.3429L50.8193 81.3604Z" fill="#6B74C1"/>
<path fill-rule="evenodd" clip-rule="evenodd" d="M72.6692 79.4322C75.7469 78.8831 77.8276 79.5576 78.9112 81.4557C79.9949 83.3538 82.1976 87.2615 85.5196 93.1789C80.9491 94.1401 78.1669 95.9571 77.173 98.6298C75.2075 93.2544 74.1981 89.6621 74.1447 87.8529C74.0913 86.0438 73.1668 85.3646 71.3712 85.8152L72.6692 79.4322Z" fill="#5C8B83"/>
<path fill-rule="evenodd" clip-rule="evenodd" d="M62.6418 96.5857C61.6166 98.8664 61.2588 100.649 61.5684 101.933C61.8783 103.218 62.5559 102.877 63.6009 100.909C63.1127 103.846 63.6548 104.971 65.2272 104.286C66.7995 103.601 66.9368 101.301 65.6392 97.3857C67.4825 96.7237 69.3355 95.1935 71.1981 92.7949C73.0606 90.3964 73.3008 87.9578 71.9188 85.4792L69.8198 89.2703C67.6057 92.691 65.303 93.6676 62.9118 92.1998C60.5205 90.732 58.5512 87.9501 57.0039 83.8539C55.4125 85.3959 54.8558 86.5401 55.334 87.2866C55.9943 88.3175 60.8749 95.8808 62.6418 96.5857Z" fill="#D37F1D"/>
<path d="M65.959 97.5361C65.0682 96.8847 64.3203 96.6852 63.7151 96.9379" stroke="#4B4745" stroke-width="0.75" stroke-linecap="round"/>
<path d="M57.2241 87.6087L60.7753 92.8789" stroke="#4B4745" stroke-width="0.75" stroke-linecap="round"/>
<path d="M71.0347 86.8325C71.0992 89.336 69.6178 91.7003 66.5905 93.9253" stroke="#4B4745" stroke-width="0.75" stroke-linecap="round"/>
<path fill-rule="evenodd" clip-rule="evenodd" d="M56.1998 84.9516C56.7999 82.9536 57.2139 81.46 57.4419 80.4708C56.4429 80.5105 55.323 77.3749 55.4632 75.5413C55.5566 74.3189 56.7813 73.9147 59.1373 74.3287L59.0446 70.7058L60.3871 68.4118L64.6402 67.4282L72.7729 67.5211L74.1136 72.0673C73.5639 74.459 73.2177 76.8785 73.0751 79.3257C72.861 82.9966 71.7933 84.8271 71.3972 85.9651C71.0012 87.103 71.0804 89.1428 66.7877 88.9402C63.9259 88.8052 61.7362 87.1013 60.2186 83.8286" fill="white"/>
<path d="M56.1998 84.9516C56.7999 82.9536 57.2139 81.46 57.4419 80.4708C56.4429 80.5105 55.323 77.3749 55.4632 75.5413C55.5566 74.3189 56.7813 73.9147 59.1373 74.3287L59.0446 70.7058L60.3871 68.4118L64.6402 67.4282L72.7729 67.5211L74.1136 72.0673C73.5639 74.459 73.2177 76.8785 73.0751 79.3257C72.861 82.9966 71.7933 84.8271 71.3972 85.9651C71.0012 87.103 71.0804 89.1428 66.7877 88.9402C63.9259 88.8052 61.7362 87.1013 60.2186 83.8286" stroke="#4B4745" stroke-width="0.75" stroke-linecap="round"/>
<path d="M70.1425 74.8936C70.751 74.3641 71.372 74.2886 72.0055 74.667" stroke="#4A4A4A" stroke-width="0.75" stroke-linecap="round"/>
<path d="M65.2622 75.3717C64.562 74.8904 63.9065 74.992 63.2957 75.6766" stroke="#4A4A4A" stroke-width="0.75" stroke-linecap="round"/>
<path d="M69.085 73.877C68.5155 75.184 68.3414 76.2044 68.5628 76.9382C68.8948 78.0389 69.7548 80.15 68.6505 80.193C67.9144 80.2217 67.4374 80.03 67.2195 79.6179" stroke="#4B4745" stroke-width="0.75" stroke-linecap="round"/>
<path fill-rule="evenodd" clip-rule="evenodd" d="M56.365 79.106C53.3942 78.1087 51.4634 78.575 50.5724 80.505C49.2361 83.3999 50.7746 88.2162 50.868 91.78C50.9302 94.1559 51.6941 96.5666 53.1594 99.0121C53.1094 96.1447 53.984 94.4014 55.7833 93.7822C57.5825 93.163 58.9422 93.1094 59.8623 93.6217C58.7664 89.8958 58.2043 87.4938 58.176 86.4157C58.1477 85.3376 58.2396 83.3825 58.4517 80.5502" fill="#5C8B83"/>
<path d="M57.1616 96.459C57.1616 96.459 55.065 101.366 53.1809 98.7713" stroke="white" stroke-width="0.75" stroke-linecap="round" stroke-linejoin="round"/>
<path fill-rule="evenodd" clip-rule="evenodd" d="M58.7428 75.0868C58.0738 73.7998 56.5916 73.4714 55.4891 75.2154C54.3866 76.9594 56.1059 78.6039 56.2672 79.4054C56.4285 80.2068 57.7573 80.8234 58.5051 80.0554" fill="white"/>
<path d="M58.7428 75.0868C58.0738 73.7998 56.5916 73.4714 55.4891 75.2154C54.3866 76.9594 56.1059 78.6039 56.2672 79.4054C56.4285 80.2068 57.7573 80.8234 58.5051 80.0554" stroke="#4B4745" stroke-width="0.75" stroke-linecap="round"/>
<path d="M67.3872 89.2793C67.1764 89.9599 66.8857 90.4 66.5153 90.5997" stroke="#4B4745" stroke-width="0.75" stroke-linecap="round"/>
<path fill-rule="evenodd" clip-rule="evenodd" d="M58.6514 76.2361C58.9644 77.9421 59.1279 79.0708 59.142 79.6221C59.1633 80.4491 58.5973 83.6224 59.7927 85.4441C60.9882 87.2659 63.1867 89.2234 66.5031 89.3604C69.8194 89.4975 70.6305 88.757 71.1865 87.2759C71.5571 86.2885 71.9511 84.6757 72.3685 82.4374C71.8169 83.2144 71.4482 83.5053 71.2625 83.3101C70.9839 83.0174 71.3041 81.8314 69.4969 81.3349C67.6897 80.8385 65.2559 80.5582 64.0345 81.1465C63.2203 81.5387 62.6605 82.0098 62.3552 82.5597C62.3698 80.6177 62.1328 79.4992 61.6439 79.2044C60.9106 78.7621 59.9017 79.0835 59.8451 76.8768C59.8074 75.4056 59.8157 74.0122 59.87 72.6965C61.2455 72.4565 62.6678 71.7662 64.1368 70.6256C63.6298 71.7076 63.6422 72.1929 64.1741 72.0817C64.706 71.9705 66.0709 71.2975 68.2688 70.0627C66.9357 71.6375 66.8743 72.2588 68.0845 71.9264C69.2947 71.594 70.7911 70.8388 72.5737 69.6607C73.2605 71.0847 73.6997 71.852 73.8912 71.9624C73.8372 72.17 73.7061 72.7982 73.4979 73.8471C74.1176 73.3778 74.8621 72.1505 75.7314 70.1651C77.0353 67.1871 76.8885 66.1426 75.6182 65.7528C76.3441 63.9378 74.8798 63.297 71.2253 63.8306C65.7435 64.631 61.1809 61.7253 58.7792 65.4713C56.227 65.0348 55.6875 68.1996 57.1608 74.9658C57.5612 75.1627 57.8513 75.3377 58.0311 75.491C58.2108 75.6442 58.4176 75.8925 58.6514 76.2361Z" fill="#4B4745"/>
<path fill-rule="evenodd" clip-rule="evenodd" d="M69.4056 82.6194L65.6129 82.0548C65.8782 83.5179 66.4487 84.2923 67.3244 84.3782C68.2001 84.4641 68.8938 83.8779 69.4056 82.6194Z" fill="white"/>
<path fill-rule="evenodd" clip-rule="evenodd" d="M57.708 89.3958C55.9824 90.5615 54.8524 92.2833 54.3178 94.5612C53.9044 94.981 53.5396 95.8035 53.5098 96.6259C53.4637 97.8993 54.1076 99.7948 55.2443 100.38C56.4914 101.022 57.4972 99.1029 58.2617 94.6227L57.708 89.3958Z" fill="#4B4745"/>
<path fill-rule="evenodd" clip-rule="evenodd" d="M54.8897 94.906C55.0921 94.6778 55.1812 89.4611 58.7014 89.7585C62.2216 90.056 59.0127 96.1163 58.5599 97.6628C58.1072 99.2092 58.4326 101.219 55.795 100.754C53.1574 100.288 54.6873 95.1343 54.8897 94.906Z" fill="white"/>
<path d="M60.2572 92.1127L56.624 91.218" stroke="#D6DCFF" stroke-width="0.75"/>
<path d="M59.9716 94.2743L56.3384 93.3797" stroke="#D6DCFF" stroke-width="0.75"/>
<path d="M58.9681 96.4593L55.335 95.5647" stroke="#D6DCFF" stroke-width="0.75"/>
<path d="M58.3256 98.6327L54.6924 97.7381" stroke="#D6DCFF" stroke-width="0.75"/>
<path fill-rule="evenodd" clip-rule="evenodd" d="M85.7845 91.3933C84.3931 91.1537 82.7925 91.9677 80.9826 93.8353C78.2678 96.6367 78.0145 96.7567 77.5774 98.134C77.784 99.499 78.4963 101.511 79.0751 101.489C79.461 101.474 81.6975 98.109 85.7845 91.3933Z" fill="#4B4745"/>
<path fill-rule="evenodd" clip-rule="evenodd" d="M79.8161 97.1034C82.0061 94.7278 83.9668 90.4169 86.2251 91.5329C87.3486 92.0881 86.8533 93.7453 86.3363 95.3104C85.8193 96.8756 84.2788 98.04 83.7387 98.4891C82.6638 99.383 81.8302 101.744 79.9549 101.815C78.0795 101.887 77.6262 99.4789 79.8161 97.1034Z" fill="white"/>
<path d="M86.2014 95.0401L83.0497 93.0475" stroke="#D6DCFF" stroke-width="0.75"/>
<path d="M85.2595 96.8477L82.1078 94.8551" stroke="#D6DCFF" stroke-width="0.75"/>
<path d="M83.678 98.4478L80.5263 96.4552" stroke="#D6DCFF" stroke-width="0.75"/>
<path d="M82.0085 100.394L79.1613 98.4779" stroke="#D6DCFF" stroke-width="0.75"/>
<path d="M63.4244 102.069L64.0742 98.4741" stroke="#4B4745" stroke-width="0.75" stroke-linecap="round"/>
</g>
</svg>
