<svg width="97" height="9" viewBox="0 0 97 9" fill="none" xmlns="http://www.w3.org/2000/svg">
<path d="M1.02105 4.86312C3.46102 4.35551 5.45356 7.39386 7.88317 7.41379C11.0508 7.43977 12.3634 5.51154 17.8644 6.2509C20.4234 6.17253 22.7158 4.90676 25.3334 5.61792C26.943 6.05522 28.307 6.50113 30.0059 6.27114C33.4821 5.80057 34.5775 5.34945 38.0381 5.16673C39.401 5.09477 42.4402 3.38893 43.825 4.14307C44.4356 4.4756 45.0255 4.8975 45.6385 5.22907C48.5114 6.78299 51.2686 2.48749 54.09 2.26355C55.8307 2.12538 56.7013 3.45247 58.2526 4.24157C60.9792 5.62859 64.0815 4.19495 66.6697 2.64442C70.3861 0.417957 74.2736 2.06072 77.8725 3.88677C80.4737 5.20656 83.6538 4.64826 86.3398 4.67029C88.0421 4.68426 89.7445 4.69822 91.4468 4.71218C92.5701 4.72139 94.1618 5.18487 95.233 4.46554" stroke="#FFCC00" stroke-width="2" stroke-linecap="round"/>
</svg>
