<svg width="22" height="17" viewBox="0 0 22 17" fill="none" xmlns="http://www.w3.org/2000/svg">
<path d="M1.28268 1.30345C1.02359 1.5357 0.875 1.85381 0.875 2.18881C0.875 2.52382 1.02359 2.84193 1.28268 3.07417C1.54133 3.30601 1.88947 3.43427 2.25 3.43427H19.75C20.1105 3.43427 20.4587 3.30601 20.7173 3.07417C20.9764 2.84193 21.125 2.52382 21.125 2.18881C21.125 1.85381 20.9764 1.5357 20.7173 1.30345C20.4587 1.07161 20.1105 0.943359 19.75 0.943359H2.25C1.88947 0.943359 1.54133 1.07161 1.28268 1.30345ZM1.28268 14.7489C1.02359 14.9811 0.875 15.2993 0.875 15.6343C0.875 15.9693 1.02359 16.2874 1.28268 16.5196C1.54133 16.7515 1.88947 16.8797 2.25 16.8797H19.75C20.1105 16.8797 20.4587 16.7515 20.7173 16.5196C20.9764 16.2874 21.125 15.9693 21.125 15.6343C21.125 15.2993 20.9764 14.9811 20.7173 14.7489C20.4587 14.517 20.1105 14.3888 19.75 14.3888H2.25C1.88947 14.3888 1.54133 14.517 1.28268 14.7489ZM2.25 7.66608C1.88947 7.66608 1.54133 7.79433 1.28268 8.02617C1.02359 8.25842 0.875 8.57653 0.875 8.91153C0.875 9.24654 1.02359 9.56465 1.28268 9.79689C1.54133 10.0287 1.88947 10.157 2.25 10.157H12.25C12.6105 10.157 12.9587 10.0287 13.2173 9.79689C13.4764 9.56465 13.625 9.24654 13.625 8.91153C13.625 8.57653 13.4764 8.25842 13.2173 8.02617C12.9587 7.79433 12.6105 7.66608 12.25 7.66608H2.25Z" fill="#151B4A" stroke="#151B4A" stroke-width="0.25"/>
</svg>
