<svg width="84" height="119" viewBox="0 0 84 119" fill="none" xmlns="http://www.w3.org/2000/svg">
<path fill-rule="evenodd" clip-rule="evenodd" d="M35.1268 25.205L35.6066 27.5128C34.7062 26.8734 33.9321 26.837 33.2842 27.4035C32.3124 28.2533 33.0888 30.457 34.4454 31.1239C35.3498 31.5686 36.071 31.7909 36.6089 31.7909C37.6437 35.2968 38.6268 37.6404 39.558 38.8215C40.4893 40.0027 42.2039 41.1636 44.7018 42.3043H52.4907V36.8299C53.5793 34.6005 54.1235 32.6934 54.1235 31.1087C55.4201 30.7223 57.7619 29.3261 57.3741 26.4163C56.6907 25.0339 55.6901 25.0339 54.3723 26.4163L54.6371 18.557L46.2446 14.998L35.1268 25.205Z" fill="white"/>
<path d="M35.1279 24.7694C36.1187 30.5403 37.2259 34.5332 38.4494 36.7481C39.3115 38.3087 40.3993 39.6641 41.678 40.593M51.2682 38.7106C52.1862 37.5268 52.8482 36.2182 53.2877 35.1698C53.9391 33.6161 54.3892 29.7283 54.6382 23.5063" stroke="#4A4A4A"/>
<path d="M48.9722 15.9853C53.3991 15.9853 56.9879 12.4068 56.9879 7.99263C56.9879 3.57842 53.3991 0 48.9722 0C44.5453 0 40.9565 3.57842 40.9565 7.99263C40.9565 12.4068 44.5453 15.9853 48.9722 15.9853Z" fill="#4B4745"/>
<path d="M54.4844 26.3929C55.4023 25.2558 56.2388 25.0783 56.9937 25.8604C58.1262 27.0336 56.5987 31.1236 54.1428 31.1236" stroke="#4A4A4A" stroke-linecap="round"/>
<path fill-rule="evenodd" clip-rule="evenodd" d="M35.3748 26.6911C41.7263 24.9499 45.7785 22.0533 47.5315 18.0012C49.7001 21.0992 52.0686 23.2115 54.6368 24.3381C55.2811 22.0804 55.4218 19.6687 55.0591 17.1028C54.5149 13.2539 51.7096 10.5806 48.4127 10.0445C44.9633 7.34198 39.5552 8.89932 36.0815 14.8762C33.7657 18.8608 33.5301 22.7991 35.3748 26.6911Z" fill="#4B4745"/>
<path d="M35.5163 27.5391C34.5971 26.7435 33.7291 26.7435 32.9123 27.5391C31.687 28.7324 34.6836 32.0962 36.6086 31.7685" stroke="#4A4A4A" stroke-linecap="round"/>
<path d="M35.9764 29.3666L33.9119 28.6787" stroke="#4A4A4A" stroke-linecap="round"/>
<path d="M54.3733 28.3692L55.7199 27.5127" stroke="#4A4A4A" stroke-linecap="round"/>
<path fill-rule="evenodd" clip-rule="evenodd" d="M77.4359 75.4922C78.1365 79.9125 77.6282 83.6606 75.9108 86.7363C73.3348 91.3499 54.8211 100.134 48.9703 101.335C43.1195 102.537 32.6267 99.8178 32.6267 98.62C32.6267 97.4222 42.2163 97.7254 43.1195 96.8023C39.6806 93.0517 39.411 90.7143 42.2142 92.0388C45.0173 93.3633 45.9575 95.0456 48.9703 95.0456L67.9666 84.748L67.0617 76.6554L77.4359 75.4922Z" fill="white" stroke="#4A4A4A" stroke-linejoin="round"/>
<path d="M34.0842 22.7753C38.9864 19.5349 42.2993 16.32 44.0229 13.1309" stroke="white"/>
<path fill-rule="evenodd" clip-rule="evenodd" d="M52.4911 45.4912C61.2898 48.5313 67.0099 51.1011 69.6514 53.2007C72.2929 55.3004 75.3372 62.9861 78.7843 76.2579L66.2286 77.1043L64.6651 71.1332V81.9213L66.9655 93.3632L30.3364 102.007L31.7517 79.2656L28.7638 76.2579L23.6814 85.1557L14.2429 78.8634C17.3586 65.4172 19.9736 59.5777 23.2656 56.3293C26.5575 53.0809 32.1678 49.7432 40.0965 46.3164C39.5784 48.5396 39.8647 50.3653 40.9553 51.7937C43.8181 55.5428 51.8071 57.4418 53.7666 50.9544C54.3472 49.032 53.9221 47.211 52.4911 45.4912Z" fill="#D37F1D"/>
<path d="M34.6575 25.0587C40.0231 22.1814 43.6493 19.3269 45.5359 16.4951" stroke="white"/>
<path d="M52.4922 36.8403C52.4922 41.2994 52.4922 44.1831 52.4922 45.4915C52.4922 46.7999 52.9173 48.0359 53.7676 49.1996" stroke="#4A4A4A" stroke-linecap="round"/>
<path d="M43.8176 23.978C44.2353 25.2199 44.4441 26.646 44.4441 28.2562C44.4441 30.6716 43.8176 33.609 44.1309 34.1157C44.3397 34.4535 45.0443 34.4535 46.2446 34.1157" stroke="#4A4A4A" stroke-linecap="round"/>
<path d="M40.0967 9.97313C44.4494 8.15235 47.4075 8.00665 48.9712 9.53604C51.6811 9.99904 53.5699 11.6808 54.6377 14.5812" stroke="white"/>
<path d="M50.1167 30.8286C52.3302 30.8286 54.1245 29.0394 54.1245 26.8323C54.1245 24.6251 52.3302 22.8359 50.1167 22.8359C47.9033 22.8359 46.1089 24.6251 46.1089 26.8323C46.1089 29.0394 47.9033 30.8286 50.1167 30.8286Z" stroke="#1D70D3"/>
<path d="M39.8101 31.3999C42.0235 31.3999 43.8179 29.6106 43.8179 27.4035C43.8179 25.1964 42.0235 23.4072 39.8101 23.4072C37.5966 23.4072 35.8022 25.1964 35.8022 27.4035C35.8022 29.6106 37.5966 31.3999 39.8101 31.3999Z" stroke="#1D70D3"/>
<path d="M43.5776 26.0479C44.3397 25.0052 45.1834 24.93 46.1088 25.8224" stroke="#1D70D3" stroke-linecap="round"/>
<path d="M29.5433 63.8936C27.7424 68.2008 27.1422 71.3383 27.7424 73.3063C28.3427 75.2742 29.6795 77.2608 31.7526 79.2659L30.1154 102.007" stroke="#4A4A4A" stroke-linecap="round"/>
<path d="M48.4829 26.4159C49.5159 25.3821 50.5489 25.2769 51.5819 26.1004" stroke="#4A4A4A" stroke-linecap="round"/>
<path d="M43.7339 36.9376C44.6044 37.3992 45.7424 37.2383 47.1478 36.4548" stroke="#4A4A4A" stroke-linecap="round"/>
<path d="M41.1372 26.7319C40.0783 25.946 39.0645 26.068 38.0959 27.098" stroke="#4A4A4A" stroke-linecap="round"/>
<path fill-rule="evenodd" clip-rule="evenodd" d="M8.49346 51.7625C10.4284 66.115 11.7311 74.4184 12.4014 76.6728C15.8553 88.29 25.1123 82.9978 25.8847 76.9754C26.3997 72.9605 23.132 63.5752 16.0817 48.8195C17.0417 45.9685 17.557 43.5378 17.6277 41.5274C17.6876 39.8229 17.7642 38.255 17.8574 36.8238L17.8574 36.8238C17.8841 36.4146 17.4986 36.1537 16.9963 36.2411C16.99 36.2422 16.9836 36.2433 16.9772 36.2446C16.4266 36.3496 15.9319 36.7395 15.7681 37.1976L14.2808 41.3566L12.4933 33.5003C12.4048 33.1113 11.9513 32.9184 11.4362 33.0508C10.9483 33.1761 10.5727 33.5912 10.5972 33.9778C10.5975 33.9827 10.5978 33.9875 10.5983 33.9924L11.2087 40.7435L9.21169 33.7506C9.10027 33.3604 8.60019 33.1999 8.08094 33.3876C7.55671 33.5771 7.19514 34.0444 7.25338 34.4571L8.2827 41.7527L6.09599 35.7187C5.93885 35.2852 5.35574 35.1229 4.76513 35.3483C4.19369 35.5665 3.82572 36.0948 3.94324 36.5284C3.94436 36.5325 3.94553 36.5366 3.94674 36.5408L5.99052 43.4865L3.60893 40.0411C3.33285 39.6417 2.65894 39.581 2.07219 39.9027C1.49318 40.2201 1.21345 40.8106 1.44411 41.2285C3.33363 44.6519 4.50016 46.9294 4.94368 48.0611C5.41896 49.2738 6.60222 50.5076 8.49346 51.7625Z" fill="white" stroke="#4B4745" stroke-linejoin="round"/>
<path d="M13.4809 39.6593C13.1496 40.7556 12.7033 41.7188 12.142 42.5489C11.3002 43.794 8.52788 44.7709 7.89177 46.6586" stroke="#4A4A4A"/>
<path d="M5.70854 41.7932C5.68875 41.5328 7.49316 39.7731 11.431 39.3334" stroke="#4A4A4A"/>
<path fill-rule="evenodd" clip-rule="evenodd" d="M64.4942 85.5566C67.0587 86.4932 71.8629 87.3375 73.464 94.5766C74.5314 99.4027 75.6942 104.422 76.9525 109.635C78.5089 110.986 79.6267 111.852 80.3057 112.234C82.0467 113.212 83.5154 113.313 83.3889 113.942C83.0882 115.439 76.7067 114.311 73.9173 114.311C72.0577 114.311 71.2125 112.853 71.3817 109.938C69.2094 105.12 67.3425 100.154 65.781 95.0394L63.2606 94.973C61.5487 91.276 61.9599 88.1373 64.4942 85.5566Z" fill="white" stroke="#4A4A4A" stroke-linejoin="round"/>
<path fill-rule="evenodd" clip-rule="evenodd" d="M57.4226 95.1575H63.8328C61.0078 90.3776 64.4016 85.5814 65.0227 85.5814C65.4368 85.5814 62.9034 84.8054 57.4226 83.2534L55.8417 80.2959C43.6566 81.0997 37.3868 81.5016 37.0325 81.5016C36.501 81.5016 34.878 97.0818 40.8147 98.4063C44.7725 99.2893 47.4607 98.7982 48.8795 96.9329L57.4226 95.1575Z" fill="#5C8B83"/>
<path d="M43.5249 85.9712L50.1731 87.5013" stroke="white"/>
<path fill-rule="evenodd" clip-rule="evenodd" d="M52.7138 88.2387C55.2784 89.1936 56.5571 90.5268 57.9235 96.2063C58.8345 99.9926 59.8687 104.645 61.0261 110.164C62.2137 111.366 63.2332 113.077 64.0847 115.296C64.9722 117.609 63.072 118.213 62.2245 116.173C62.4068 118.206 60.6037 117.74 59.7527 117.74C57.8931 117.74 56.5893 115.783 55.8413 111.868C53.669 106.956 51.8021 101.893 50.2406 96.6781L47.7515 97.1761C45.751 92.8749 46.3392 89.6803 49.5161 87.5923C50.7912 87.7042 51.8571 87.9197 52.7138 88.2387Z" fill="white" stroke="#4A4A4A" stroke-linejoin="round"/>
<path d="M73.0679 109.983C73.0869 111.177 73.5821 111.774 74.5534 111.774" stroke="#4A4A4A" stroke-linecap="round"/>
<path d="M61.2803 117.571C61.1223 117.373 60.9314 116.909 60.7078 116.179" stroke="#4A4A4A" stroke-linecap="round"/>
<path d="M59.7883 117.571L59.4336 116.263" stroke="#4A4A4A" stroke-linecap="round"/>
<path d="M58.4182 117.321V116.179" stroke="#4A4A4A" stroke-linecap="round"/>
<path fill-rule="evenodd" clip-rule="evenodd" d="M43.1209 59.9268C40.7007 60.3615 39.0866 60.7862 38.2784 61.2009C35.9991 62.3702 34.9201 64.2363 34.4249 66.5493C34.0364 68.364 34.0884 71.1348 35.6084 73.1319C35.7961 75.3725 36.0683 79.514 36.4248 85.5566L57.4231 83.2531C56.303 76.1275 55.5111 71.3592 55.0472 68.9483L60.776 69.4272L61.2839 63.3352C58.0667 62.3441 55.4761 61.4587 53.512 60.6792C52.53 60.2894 49.0663 60.0386 43.1209 59.9268Z" fill="#FFCC00"/>
<path d="M55.0479 68.9486L55.8338 64.4805" stroke="#626366"/>
<path fill-rule="evenodd" clip-rule="evenodd" d="M61.5428 64.009L64.4583 64.4642L71.612 50.9552C71.612 49.7488 71.612 48.6317 71.612 47.6039C71.612 46.7226 71.7426 45.716 72.004 44.584L72.004 44.5839C72.0817 44.2473 72.3811 44.0088 72.7262 44.0088C73.0566 44.0088 73.334 44.2583 73.3694 44.5873L73.7234 47.8744L76.0972 43.03C76.244 42.7305 76.6055 42.6068 76.9046 42.7538C76.9088 42.7559 76.9131 42.7581 76.9173 42.7603C77.2358 42.9263 77.3926 43.2946 77.2918 43.6397L76.3694 46.7961L78.3565 43.6128C78.5594 43.2877 78.9704 43.1621 79.3199 43.3183C79.6577 43.4692 79.8115 43.8642 79.6648 44.2043L78.0819 47.8744L80.5428 45.4102C80.7888 45.1639 81.1844 45.1535 81.4429 45.3867C81.7015 45.62 81.733 46.0152 81.5145 46.2866L78.7103 49.7702L81.445 48.1469C81.7025 47.994 82.0344 48.0693 82.2011 48.3183C82.3725 48.5743 82.3313 48.9173 82.1042 49.1253C79.7015 51.3267 77.7899 52.8399 76.3694 53.6647C74.8013 56.9113 70.2028 69.9155 67.4806 70.6083C65.6657 71.0701 63.1516 70.8667 59.938 69.9982L61.5428 64.009Z" fill="white" stroke="#4A4A4A" stroke-linejoin="round"/>
<path d="M45.7192 61.2012C46.6216 63.8593 47.9241 65.0677 49.6267 64.8264C51.3293 64.5851 52.0729 63.5613 51.8576 61.755" stroke="#626366"/>
<path d="M39.7744 49.1992L43.1207 50.3612" stroke="#4A4A4A" stroke-linecap="round"/>
<path fill-rule="evenodd" clip-rule="evenodd" d="M43.2448 59.893C40.881 57.6226 40.9878 54.7435 40.7466 53.0273C39.2404 52.7739 38.2221 50.2028 39.0318 48.2469C39.5715 46.943 40.3569 46.708 41.3879 47.5418C41.2028 43.7258 43.3139 41.8179 47.7211 41.8179C54.3319 41.8179 55.9773 45.6163 55.1546 50.5784C54.3319 55.5404 55.5901 55.0847 55.1546 58.0679C54.7191 61.0511 50.4932 63.8239 45.6474 61.5134" fill="white"/>
<path d="M43.2448 59.893C40.881 57.6226 40.9878 54.7435 40.7466 53.0273C39.2404 52.7739 38.2221 50.2028 39.0318 48.2469C39.5715 46.943 40.3569 46.708 41.3879 47.5418C41.2028 43.7258 43.3139 41.8179 47.7211 41.8179C54.3319 41.8179 55.9773 45.6163 55.1546 50.5784C54.3319 55.5404 55.5901 55.0847 55.1546 58.0679C54.7191 61.0511 50.4932 63.8239 45.6474 61.5134" stroke="#4A4A4A" stroke-linecap="round" stroke-linejoin="round"/>
<path fill-rule="evenodd" clip-rule="evenodd" d="M41.4515 48.5032C42.2733 49.6417 42.0308 52.9103 42.7077 53.0894C43.3846 53.2685 42.9984 47.9636 43.447 47.6798C43.8955 47.396 45.3486 46.6746 45.9405 44.9063C47.7156 46.5432 50.1816 48.3593 55.7938 47.6798C56.073 45.1159 55.1391 42.8402 52.9922 40.8525C49.7717 37.8709 44.2777 38.3288 41.8074 41.2018C39.1507 41.4109 38.1788 44.1841 38.8918 49.5212C39.763 48.0408 40.6162 47.7015 41.4515 48.5032Z" fill="#4A4A4A"/>
<path d="M54.7089 48.0506C52.8484 47.3079 51.5382 46.091 50.7783 44.3999" stroke="white"/>
<path d="M51.127 48.1914C49.3711 47.2282 48.2194 45.8611 47.6719 44.0903" stroke="white"/>
<path d="M51.4189 53.0938C51.5656 54.2072 51.8505 54.9453 52.2737 55.3079C52.6969 55.6705 52.5476 56.0297 51.8258 56.3854" stroke="#4A4A4A" stroke-linecap="round"/>
<path d="M52.9199 51.1059C53.6706 50.6562 54.3277 50.6529 54.8912 51.0958" stroke="#4A4A4A" stroke-linecap="round"/>
<path d="M46.6807 51.2179C47.4751 50.7002 48.208 50.7002 48.8792 51.2179" stroke="#4A4A4A" stroke-linecap="round"/>
<path d="M40.8152 50.8104L39.7522 49.9585" stroke="#4A4A4A" stroke-linecap="round"/>
<path fill-rule="evenodd" clip-rule="evenodd" d="M52.5086 58.1104C51.2304 58.1667 50.2627 58.0576 49.6055 57.7832C49.8443 58.7749 50.27 59.2708 50.8828 59.2708C51.4956 59.2708 52.0375 58.884 52.5086 58.1104Z" fill="#FF9B6D"/>
<path d="M64.7161 83.9228C69.9335 83.9228 74.1631 79.7054 74.1631 74.5029C74.1631 69.3004 69.9335 65.083 64.7161 65.083C59.4986 65.083 55.269 69.3004 55.269 74.5029C55.269 79.7054 59.4986 83.9228 64.7161 83.9228Z" fill="#0ACC94"/>
<path fill-rule="evenodd" clip-rule="evenodd" d="M44.8824 72.7363L45.9235 75.0747L60.7482 82.078C62.0416 81.4173 63.1063 80.972 63.9422 80.7422C64.6278 80.5537 65.3058 80.3338 65.9762 80.0825C66.2311 79.9869 66.5176 80.0906 66.6526 80.3274C66.7878 80.5646 66.7261 80.8654 66.5085 81.03L65.2626 81.9721H71.0001C68.7532 84.638 66.67 85.971 64.7506 85.971C62.8313 85.971 61.3094 85.7585 60.185 85.3336C50.9296 83.6209 45.2794 82.0905 43.2343 80.7422C41.1893 79.3939 39.6662 77.9351 38.6653 76.3657" fill="white"/>
<path d="M44.8824 72.7363L45.9235 75.0747L60.7482 82.078C62.0416 81.4173 63.1063 80.972 63.9422 80.7422C64.6278 80.5537 65.3058 80.3338 65.9762 80.0825V80.0825C66.2311 79.9869 66.5176 80.0906 66.6526 80.3274C66.7878 80.5646 66.7261 80.8654 66.5085 81.03L65.2626 81.9721H71.0001C68.7532 84.638 66.67 85.971 64.7506 85.971C62.8313 85.971 61.3094 85.7585 60.185 85.3336C50.9296 83.6209 45.2794 82.0905 43.2343 80.7422C41.1893 79.3939 39.6662 77.9351 38.6653 76.3657" stroke="#4A4A4A" stroke-linejoin="round"/>
<path d="M39.7517 63.0288C41.2773 64.7678 42.7432 67.0543 44.1492 69.8884L45.4715 72.4065L38.6653 76.3661L36.4243 73.4493" stroke="#626366"/>
<path fill-rule="evenodd" clip-rule="evenodd" d="M50.1744 98.8317C45.6527 95.1861 42.8402 93.3633 41.7371 93.3633C40.6341 93.3633 41.2304 94.5531 43.5262 96.9327C36.6052 97.7546 33.9221 98.3876 35.4769 98.8317C37.0316 99.2758 38.5471 99.377 40.0234 99.1355" fill="white"/>
<path d="M50.1744 98.8317C45.6527 95.1861 42.8402 93.3633 41.7371 93.3633C40.6341 93.3633 41.2304 94.5531 43.5262 96.9327C36.6052 97.7546 33.9221 98.3876 35.4769 98.8317C37.0316 99.2758 38.5471 99.377 40.0234 99.1355" stroke="#4A4A4A" stroke-linejoin="round"/>
<path d="M73.7239 47.8745L75.2192 50.8104" stroke="#4A4A4A" stroke-linecap="round"/>
</svg>
