<svg width="80" height="6" viewBox="0 0 80 6" fill="none" xmlns="http://www.w3.org/2000/svg">
<path d="M1.04472 2.92997C3.03892 2.68273 4.67645 4.20593 6.66356 4.22223C9.2543 4.24347 10.3228 3.28354 14.8237 3.66729C16.9164 3.63482 18.7879 3.00841 20.9305 3.37054C22.2481 3.59322 23.3648 3.81957 24.7537 3.7091C27.5954 3.48307 28.4901 3.26054 31.3199 3.17829C32.4344 3.14589 34.9155 2.30157 36.05 2.68196C36.5503 2.84969 37.0338 3.06202 37.536 3.22927C39.8898 4.01313 42.1335 1.87425 44.4404 1.76973C45.8637 1.70524 46.5792 2.37054 47.8499 2.76883C50.0835 3.46892 52.617 2.76076 54.7297 1.99285C57.7633 0.890189 60.947 1.72108 63.8952 2.64278C66.026 3.30895 68.6254 3.03833 70.8222 3.05634C72.2145 3.06776 73.6068 3.07918 74.9991 3.0906C75.9178 3.09814 77.2208 3.33385 78.0949 2.97726" stroke="#FFCC00" stroke-width="2" stroke-linecap="round"/>
</svg>
