<svg width="298" height="298" viewBox="0 0 298 298" fill="none" xmlns="http://www.w3.org/2000/svg">
<path d="M21.6169 5.57454C16.8972 4.66121 12.6328 6.47643 9.65128 9.66778C6.67792 12.8504 4.95101 17.4251 5.25663 22.1343C6.54387 41.969 7.6784 77.9737 3.80038 122.979C-0.625254 174.34 1.77592 248.273 3.10434 279.387C3.47154 287.988 10.7052 294.57 19.2915 294.329C43.5915 293.646 92.7273 292.684 126.519 294.8C187.079 298.592 247.559 296.644 273.391 295.473C281.257 295.117 287.508 288.971 288.053 281.122C290.006 253.008 294.495 184.024 296.135 122.065C296.955 91.0886 297.064 61.8478 295.785 40.3428C295.146 29.5966 294.159 20.7456 292.729 14.5662C292.015 11.483 291.18 9.01148 290.192 7.29363C289.219 5.60174 287.972 4.43695 286.378 4.43695C281.417 4.43695 273.475 4.09017 263.075 3.63606C228.285 2.1169 165.983 -0.603516 95.7258 4.43887C62.99 6.78831 46.4181 7.4494 37.0487 7.33466C29.3941 7.24093 26.581 6.63232 23.6243 5.99264C22.9793 5.85308 22.3274 5.71204 21.6169 5.57454Z" stroke="#FFCC00" stroke-width="1.5"/>
</svg>
