<svg width="341" height="857" viewBox="0 0 341 857" fill="none" xmlns="http://www.w3.org/2000/svg">
<path d="M1.99557e-05 19.2643C1.82551e-05 10.98 6.7248 4.3162 15.0075 4.15272C45.3194 3.55443 65.321 1.51923 105.964 4.30406C152.928 7.52201 331.656 -5.02668 337.893 2.37821C343.649 9.21111 339.765 731.127 339.13 842.613C339.084 850.862 332.432 857 324.183 857C292.113 857 213.509 857 141.721 857C101.197 857 42.3154 857 14.9802 857C6.69597 857 1.57485e-05 850.404 1.48586e-05 842.119C8.03876e-06 778.628 -1.57768e-05 525.733 1.65337e-05 352.204C4.76882e-05 184.884 2.84563e-05 60.6728 1.99557e-05 19.2643Z" fill="#E4F7F3"/>
</svg>
