<svg width="1286" height="817" viewBox="0 0 1286 817" fill="none" xmlns="http://www.w3.org/2000/svg">
<path d="M7.58935e-05 25.5237C6.91774e-05 17.2394 6.81908 10.5847 15.103 10.6653C139.226 11.873 14.4862 28.212 399.618 10.5959C799.235 -7.68293 1250.76 1.77167 1274.28 8.77455C1295.95 15.2256 1281.39 695.649 1278.96 802.853C1278.78 810.995 1272.37 817 1264.23 817C1190.36 817 845.457 817 534.468 817C355.482 817 81.5333 817 14.9584 817C6.67412 817 5.92375e-05 810.435 5.57039e-05 802.151C2.95555e-05 740.848 -5.89798e-05 503.018 6.2353e-05 339.609C0.000179075 182.41 0.000108258 65.4455 7.58935e-05 25.5237Z" fill="#E4F7F3"/>
</svg>
