<svg width="81" height="71" viewBox="0 0 81 71" fill="none" xmlns="http://www.w3.org/2000/svg">
<mask id="path-1-outside-1_151_190" maskUnits="userSpaceOnUse" x="-1.10064" y="-15.1901" width="87.2922" height="100.615" fill="black">
<rect fill="white" x="-1.10064" y="-15.1901" width="87.2922" height="100.615"/>
<path fill-rule="evenodd" clip-rule="evenodd" d="M76.5997 1.48415C78.523 6.66604 80.0981 14.8141 78.5979 22.4042C77.1051 29.9571 72.574 36.9586 62.2352 39.9879C59.7013 40.7303 57.3341 41.2404 55.1296 41.552C55.0848 40.4477 54.9395 39.3053 54.6807 38.1254C52.6971 29.0803 48.2399 24.1893 43.5612 22.3552C38.9038 20.5294 34.0694 21.7666 31.5116 24.8984C30.1841 26.5238 29.8427 28.8705 30.4418 31.2862C31.0427 33.7094 32.5958 36.2465 35.1334 38.3299C39.0691 41.5611 45.3484 43.6889 54.1395 42.6859C54.025 47.6415 51.7613 51.7538 48.6913 55.014C44.7528 59.1966 39.5115 61.9434 35.893 63.185L35.8692 63.1932L35.8463 63.2037C34.365 63.8853 30.8404 64.6967 25.1646 64.7822C19.7394 64.864 12.384 64.2821 3.04136 62.3135C2.97344 62.2781 2.90651 62.2434 2.84065 62.2094C2.99682 62.0351 3.19026 61.8187 3.41328 61.5683C4.03067 60.8752 4.87501 59.9215 5.78259 58.8792C7.59126 56.8019 9.6719 54.3491 10.6961 52.9133L9.88201 52.3326C8.89101 53.7219 6.8438 56.1375 5.02842 58.2225C4.12398 59.2612 3.28225 60.212 2.66658 60.9032C2.35877 61.2487 2.10755 61.5293 1.93333 61.7234L1.73235 61.947L1.67999 62.0052L1.66667 62.0199L1.66333 62.0236L1.6625 62.0245L1.6623 62.0248L1.80283 62.1517L1.80281 62.1517L1.66225 62.0248L1.22168 62.5128L1.67383 62.7391L1.6103 63.0284C1.97655 63.1088 2.33991 63.1872 2.70038 63.2635C4.20624 64.0515 6.18343 65.1626 8.033 66.3581C9.15446 67.0829 10.2218 67.8341 11.1063 68.5591C11.9987 69.2906 12.6728 69.9697 13.0394 70.5463L13.8833 70.0098C13.4297 69.2964 12.656 68.5363 11.7402 67.7857C10.8166 67.0286 9.71558 66.2549 8.57582 65.5182C7.70526 64.9555 6.8079 64.4118 5.94342 63.9107C13.8935 65.3988 20.2928 65.8558 25.1796 65.7821C30.881 65.6962 34.5619 64.8873 36.241 64.1228C39.9728 62.8382 45.3525 60.0184 49.4194 55.6995C52.6483 52.2705 55.0647 47.8761 55.1427 42.5593C57.4355 42.2423 59.8925 41.7163 62.5164 40.9475C73.2654 37.7981 78.0251 30.4598 79.5789 22.5981C81.1254 14.7737 79.5029 6.43234 77.5372 1.13619L76.5997 1.48415ZM53.7039 38.3396C53.9565 39.4912 54.0953 40.6049 54.1333 41.6806C45.4992 42.6894 39.4655 40.5928 35.768 37.557C33.3808 35.5971 31.9568 33.2406 31.4124 31.0455C30.8662 28.843 31.2113 26.8469 32.2861 25.531C34.533 22.7799 38.8872 21.597 43.1962 23.2862C47.484 24.9671 51.7712 29.5264 53.7039 38.3396Z"/>
</mask>
<path fill-rule="evenodd" clip-rule="evenodd" d="M76.5997 1.48415C78.523 6.66604 80.0981 14.8141 78.5979 22.4042C77.1051 29.9571 72.574 36.9586 62.2352 39.9879C59.7013 40.7303 57.3341 41.2404 55.1296 41.552C55.0848 40.4477 54.9395 39.3053 54.6807 38.1254C52.6971 29.0803 48.2399 24.1893 43.5612 22.3552C38.9038 20.5294 34.0694 21.7666 31.5116 24.8984C30.1841 26.5238 29.8427 28.8705 30.4418 31.2862C31.0427 33.7094 32.5958 36.2465 35.1334 38.3299C39.0691 41.5611 45.3484 43.6889 54.1395 42.6859C54.025 47.6415 51.7613 51.7538 48.6913 55.014C44.7528 59.1966 39.5115 61.9434 35.893 63.185L35.8692 63.1932L35.8463 63.2037C34.365 63.8853 30.8404 64.6967 25.1646 64.7822C19.7394 64.864 12.384 64.2821 3.04136 62.3135C2.97344 62.2781 2.90651 62.2434 2.84065 62.2094C2.99682 62.0351 3.19026 61.8187 3.41328 61.5683C4.03067 60.8752 4.87501 59.9215 5.78259 58.8792C7.59126 56.8019 9.6719 54.3491 10.6961 52.9133L9.88201 52.3326C8.89101 53.7219 6.8438 56.1375 5.02842 58.2225C4.12398 59.2612 3.28225 60.212 2.66658 60.9032C2.35877 61.2487 2.10755 61.5293 1.93333 61.7234L1.73235 61.947L1.67999 62.0052L1.66667 62.0199L1.66333 62.0236L1.6625 62.0245L1.6623 62.0248L1.80283 62.1517L1.80281 62.1517L1.66225 62.0248L1.22168 62.5128L1.67383 62.7391L1.6103 63.0284C1.97655 63.1088 2.33991 63.1872 2.70038 63.2635C4.20624 64.0515 6.18343 65.1626 8.033 66.3581C9.15446 67.0829 10.2218 67.8341 11.1063 68.5591C11.9987 69.2906 12.6728 69.9697 13.0394 70.5463L13.8833 70.0098C13.4297 69.2964 12.656 68.5363 11.7402 67.7857C10.8166 67.0286 9.71558 66.2549 8.57582 65.5182C7.70526 64.9555 6.8079 64.4118 5.94342 63.9107C13.8935 65.3988 20.2928 65.8558 25.1796 65.7821C30.881 65.6962 34.5619 64.8873 36.241 64.1228C39.9728 62.8382 45.3525 60.0184 49.4194 55.6995C52.6483 52.2705 55.0647 47.8761 55.1427 42.5593C57.4355 42.2423 59.8925 41.7163 62.5164 40.9475C73.2654 37.7981 78.0251 30.4598 79.5789 22.5981C81.1254 14.7737 79.5029 6.43234 77.5372 1.13619L76.5997 1.48415ZM53.7039 38.3396C53.9565 39.4912 54.0953 40.6049 54.1333 41.6806C45.4992 42.6894 39.4655 40.5928 35.768 37.557C33.3808 35.5971 31.9568 33.2406 31.4124 31.0455C30.8662 28.843 31.2113 26.8469 32.2861 25.531C34.533 22.7799 38.8872 21.597 43.1962 23.2862C47.484 24.9671 51.7712 29.5264 53.7039 38.3396Z" fill="#151B4A"/>
<path d="M78.5979 22.4042L78.8432 22.4527L78.5979 22.4042ZM76.5997 1.48415L76.5127 1.24977L76.2783 1.33676L76.3653 1.57114L76.5997 1.48415ZM62.2352 39.9879L62.3055 40.2278L62.2352 39.9879ZM55.1296 41.552L54.8798 41.5621L54.891 41.8382L55.1645 41.7995L55.1296 41.552ZM54.6807 38.1254L54.4365 38.1789L54.6807 38.1254ZM43.5612 22.3552L43.6524 22.1224L43.5612 22.3552ZM31.5116 24.8984L31.7052 25.0566L31.5116 24.8984ZM30.4418 31.2862L30.6844 31.226L30.4418 31.2862ZM35.1334 38.3299L34.9748 38.5232L35.1334 38.3299ZM54.1395 42.6859L54.3894 42.6917L54.3961 42.405L54.1112 42.4376L54.1395 42.6859ZM48.6913 55.014L48.5093 54.8426L48.6913 55.014ZM35.893 63.185L35.9741 63.4215L35.9742 63.4214L35.893 63.185ZM35.8692 63.1932L35.7881 62.9567L35.7761 62.9608L35.7647 62.9661L35.8692 63.1932ZM35.8463 63.2037L35.9508 63.4308L35.9508 63.4308L35.8463 63.2037ZM25.1646 64.7822L25.1683 65.0322L25.1646 64.7822ZM3.04136 62.3135L2.92593 62.5352L2.95631 62.551L2.98982 62.5581L3.04136 62.3135ZM2.84065 62.2094L2.65444 62.0426L2.43874 62.2834L2.72604 62.4316L2.84065 62.2094ZM3.41328 61.5683L3.2266 61.402L3.2266 61.4021L3.41328 61.5683ZM5.78259 58.8792L5.97114 59.0433L5.78259 58.8792ZM10.6961 52.9133L10.8996 53.0585L11.0448 52.855L10.8413 52.7098L10.6961 52.9133ZM9.88201 52.3326L10.0272 52.1291L9.82367 51.9839L9.67849 52.1874L9.88201 52.3326ZM5.02842 58.2225L4.83987 58.0583L5.02842 58.2225ZM2.66658 60.9032L2.85325 61.0695L2.85325 61.0695L2.66658 60.9032ZM1.93333 61.7234L2.11928 61.8905L2.11939 61.8904L1.93333 61.7234ZM1.73235 61.947L1.91809 62.1144L1.9183 62.1141L1.73235 61.947ZM1.67999 62.0052L1.86563 62.1726L1.86572 62.1725L1.67999 62.0052ZM1.66667 62.0199L1.48102 61.8525L1.481 61.8525L1.66667 62.0199ZM1.66333 62.0236L1.84865 62.1914L1.849 62.191L1.66333 62.0236ZM1.6625 62.0245L1.84685 62.1934L1.84783 62.1923L1.6625 62.0245ZM1.6623 62.0248L1.47796 61.8559L1.30789 62.0415L1.49474 62.2103L1.6623 62.0248ZM1.80283 62.1517L2.04399 62.2175L2.08451 62.0692L1.97039 61.9661L1.80283 62.1517ZM1.80281 62.1517L1.63527 62.3373L1.9369 62.6096L2.04398 62.2176L1.80281 62.1517ZM1.66225 62.0248L1.82978 61.8393L1.64422 61.6717L1.47669 61.8573L1.66225 62.0248ZM1.22168 62.5128L1.03612 62.3452L0.815847 62.5892L1.10979 62.7363L1.22168 62.5128ZM1.67383 62.7391L1.91801 62.7927L1.95975 62.6026L1.78572 62.5155L1.67383 62.7391ZM1.6103 63.0284L1.36612 62.9748L1.3125 63.219L1.55668 63.2726L1.6103 63.0284ZM2.70038 63.2635L2.81629 63.042L2.78581 63.026L2.75216 63.0189L2.70038 63.2635ZM8.033 66.3581L8.16871 66.1481L8.033 66.3581ZM11.1063 68.5591L11.2648 68.3658L11.2648 68.3658L11.1063 68.5591ZM13.0394 70.5463L12.8285 70.6804L12.9626 70.8914L13.1736 70.7573L13.0394 70.5463ZM13.8833 70.0098L14.0175 70.2207L14.2284 70.0866L14.0943 69.8756L13.8833 70.0098ZM11.7402 67.7857L11.5818 67.9791L11.5818 67.9791L11.7402 67.7857ZM8.57582 65.5182L8.71152 65.3083L8.57582 65.5182ZM5.94342 63.9107L5.98942 63.665L5.81804 64.127L5.94342 63.9107ZM25.1796 65.7821L25.1834 66.0321L25.1796 65.7821ZM36.241 64.1228L36.1597 63.8864L36.1483 63.8903L36.1374 63.8952L36.241 64.1228ZM49.4194 55.6995L49.2373 55.5282L49.2373 55.5282L49.4194 55.6995ZM55.1427 42.5593L55.1085 42.3117L54.8959 42.341L54.8927 42.5556L55.1427 42.5593ZM62.5164 40.9475L62.5867 41.1874L62.5164 40.9475ZM79.5789 22.5981L79.8242 22.6466L79.5789 22.5981ZM77.5372 1.13619L77.7716 1.04919L77.6846 0.814817L77.4502 0.901808L77.5372 1.13619ZM54.1333 41.6806L54.1623 41.929L54.3912 41.9022L54.3831 41.6718L54.1333 41.6806ZM53.7039 38.3396L53.9481 38.286L53.7039 38.3396ZM35.768 37.557L35.9266 37.3638L35.768 37.557ZM31.4124 31.0455L31.655 30.9853L31.4124 31.0455ZM32.2861 25.531L32.0925 25.3728L32.2861 25.531ZM43.1962 23.2862L43.105 23.519L43.1962 23.2862ZM78.8432 22.4527C80.3549 14.804 78.768 6.60762 76.8341 1.39716L76.3653 1.57114C78.278 6.72447 79.8412 14.8241 78.3526 22.3558L78.8432 22.4527ZM62.3055 40.2278C72.7468 37.1685 77.3351 30.0828 78.8432 22.4527L78.3526 22.3558C76.8751 29.8314 72.4011 36.7487 62.1649 39.7479L62.3055 40.2278ZM55.1645 41.7995C57.382 41.4861 59.7609 40.9733 62.3055 40.2278L62.1649 39.7479C59.6416 40.4873 57.2863 40.9947 55.0946 41.3044L55.1645 41.7995ZM54.4365 38.1789C54.6922 39.345 54.8356 40.4728 54.8798 41.5621L55.3794 41.5418C55.334 40.4225 55.1867 39.2657 54.9249 38.0718L54.4365 38.1789ZM43.47 22.5879C48.0509 24.3837 52.4656 29.1918 54.4365 38.1789L54.9249 38.0718C52.9286 28.9688 48.429 23.9949 43.6524 22.1224L43.47 22.5879ZM31.7052 25.0566C34.1852 22.0201 38.8995 20.7962 43.47 22.5879L43.6524 22.1224C38.9081 20.2625 33.9536 21.5132 31.318 24.7403L31.7052 25.0566ZM30.6844 31.226C30.0986 28.8635 30.441 26.6045 31.7052 25.0566L31.318 24.7403C29.9272 26.4431 29.5869 28.8776 30.1992 31.3464L30.6844 31.226ZM35.2921 38.1367C32.792 36.0842 31.2712 33.5922 30.6844 31.226L30.1992 31.3464C30.8142 33.8266 32.3996 36.4089 34.9748 38.5232L35.2921 38.1367ZM54.1112 42.4376C45.3738 43.4344 39.1658 41.3171 35.2921 38.1367L34.9748 38.5232C38.9724 41.8052 45.323 43.9434 54.1678 42.9343L54.1112 42.4376ZM48.8733 55.1854C51.9728 51.8939 54.2731 47.7255 54.3894 42.6917L53.8896 42.6802C53.7769 47.5576 51.5498 51.6137 48.5093 54.8426L48.8733 55.1854ZM35.9742 63.4214C39.6212 62.17 44.9006 59.4043 48.8733 55.1854L48.5093 54.8426C44.605 58.9888 39.4018 61.7167 35.8119 62.9485L35.9742 63.4214ZM35.9503 63.4296L35.9741 63.4215L35.8119 62.9485L35.7881 62.9567L35.9503 63.4296ZM35.9508 63.4308L35.9737 63.4203L35.7647 62.9661L35.7418 62.9766L35.9508 63.4308ZM25.1683 65.0322C30.8571 64.9464 34.4228 64.1339 35.9508 63.4308L35.7418 62.9766C34.3073 63.6367 30.8236 64.4469 25.1608 64.5323L25.1683 65.0322ZM2.98982 62.5581C12.3483 64.53 19.7224 65.1143 25.1683 65.0322L25.1608 64.5323C19.7564 64.6137 12.4197 64.0341 3.09291 62.0688L2.98982 62.5581ZM2.72604 62.4316C2.79162 62.4654 2.85826 62.5 2.92593 62.5352L3.1568 62.0917C3.08861 62.0562 3.02141 62.0214 2.95526 61.9873L2.72604 62.4316ZM3.2266 61.4021C3.00375 61.6522 2.81046 61.8685 2.65444 62.0426L3.02686 62.3762C3.18317 62.2018 3.37677 61.9852 3.59996 61.7346L3.2266 61.4021ZM5.59405 58.715C4.68725 59.7564 3.84357 60.7094 3.2266 61.402L3.59996 61.7346C4.21778 61.0411 5.06277 60.0866 5.97114 59.0433L5.59405 58.715ZM10.4926 52.7682C9.47667 54.1923 7.40439 56.6358 5.59405 58.715L5.97114 59.0433C7.77813 56.968 9.86712 54.506 10.8996 53.0585L10.4926 52.7682ZM9.73683 52.5361L10.5509 53.1169L10.8413 52.7098L10.0272 52.1291L9.73683 52.5361ZM5.21696 58.3867C7.03065 56.3036 9.08622 53.8787 10.0855 52.4778L9.67849 52.1874C8.69579 53.565 6.65694 55.9714 4.83987 58.0583L5.21696 58.3867ZM2.85325 61.0695C3.46935 60.3778 4.31174 59.4263 5.21696 58.3867L4.83987 58.0583C3.93622 59.0962 3.09514 60.0462 2.4799 60.7369L2.85325 61.0695ZM2.11939 61.8904C2.29378 61.6961 2.54521 61.4153 2.85325 61.0695L2.4799 60.7369C2.17232 61.0822 1.92131 61.3625 1.74728 61.5564L2.11939 61.8904ZM1.9183 62.1141L2.11928 61.8905L1.74739 61.5563L1.54641 61.7799L1.9183 62.1141ZM1.86572 62.1725L1.91809 62.1144L1.54662 61.7797L1.49425 61.8378L1.86572 62.1725ZM1.85231 62.1874L1.86563 62.1726L1.49434 61.8377L1.48102 61.8525L1.85231 62.1874ZM1.849 62.191L1.85234 62.1873L1.481 61.8525L1.47766 61.8562L1.849 62.191ZM1.84783 62.1923L1.84865 62.1914L1.47801 61.8558L1.47718 61.8567L1.84783 62.1923ZM1.84664 62.1936L1.84684 62.1934L1.47817 61.8557L1.47796 61.8559L1.84664 62.1936ZM1.97039 61.9661L1.82986 61.8392L1.49474 62.2103L1.63526 62.3372L1.97039 61.9661ZM2.04398 62.2176L2.04399 62.2175L1.56166 62.0858L1.56164 62.0859L2.04398 62.2176ZM1.49471 62.2104L1.63527 62.3373L1.97035 61.9662L1.82978 61.8393L1.49471 62.2104ZM1.40724 62.6803L1.8478 62.1924L1.47669 61.8573L1.03612 62.3452L1.40724 62.6803ZM1.78572 62.5155L1.33358 62.2892L1.10979 62.7363L1.56194 62.9626L1.78572 62.5155ZM1.85448 63.082L1.91801 62.7927L1.42965 62.6855L1.36612 62.9748L1.85448 63.082ZM2.75216 63.0189C2.39231 62.9427 2.02956 62.8645 1.66392 62.7842L1.55668 63.2726C1.92354 63.3532 2.28751 63.4316 2.6486 63.5081L2.75216 63.0189ZM8.16871 66.1481C6.31118 64.9475 4.32708 63.8326 2.81629 63.042L2.58447 63.485C4.0854 64.2704 6.05567 65.3777 7.8973 66.568L8.16871 66.1481ZM11.2648 68.3658C10.3705 67.6328 9.29474 66.8759 8.16871 66.1481L7.8973 66.568C9.01418 67.2899 10.0732 68.0355 10.9478 68.7524L11.2648 68.3658ZM13.2504 70.4122C12.862 69.8013 12.163 69.102 11.2648 68.3658L10.9478 68.7524C11.8344 69.4792 12.4836 70.138 12.8285 70.6804L13.2504 70.4122ZM13.7492 69.7988L12.9053 70.3353L13.1736 70.7573L14.0175 70.2207L13.7492 69.7988ZM11.5818 67.9791C12.4916 68.7249 13.2405 69.4647 13.6723 70.1439L14.0943 69.8756C13.619 69.1281 12.8203 68.3478 11.8987 67.5924L11.5818 67.9791ZM8.44011 65.7282C9.5753 66.4619 10.6679 67.23 11.5818 67.9791L11.8987 67.5924C10.9653 66.8272 9.85587 66.0479 8.71152 65.3083L8.44011 65.7282ZM5.81804 64.127C6.6797 64.6265 7.57354 65.1681 8.44011 65.7282L8.71152 65.3083C7.83698 64.743 6.9361 64.1972 6.0688 63.6944L5.81804 64.127ZM25.1759 65.5321C20.3076 65.6055 13.925 65.1503 5.98942 63.665L5.89743 64.1564C13.862 65.6472 20.2781 66.106 25.1834 66.0321L25.1759 65.5321ZM36.1374 63.8952C34.5045 64.6388 30.8641 65.4464 25.1759 65.5321L25.1834 66.0321C30.8979 65.9459 34.6193 65.1359 36.3446 64.3503L36.1374 63.8952ZM49.2373 55.5282C45.2046 59.8107 39.863 62.6116 36.1597 63.8864L36.3224 64.3592C40.0826 63.0648 45.5003 60.226 49.6014 55.8709L49.2373 55.5282ZM54.8927 42.5556C54.8159 47.7934 52.4364 52.1309 49.2373 55.5282L49.6014 55.8709C52.8602 52.4102 55.3135 47.9588 55.3927 42.563L54.8927 42.5556ZM62.4461 40.7076C59.833 41.4732 57.3881 41.9965 55.1085 42.3117L55.1769 42.8069C57.4829 42.4882 59.9519 41.9594 62.5867 41.1874L62.4461 40.7076ZM79.3337 22.5497C77.7951 30.3342 73.0925 37.5882 62.4461 40.7076L62.5867 41.1874C73.4383 38.0079 78.2551 30.5855 79.8242 22.6466L79.3337 22.5497ZM77.3028 1.22318C79.2579 6.49077 80.8686 14.7838 79.3337 22.5497L79.8242 22.6466C81.3822 14.7637 79.7479 6.37391 77.7716 1.04919L77.3028 1.22318ZM76.6867 1.71853L77.6242 1.37056L77.4502 0.901808L76.5127 1.24977L76.6867 1.71853ZM54.3831 41.6718C54.3446 40.5806 54.2038 39.4519 53.9481 38.286L53.4597 38.3931C53.7091 39.5304 53.846 40.6292 53.8834 41.6895L54.3831 41.6718ZM35.6093 37.7503C39.369 40.837 45.4743 42.944 54.1623 41.929L54.1042 41.4323C45.5242 42.4348 39.5621 40.3485 35.9266 37.3638L35.6093 37.7503ZM31.1698 31.1057C31.7283 33.3578 33.1845 35.7595 35.6093 37.7503L35.9266 37.3638C33.577 35.4348 32.1853 33.1234 31.655 30.9853L31.1698 31.1057ZM32.0925 25.3728C30.9546 26.7661 30.6103 28.8497 31.1698 31.1057L31.655 30.9853C31.1221 28.8362 31.4681 26.9278 32.4797 25.6891L32.0925 25.3728ZM43.2875 23.0534C38.8912 21.33 34.417 22.5267 32.0925 25.3728L32.4797 25.6891C34.6489 23.0332 38.8831 21.8639 43.105 23.519L43.2875 23.0534ZM53.9481 38.286C52.0027 29.4148 47.6729 24.7726 43.2875 23.0534L43.105 23.519C47.2951 25.1615 51.5397 29.638 53.4597 38.3931L53.9481 38.286Z" fill="#151B4A" mask="url(#path-1-outside-1_151_190)"/>
</svg>
