<svg width="170" height="145" viewBox="0 0 170 145" fill="none" xmlns="http://www.w3.org/2000/svg">
<path fill-rule="evenodd" clip-rule="evenodd" d="M57.8794 141.35V133.081H18.1892V141.35C18.1892 143.177 27.0741 144.658 38.0343 144.658C48.9944 144.658 57.8794 143.177 57.8794 141.35Z" fill="#FF9B6D"/>
<path d="M38.0343 136.388C27.0741 136.388 18.1892 134.907 18.1892 133.08C18.1892 131.253 27.0741 129.773 38.0343 129.773C48.9944 129.773 57.8794 131.253 57.8794 133.08C57.8794 134.907 48.9944 136.388 38.0343 136.388Z" fill="#D6DCFF"/>
<path d="M38.0363 129.772C17.0294 129.772 -0.000137329 112.743 -0.000137329 91.7357C-0.000137329 70.7287 17.0294 53.6992 38.0363 53.6992C59.0433 53.6992 76.0728 70.7287 76.0728 91.7357C76.0728 112.743 59.0433 129.772 38.0363 129.772Z" fill="#0ACC94"/>
<path d="M72.3684 63.3914C64.111 60.7903 59.6079 60.4445 58.8591 62.354C57.7359 65.2182 63.201 67.5056 60.2032 70.7735C57.2054 74.0413 68.5832 73.7439 70.4758 78.8296C72.3684 83.9153 69.8018 86.0236 71.0851 88.4648C72.3684 90.906 75.0092 93.556 74.3008 95.6072" stroke="white" stroke-width="2" stroke-linecap="round"/>
<path fill-rule="evenodd" clip-rule="evenodd" d="M64.9012 85.9871C64.2355 85.5678 63.8077 88.5473 62.7177 90.7095C61.6277 92.8718 55.5576 94.5449 56.9336 96.6452C58.3095 98.7456 66.1509 95.034 66.1509 92.8718C66.1509 90.7095 65.567 86.4064 64.9012 85.9871Z" stroke="white" stroke-width="2" stroke-linecap="round"/>
<path fill-rule="evenodd" clip-rule="evenodd" d="M48.9964 115.076C43.8394 115.076 37.7293 118.816 32.9435 118.816C28.1577 118.816 29.183 114.01 25.983 115.076C22.7829 116.143 21.7754 115.101 18.9717 112.724C16.1679 110.346 19.6897 122.155 25.983 123.097C32.2763 124.038 38.2932 124.015 41.9972 122.094C45.7012 120.173 46.0419 118.816 48.9964 118.816C51.9509 118.816 54.1533 115.076 48.9964 115.076Z" stroke="white" stroke-width="2" stroke-linecap="round"/>
<path fill-rule="evenodd" clip-rule="evenodd" d="M24.19 71.0915C29.961 72.4919 38.6977 68.6317 38.6977 73.0361C38.6977 77.4405 45.5103 79.5008 48.8119 85.8527C52.1135 92.2045 44.9675 90.4677 31.5765 92.2045C18.1854 93.9414 43.5002 106.697 33.0614 105.971C22.6225 105.245 19.5126 99.561 14.4307 93.8656C9.34877 88.1703 11.3246 77.7071 7.84157 77.7071C4.35858 77.7071 8.19561 75.8826 8.83811 72.6226C9.48061 69.3626 8.28095 66.1035 10.1285 66.1035C11.976 66.1035 18.419 69.6911 24.19 71.0915Z" stroke="white" stroke-width="2" stroke-linecap="round"/>
<path d="M38.0376 49.1992V49.1992C22.9097 52.5846 12.3115 66.2282 12.7732 81.7234L13.4125 103.178C13.8033 116.292 22.9218 127.523 35.6762 130.599" stroke="#1D70D3" stroke-width="8" stroke-linecap="round"/>
<path fill-rule="evenodd" clip-rule="evenodd" d="M110.108 114.263C101.089 113.863 95.2572 115.318 92.612 118.629C88.6444 123.595 89.5851 134.814 110.108 135.997C123.79 136.786 123.79 129.541 110.108 114.263Z" fill="white" stroke="#4A4A4A" stroke-linecap="round" stroke-linejoin="round"/>
<path fill-rule="evenodd" clip-rule="evenodd" d="M83.7994 128.841H98.8091V139.823H83.7994C80.7667 139.823 78.3081 137.365 78.3081 134.332C78.3081 131.299 80.7667 128.841 83.7994 128.841Z" fill="#1D70D3"/>
<path fill-rule="evenodd" clip-rule="evenodd" d="M105.755 119.649C96.7356 119.249 90.9036 120.704 88.2585 124.015C84.2908 128.981 85.2315 140.199 105.755 141.383C119.437 142.172 119.437 134.927 105.755 119.649Z" fill="white" stroke="#4A4A4A" stroke-linecap="round" stroke-linejoin="round"/>
<path fill-rule="evenodd" clip-rule="evenodd" d="M166.174 103.147V106.997C171.408 120.065 170.942 130.371 164.774 137.914C158.606 145.458 138.049 146.876 103.101 142.168L104.713 117.872L108.272 117.336L108.328 111.906L128.741 114.25L131.271 111.906L166.174 103.147Z" fill="#FFDC84"/>
<path fill-rule="evenodd" clip-rule="evenodd" d="M103.101 138.057L139.599 139.472C145.489 139.701 151.287 137.962 156.079 134.53C160.586 131.303 162.807 125.75 161.768 120.304L159.625 109.073" fill="#FFDC84"/>
<path d="M103.101 138.057L139.599 139.472C145.489 139.701 151.287 137.962 156.079 134.53C160.586 131.303 162.807 125.75 161.768 120.304L159.625 109.073" stroke="white" stroke-linecap="round" stroke-linejoin="round"/>
<path fill-rule="evenodd" clip-rule="evenodd" d="M142.247 47.002C147.581 49.9509 152.771 57.169 157.818 68.6563C165.388 85.8873 169.151 95.5822 168.078 100.875C167.005 106.167 140.149 114.16 129.98 112.956C119.811 111.753 123.442 89.0341 121.626 82.1902C119.811 75.3464 120.035 63.1153 126.278 57.1945C130.439 53.2473 135.762 49.8498 142.247 47.002Z" fill="white" stroke="#D6DCFF"/>
<path fill-rule="evenodd" clip-rule="evenodd" d="M109.725 74.4761L105.09 77.9769C91.5191 66.8407 82.3822 59.4073 77.6794 55.6766C75.4601 52.1028 73.4646 49.2115 71.693 47.0026C69.9214 44.7936 68.8493 44.3967 68.4766 45.8117C68.9349 48.3791 69.3316 50.2634 69.6665 51.4645L61.7826 44.6497C61.2713 44.2077 60.4985 44.2639 60.0565 44.7752C60.0456 44.7879 60.0349 44.8008 60.0245 44.8138C59.5499 45.4107 59.5071 46.2433 59.9181 46.8856L62.8481 51.4645L61.5346 50.6623C60.0844 49.7765 58.1907 50.234 57.3049 51.6843C57.1453 51.9456 57.0256 52.2293 56.9497 52.526C56.3481 54.8792 57.4715 57.3332 59.646 58.4154L69.6665 63.4027C85.1365 81.4549 95.3652 91.0662 100.353 92.2367C105.34 93.4071 111.798 90.7755 119.728 84.3417" fill="white"/>
<path d="M109.725 74.4761L105.09 77.9769C91.5191 66.8407 82.3822 59.4073 77.6794 55.6766C75.4601 52.1028 73.4646 49.2115 71.693 47.0026C69.9214 44.7936 68.8493 44.3967 68.4766 45.8117C68.9349 48.3791 69.3316 50.2634 69.6665 51.4645L61.7826 44.6497C61.2713 44.2077 60.4985 44.2639 60.0565 44.7752C60.0456 44.7879 60.0349 44.8008 60.0245 44.8138C59.5499 45.4107 59.5071 46.2433 59.9181 46.8856L62.8481 51.4645L61.5346 50.6623C60.0844 49.7765 58.1907 50.234 57.3049 51.6843C57.1453 51.9456 57.0256 52.2293 56.9497 52.526C56.3481 54.8792 57.4715 57.3332 59.646 58.4154L69.6665 63.4027C85.1365 81.4549 95.3652 91.0662 100.353 92.2367C105.34 93.4071 111.798 90.7755 119.728 84.3417" stroke="#4A4A4A" stroke-linecap="round" stroke-linejoin="round"/>
<path fill-rule="evenodd" clip-rule="evenodd" d="M119.489 14.0038C117.689 15.6556 116.789 17.8344 116.789 20.5402C116.789 24.5988 116.479 27.8743 114.918 28.8374C113.356 29.8005 110.473 31.285 112.903 32.675C111.157 35.4513 109.717 44.7705 117.962 46.5076L124.992 48.091L128.346 53.4899L140.471 44.3411C137.92 42.2688 136.083 39.9108 134.96 37.2671C138.988 36.8494 141.002 33.0345 141.002 25.8224C141.002 24.2766 138.94 17.0079 132.521 14.0038C130.404 13.0131 126.06 13.0131 119.489 14.0038Z" fill="white" stroke="#4A4A4A" stroke-linecap="round" stroke-linejoin="round"/>
<path fill-rule="evenodd" clip-rule="evenodd" d="M111.556 9.63982C112.705 12.5485 117.354 14.7113 125.502 16.128C125.013 19.6061 125.989 21.8386 128.433 22.8254C127.632 26.3051 126.321 32.4339 129.136 31.9436C131.951 31.4533 131.86 28.6257 134.765 28.6257C137.67 28.6257 135.532 35.3734 131.651 36.2069C133.414 41.0525 136.2 43.7558 140.011 44.3168C140.838 36.0814 151.932 29.208 151.149 21.6054C150.627 16.5371 148.692 14.0029 145.344 14.0029C145.517 8.56961 141.991 4.7503 134.765 2.54496C123.926 -0.763042 120.264 0.258023 122.095 1.89728C119.858 2.02826 109.833 5.27675 111.556 9.63982Z" fill="#4A4A4A"/>
<path d="M131.274 33.745L133.771 32.3174" stroke="#4A4A4A" stroke-linecap="round"/>
<path fill-rule="evenodd" clip-rule="evenodd" d="M126.013 57.1948C126.625 54.0557 128.378 51.445 131.273 49.3627C134.167 47.2805 137.233 45.3051 140.471 43.4365L143.906 47.4417L126.013 57.1948Z" fill="#1D70D3"/>
<path fill-rule="evenodd" clip-rule="evenodd" d="M113.632 36.1674C114.462 34.03 116.13 36.8117 116.121 38.3047C113.966 40.5055 112.803 38.3047 113.632 36.1674Z" fill="#D6DCFF"/>
<path fill-rule="evenodd" clip-rule="evenodd" d="M128.518 57.8418C133.119 56.5611 139.805 56.0846 139.805 63.405C139.805 68.2852 133.091 76.5198 119.664 88.1087L108.328 74.2083C118.72 64.1512 125.45 58.6957 128.518 57.8418Z" fill="#1D70D3"/>
<path d="M107.363 116.728L121.626 115.213" stroke="white" stroke-linecap="round" stroke-linejoin="round"/>
</svg>
