<svg width="24" height="23" viewBox="0 0 24 23" fill="none" xmlns="http://www.w3.org/2000/svg">
<path d="M23.2921 6.78857C23.2793 5.82285 23.0985 4.86673 22.7579 3.96298C22.4625 3.20067 22.0114 2.50835 21.4333 1.93027C20.8552 1.35218 20.1629 0.901042 19.4006 0.605667C18.5084 0.270774 17.5659 0.0896914 16.6132 0.07013C15.3866 0.0153011 14.9977 0 11.8839 0C8.77015 0 8.37105 8.55014e-08 7.15334 0.07013C6.20105 0.0898352 5.259 0.270916 4.36727 0.605667C3.60484 0.900837 2.91242 1.35191 2.33431 1.93002C1.7562 2.50813 1.30513 3.20055 1.00996 3.96298C0.6744 4.85443 0.49371 5.79669 0.475702 6.74905C0.420873 7.97696 0.404297 8.36586 0.404297 11.4796C0.404297 14.5934 0.404297 14.9912 0.475702 16.2102C0.494828 17.164 0.674616 18.105 1.00996 18.9988C1.30563 19.761 1.75703 20.4532 2.33534 21.031C2.91364 21.6089 3.60613 22.0598 4.36855 22.3549C5.25784 22.7032 6.20005 22.8973 7.15462 22.9286C8.38253 22.9835 8.77143 23 11.8852 23C14.999 23 15.3981 23 16.6158 22.9286C17.5685 22.9099 18.511 22.7292 19.4031 22.3944C20.1652 22.0987 20.8574 21.6474 21.4354 21.0694C22.0134 20.4913 22.4647 19.7992 22.7604 19.0371C23.0958 18.1445 23.2756 17.2035 23.2947 16.2485C23.3495 15.0218 23.3661 14.6329 23.3661 11.5179C23.3635 8.40411 23.3635 8.00883 23.2921 6.78857ZM11.8763 17.368C8.61969 17.368 5.98153 14.7298 5.98153 11.4732C5.98153 8.21667 8.61969 5.57851 11.8763 5.57851C13.4397 5.57851 14.939 6.19956 16.0445 7.30504C17.15 8.41052 17.771 9.90987 17.771 11.4732C17.771 13.0366 17.15 14.536 16.0445 15.6415C14.939 16.7469 13.4397 17.368 11.8763 17.368ZM18.0056 6.73502C17.8251 6.73519 17.6463 6.69975 17.4794 6.63073C17.3126 6.56171 17.161 6.46047 17.0333 6.3328C16.9056 6.20513 16.8044 6.05353 16.7354 5.88669C16.6663 5.71984 16.6309 5.54103 16.6311 5.36047C16.6311 5.18005 16.6666 5.00139 16.7357 4.8347C16.8047 4.66801 16.9059 4.51655 17.0335 4.38897C17.1611 4.26139 17.3125 4.16019 17.4792 4.09115C17.6459 4.0221 17.8246 3.98657 18.005 3.98657C18.1854 3.98657 18.3641 4.0221 18.5308 4.09115C18.6974 4.16019 18.8489 4.26139 18.9765 4.38897C19.1041 4.51655 19.2053 4.66801 19.2743 4.8347C19.3434 5.00139 19.3789 5.18005 19.3789 5.36047C19.3789 6.12043 18.7643 6.73502 18.0056 6.73502Z" fill="#151B4A"/>
<path d="M11.8769 15.3096C13.9917 15.3096 15.706 13.5952 15.706 11.4805C15.706 9.36571 13.9917 7.65137 11.8769 7.65137C9.76219 7.65137 8.04785 9.36571 8.04785 11.4805C8.04785 13.5952 9.76219 15.3096 11.8769 15.3096Z" fill="#151B4A"/>
</svg>
