<svg width="37" height="51" viewBox="0 0 37 51" fill="none" xmlns="http://www.w3.org/2000/svg">
<path fill-rule="evenodd" clip-rule="evenodd" d="M20.7834 5.7565C20.3966 6.55749 19.959 7.28816 19.4813 7.95367C18.4891 10.7304 18.7837 15.2439 24.3133 20.6909C24.5132 20.8878 24.4964 21.1758 24.2758 21.3343C24.1939 21.3931 24.0954 21.4258 23.9938 21.4335C23.8949 21.6483 23.6555 21.7643 23.4205 21.6974C21.8238 21.243 19.3377 20.9841 17.0879 21.6644C14.871 22.3348 12.8759 23.9136 12.1501 27.1953C12.0902 27.4662 11.8254 27.632 11.5586 27.5657C11.4284 27.5333 11.3219 27.4517 11.2538 27.3451C11.2316 27.3404 11.2094 27.3349 11.1873 27.3284C10.8792 27.2381 10.7042 27.001 10.7965 26.7989C11.3948 25.4899 11.8992 23.8832 11.2643 21.7903C10.6435 19.7443 8.91983 17.1905 5.0065 13.9679C4.82759 13.9354 4.65864 13.8986 4.50062 13.8578C4.23322 13.7889 4.07237 13.5162 4.14133 13.2488C4.2103 12.9814 4.48297 12.8206 4.75036 12.8895C6.30102 13.2895 9.24068 13.2786 12.2455 12.1739C14.4655 11.3577 16.7 9.95259 18.4273 7.69601C18.8143 6.58756 19.395 5.70494 19.9918 5.09096L20.0148 5.04086C20.1296 4.78971 20.4262 4.67915 20.6774 4.79393C20.7459 4.82524 20.804 4.87009 20.8498 4.92385C20.8597 4.93046 20.8695 4.9374 20.879 4.94465C21.1073 5.11801 21.1373 5.40763 20.9461 5.59154C20.8921 5.6435 20.8378 5.69851 20.7834 5.7565ZM6.5986 14.1246C10.1073 17.1499 11.7714 19.6414 12.4039 21.726C12.5925 22.3478 12.6883 22.9301 12.7152 23.4758C13.7974 22.0274 15.2516 21.161 16.7897 20.6959C18.8685 20.0673 21.0944 20.1697 22.7738 20.5089C18.7713 16.2728 17.736 12.5364 17.9959 9.70279C16.3649 11.332 14.4674 12.4225 12.5906 13.1125C10.4432 13.902 8.30542 14.1737 6.5986 14.1246Z" fill="#151B4A"/>
<path fill-rule="evenodd" clip-rule="evenodd" d="M30.5832 33.6935C30.4327 34.2155 30.247 34.7034 30.0322 35.1587C29.7117 36.9915 30.3719 39.7999 34.4853 42.6393C34.7162 42.7987 34.7495 43.0853 34.5596 43.2795C34.5103 43.3298 34.4509 43.369 34.3858 43.3967C34.3029 43.5842 34.1085 43.7045 33.8926 43.6821C32.8421 43.5729 31.2566 43.6854 29.9298 44.355C28.6336 45.0091 27.5764 46.1924 27.4836 48.3039C27.4714 48.581 27.2392 48.7901 26.9649 48.7709C26.8359 48.7619 26.7206 48.7039 26.6359 48.6162C26.3379 48.5693 26.1435 48.3737 26.1973 48.1673C26.4304 47.2731 26.5677 46.2143 25.9419 44.9772C25.3384 43.7839 24.0045 42.3857 21.2405 40.8025C21.1219 40.8016 21.0088 40.7968 20.9019 40.7884C20.6266 40.7667 20.4211 40.5259 20.4428 40.2506C20.4645 39.9754 20.7053 39.7698 20.9805 39.7915C21.9779 39.8702 23.8232 39.544 25.596 38.5148C26.8839 37.7671 28.1149 36.6594 28.9494 35.0876C29.0763 34.3088 29.3597 33.6545 29.6889 33.174C29.7626 32.9127 30.0322 32.7573 30.2961 32.8261C30.3753 32.8467 30.445 32.8852 30.5021 32.936C30.7532 33.0683 30.8309 33.3463 30.6754 33.5591C30.6445 33.6014 30.6137 33.6462 30.5832 33.6935ZM22.7575 40.6462C25.1488 42.1225 26.4287 43.4819 27.0533 44.7169C27.1644 44.9366 27.2543 45.1514 27.3259 45.361C27.87 44.4934 28.6312 43.8752 29.4687 43.4526C30.5732 42.8952 31.8059 42.6774 32.8498 42.6444C30.2998 40.6357 29.2304 38.6225 28.9544 36.912C28.1256 37.975 27.1242 38.7839 26.098 39.3796C24.9624 40.0389 23.7844 40.4444 22.7575 40.6462Z" fill="#151B4A"/>
</svg>
