<svg width="21" height="25" viewBox="0 0 21 25" fill="none" xmlns="http://www.w3.org/2000/svg">
<path fill-rule="evenodd" clip-rule="evenodd" d="M7.75872 1.59597C7.9971 2.45291 8.15087 3.2906 8.23148 4.10585C9.3196 6.8464 12.5209 10.0418 20.2703 10.4817C20.5504 10.4976 20.728 10.725 20.6669 10.9897C20.6443 11.0878 20.592 11.1772 20.521 11.2501C20.5888 11.4768 20.4855 11.7221 20.2648 11.8271C18.7655 12.5401 16.7274 13.9871 15.4869 15.9835C14.2645 17.9507 13.8086 20.4537 15.4302 23.3976C15.5641 23.6406 15.4746 23.9399 15.2305 24.0663C15.1112 24.128 14.9771 24.137 14.8555 24.1017C14.8359 24.1129 14.8157 24.1233 14.7949 24.133C14.5038 24.2686 14.2158 24.2061 14.1518 23.9934C13.7368 22.6152 13.0548 21.0754 11.1961 19.9229C9.379 18.7961 6.39831 18.0161 1.33161 18.1795C1.17566 18.2734 1.02432 18.3574 0.878587 18.4312C0.632229 18.5559 0.331387 18.4573 0.206638 18.211C0.0818881 17.9646 0.180471 17.6638 0.426829 17.539C1.85551 16.8156 4.05613 14.8665 5.58353 12.0528C6.71192 9.97418 7.4624 7.44348 7.2698 4.60821C6.82859 3.5202 6.68195 2.47392 6.72477 1.61877L6.70898 1.56596C6.62935 1.30154 6.77916 1.02265 7.04357 0.943024C7.1157 0.921304 7.1889 0.916656 7.25885 0.92675C7.27067 0.92517 7.28256 0.923945 7.29452 0.923088C7.58039 0.902603 7.79418 1.10028 7.77203 1.36462C7.76577 1.43931 7.76129 1.51649 7.75872 1.59597ZM2.63071 17.2461C7.26338 17.2016 10.1582 17.9741 12.0096 19.1221C12.5619 19.4646 13.0183 19.8387 13.3988 20.2308C13.2553 18.4285 13.7754 16.8177 14.6235 15.453C15.7697 13.6083 17.5091 12.2156 18.9943 11.3615C13.1911 10.8228 9.94645 8.70005 8.27077 6.40023C8.12147 8.7007 7.41636 10.7726 6.46239 12.5299C5.37092 14.5406 3.94494 16.156 2.63071 17.2461Z" fill="#151B4A"/>
</svg>
