<svg width="152" height="13" viewBox="0 0 152 13" fill="none" xmlns="http://www.w3.org/2000/svg">
<path d="M2.03219 7.07643C5.87717 6.27805 9.01715 11.0572 12.8458 11.0886C17.8375 11.1296 19.9059 8.09662 28.5746 9.25972C32.6071 9.13651 36.2195 7.14559 40.3444 8.26425C42.8809 8.95214 45.0304 9.65356 47.7076 9.29184C53.1854 8.55175 54.9116 7.8422 60.365 7.55486C62.5127 7.44171 67.3019 4.75861 69.4841 5.94486C70.4463 6.46792 71.3759 7.13155 72.3419 7.6531C76.8693 10.0974 81.214 3.34092 85.66 2.98874C88.4031 2.77146 89.775 4.85889 92.2196 6.10013C96.5164 8.28189 101.405 6.02695 105.484 3.58813C111.34 0.0861366 117.466 2.67018 123.137 5.54252C127.236 7.61852 132.248 6.74044 136.48 6.77515C139.163 6.79716 141.846 6.81916 144.528 6.84116C146.298 6.85568 148.807 7.58473 150.495 6.4533" stroke="#FFCC00" stroke-width="3" stroke-linecap="round"/>
</svg>
