<svg width="22" height="23" viewBox="0 0 22 23" fill="none" xmlns="http://www.w3.org/2000/svg">
<path d="M11 0C4.92545 0 0 5.14933 0 11.5C0 17.8507 4.92545 23 11 23C17.0746 23 22 17.8507 22 11.5C22 5.14933 17.0746 0 11 0ZM16.2864 8.66864C16.2937 8.78929 16.2937 8.91507 16.2937 9.03828C16.2937 12.8066 13.5487 17.1473 8.53237 17.1473C6.98549 17.1473 5.55156 16.6776 4.34353 15.869C4.56451 15.8946 4.77567 15.9049 5.00156 15.9049C6.27835 15.9049 7.45201 15.4531 8.3875 14.6882C7.18929 14.6625 6.18259 13.8411 5.83884 12.7116C6.25871 12.7758 6.63683 12.7758 7.06897 12.6603C6.45201 12.5292 5.89746 12.1789 5.49955 11.6689C5.10164 11.1588 4.8849 10.5205 4.88616 9.86228V9.82634C5.2471 10.0394 5.67188 10.1703 6.11629 10.1883C5.74269 9.92798 5.4363 9.57532 5.22429 9.16157C5.01228 8.74783 4.9012 8.28578 4.90089 7.81641C4.90089 7.28504 5.03348 6.79989 5.27165 6.37891C5.95646 7.26024 6.81099 7.98106 7.77971 8.49451C8.74843 9.00796 9.80966 9.30256 10.8944 9.35915C10.5089 7.42109 11.8938 5.85268 13.5585 5.85268C14.3442 5.85268 15.0513 6.19665 15.5498 6.75112C16.1661 6.63047 16.7554 6.38917 17.2808 6.06574C17.077 6.72545 16.6498 7.28248 16.0826 7.63415C16.6326 7.57254 17.1629 7.41339 17.654 7.19007C17.2833 7.75993 16.8192 8.26563 16.2864 8.66864Z" fill="#151B4A"/>
</svg>
