<svg width="321" height="332" viewBox="0 0 321 332" fill="none" xmlns="http://www.w3.org/2000/svg">
<mask id="mask0_151_252" style="mask-type:alpha" maskUnits="userSpaceOnUse" x="9" y="11" width="292" height="316">
<path d="M297.593 167.554C290.833 246.413 348.343 385.788 142.405 299.965C-2.01926 239.778 5.25981 221.929 12.0207 143.071C18.7817 64.2119 88.1901 5.76505 167.049 12.526C245.908 19.2869 304.354 88.6954 297.593 167.554Z" fill="#C4C4C4"/>
</mask>
<g mask="url(#mask0_151_252)">
<path fill-rule="evenodd" clip-rule="evenodd" d="M235.077 124.291C228.868 145.31 225.04 157.481 223.593 160.804C216.14 177.927 205.609 170.758 206.178 162.031C206.557 156.213 213.192 142.351 226.083 120.447C225.588 116.35 225.556 112.84 225.986 109.915C226.351 107.436 226.659 105.156 226.911 103.077L226.911 103.077C226.982 102.483 227.546 102.08 228.169 102.178C228.177 102.18 228.185 102.181 228.192 102.182C228.873 102.303 229.408 102.842 229.5 103.5L230.334 109.471L234.67 97.9231C234.884 97.3515 235.517 97.0443 236.145 97.2071C236.74 97.3612 237.116 97.9437 236.984 98.5081C236.982 98.5152 236.98 98.5223 236.979 98.5294L234.443 108.399L238.824 98.0963C239.069 97.5218 239.753 97.2589 240.372 97.502C240.997 97.7475 241.341 98.4069 241.159 99.0113L237.944 109.699L242.32 100.782C242.634 100.141 243.426 99.8708 244.127 100.165C244.805 100.449 245.142 101.197 244.878 101.835C244.876 101.842 244.873 101.848 244.87 101.854L240.441 112.09L244.397 106.933C244.856 106.335 245.738 106.207 246.409 106.642C247.071 107.07 247.278 107.914 246.873 108.536C243.555 113.633 241.465 117.019 240.601 118.693C239.676 120.487 237.834 122.353 235.077 124.291Z" fill="white" stroke="#4B4745" stroke-width="1.54743" stroke-linejoin="round"/>
<path d="M230.35 108.571C230.518 110.235 230.883 111.69 231.443 112.936C232.283 114.804 235.889 116.169 236.27 119.032" stroke="#4B4745" stroke-width="1.54743"/>
<path d="M240.746 112.391C240.864 111.882 238.931 108.606 233.531 108.077" stroke="#4B4745" stroke-width="1.54743"/>
<path fill-rule="evenodd" clip-rule="evenodd" d="M79.1539 99.2114C81.8574 121.195 83.645 133.967 84.5167 137.529C89.0088 155.882 100.179 150.728 100.978 141.972C101.511 136.135 97.2997 121.167 88.344 97.0677C89.4476 93.0988 90.0185 89.6254 90.0568 86.6473C90.0893 84.122 90.1454 81.8056 90.2251 79.6982L90.2251 79.6982C90.2478 79.0958 89.7711 78.5927 89.1603 78.5743C89.1526 78.5741 89.1449 78.5739 89.1371 78.5738C88.4677 78.5676 87.8732 79.0026 87.6844 79.6372L85.9684 85.4016L83.5997 73.1521C83.4824 72.5458 82.9244 72.1241 82.299 72.169C81.7065 72.2115 81.258 72.7193 81.2971 73.3031C81.2976 73.3104 81.2982 73.3178 81.2988 73.3251L82.2048 83.5774L79.6009 72.5539C79.4556 71.9392 78.8416 71.5518 78.2124 71.678C77.5772 71.8055 77.147 72.3954 77.2279 73.0281L78.658 84.2166L75.8455 74.5675C75.6435 73.8744 74.928 73.4598 74.2127 73.6213C73.5204 73.7776 73.0839 74.4567 73.2377 75.1381C73.2392 75.1446 73.2407 75.151 73.2423 75.1574L75.9021 86.1244L72.9134 80.2792C72.5671 79.6019 71.7432 79.3119 71.0349 79.6181C70.3358 79.9203 70.0085 80.7181 70.2999 81.4097C72.6875 87.0762 74.1654 90.8192 74.7336 92.6388C75.3426 94.5885 76.816 96.7794 79.1539 99.2114Z" fill="white" stroke="#4B4745" stroke-width="1.54743" stroke-linejoin="round"/>
<path d="M86.2848 84.6861C85.8635 86.3206 85.2844 87.7082 84.5474 88.8489C83.4419 90.5599 79.7301 91.2424 78.9165 94.0365" stroke="#4B4745" stroke-width="1.54743"/>
<path d="M75.5576 86.7113C75.5217 86.1685 77.9343 83.1884 83.3146 83.6794" stroke="#4B4745" stroke-width="1.54743"/>
<path fill-rule="evenodd" clip-rule="evenodd" d="M55.8142 125.466C75.7724 135.376 81.2769 149.364 72.3279 167.43C81.3689 158.504 95.979 155.372 116.158 158.036C94.8544 147.753 81.5797 140.372 76.3342 135.893C71.0888 131.414 64.2488 127.938 55.8142 125.466Z" fill="#1D70D3"/>
<path fill-rule="evenodd" clip-rule="evenodd" d="M127.578 136.255L133.736 146.359L132.041 156.015C114.738 160.457 100.11 157.353 88.157 146.703C76.2036 136.052 65.0862 131.28 54.8047 132.384C56.948 126.907 55.1496 123.305 49.4095 121.579C59.9931 122.411 70.3284 126.836 80.4154 134.853C90.5024 142.87 106.223 143.337 127.578 136.255Z" fill="white" stroke="#1D70D3" stroke-width="1.54743" stroke-linecap="round" stroke-linejoin="round"/>
<path d="M147.902 145.79C136.795 151.026 126.567 152.15 117.217 149.159" stroke="#1D70D3" stroke-width="1.54743"/>
<path fill-rule="evenodd" clip-rule="evenodd" d="M126.651 110.743L123.372 104.753L117.828 91.2778L123.569 84.5492C122.8 83.5434 121.37 83.2884 120.376 83.9796C120.293 84.0377 120.214 84.1015 120.14 84.1706L118.072 86.1112L118.357 78.7708C118.38 78.1688 117.977 77.6055 117.379 77.4042C116.866 77.2313 116.328 77.488 116.179 77.9777C116.171 78.0042 116.164 78.0311 116.158 78.0584L114.992 83.7593L114.473 81.5279C114.131 80.0603 112.643 79.073 111.148 79.3226C110.744 79.3901 110.366 79.5457 110.041 79.7778C107.946 81.2756 107.037 83.8898 107.728 86.4326L115.711 115.821L126.651 110.743Z" fill="white" stroke="#4B4745" stroke-width="1.54743" stroke-linejoin="round"/>
<path d="M118.365 86.0923L113.157 88.3739" stroke="#4B4745" stroke-width="1.54743" stroke-linecap="round"/>
<path fill-rule="evenodd" clip-rule="evenodd" d="M162.472 116.716L166.385 110.079L172.94 97.3041L168.424 89.5466C169.328 88.688 170.754 88.6988 171.61 89.5706C171.682 89.6438 171.749 89.7218 171.809 89.8043L173.512 92.118L174.384 84.7612C174.456 84.1578 174.935 83.6718 175.546 83.5821C176.072 83.5051 176.553 83.86 176.621 84.3749C176.625 84.4028 176.627 84.4309 176.628 84.459L176.868 90.3476L177.72 88.2232C178.281 86.8261 179.879 86.119 181.29 86.6439C181.672 86.7859 182.015 87.0107 182.293 87.3018C184.077 89.1646 184.485 91.9381 183.32 94.2741L170.663 119.649L162.472 116.716Z" fill="white" stroke="#4B4745" stroke-width="1.54743" stroke-linejoin="round"/>
<path d="M173.392 92.1104L178.111 95.3625" stroke="#4B4745" stroke-width="1.54743" stroke-linecap="round"/>
<path fill-rule="evenodd" clip-rule="evenodd" d="M152.911 105.253L153.455 116.955L137.803 127.227C131.668 123.563 127.885 120.541 126.452 118.161C125.019 115.781 127.242 110.73 133.12 103.006C137.986 101.402 141.82 100.759 144.62 101.077C147.421 101.395 150.184 102.787 152.911 105.253Z" fill="white"/>
<path fill-rule="evenodd" clip-rule="evenodd" d="M153.835 103.313C153.835 103.313 158.995 110.691 155.464 110.346C153.111 110.116 149.785 107.987 145.487 103.959C147.892 106.854 147.79 108.174 145.184 107.92C142.578 107.665 139.9 106.851 137.15 105.479C137.219 109.487 136.288 111.862 134.36 112.603C132.431 113.344 131.844 115.305 132.599 118.486C130.509 115.25 129.049 114.733 128.22 116.934C124.354 113.257 124.377 108.869 124.526 106.931C124.715 104.456 125.607 102.915 127.202 102.305C126.486 98.3888 128.58 96.2359 133.485 95.8463C140.843 95.262 155.226 100.472 157.153 102.688C159.079 104.904 153.835 103.313 153.835 103.313Z" fill="#4A4B50"/>
<path fill-rule="evenodd" clip-rule="evenodd" d="M130.236 119.175L127.169 113.825L119.055 91.3424C113.188 92.4967 109.218 93.7994 107.146 95.2505C110.514 108.443 113.011 117.377 114.638 122.053C116.264 126.729 118.963 132.189 122.735 138.433L124.253 165.214C127.34 167.66 130.013 167.508 132.273 164.758C134.533 162.007 136.994 155.909 139.657 146.463L162.281 137.536C165.662 131.868 168.626 127.475 171.171 124.358C173.716 121.24 176.913 114.114 180.761 102.978L171.191 98.0533L160.709 117.11L157.082 121.805C148.57 125.922 142.907 127.843 140.095 127.568C138.074 127.37 135.75 126.677 133.24 123.875C132.584 123.143 131.583 121.577 130.236 119.175Z" fill="#FFCC00"/>
<path fill-rule="evenodd" clip-rule="evenodd" d="M153.023 109.821C153.155 114.209 153.463 117.232 153.948 118.89C154.676 121.377 155.535 128.357 148.267 129.238C143.422 129.825 138.438 128.136 133.314 124.172" fill="white"/>
<path d="M153.023 109.821C153.155 114.209 153.463 117.232 153.948 118.89C154.676 121.377 155.535 128.357 148.267 129.238C143.422 129.825 138.438 128.136 133.314 124.172" stroke="#4B4745" stroke-width="1.16058" stroke-linecap="round" stroke-linejoin="round"/>
<path fill-rule="evenodd" clip-rule="evenodd" d="M150.82 122.529L146.746 123.087C147.326 124.09 148.121 124.641 149.128 124.739C150.136 124.837 150.7 124.101 150.82 122.529Z" fill="#4B4745"/>
<path d="M148.356 115.414C148.564 116.423 149.256 117.317 150.432 118.094C151.608 118.871 151.34 119.582 149.628 120.225" stroke="#4B4745" stroke-width="1.16058" stroke-linecap="round" stroke-linejoin="round"/>
<path d="M148.897 113.874C150.191 112.471 151.43 112.361 152.616 113.543" stroke="#4A4A4A" stroke-linecap="round"/>
<path d="M139.57 114.734C140.79 113.328 142.031 113.227 143.291 114.432" stroke="#4A4A4A" stroke-linecap="round"/>
<path fill-rule="evenodd" clip-rule="evenodd" d="M159.432 181.489C156.48 192.056 151.559 196.554 144.669 194.982C134.335 192.626 128.432 176.283 128.489 175.561C128.528 175.08 129.638 173.261 131.82 170.103L159.432 181.489Z" fill="white"/>
<path fill-rule="evenodd" clip-rule="evenodd" d="M168.383 256.409C164.724 304.149 162.434 334.015 161.515 346.009C160.595 358.002 158.094 390.632 154.011 443.898L134.689 442.016L136.178 292.231L132.122 291.836C119.889 334.147 111.473 361.041 106.874 372.52C102.275 383.998 93.2646 405.382 79.8431 436.674L59.7521 434.717C75.6295 378.604 85.5187 343.801 89.4195 330.307C92.7253 318.871 93.4014 298.049 99.8502 263.355C100.624 259.192 103.236 251.823 107.686 241.248L168.383 256.409Z" fill="#323443"/>
<path d="M113.918 245.343C107.594 254.836 103.85 267.105 102.685 282.147C100.937 304.711 93.6482 336.184 90.2874 347.099C88.047 354.376 79.2866 384.211 64.0064 436.603" stroke="white" stroke-width="1.54743" stroke-linecap="round" stroke-linejoin="round"/>
<path d="M135.824 291.24C138.91 291.304 140.104 295.757 139.407 304.599C138.71 313.44 137.77 359.393 136.585 442.457" stroke="white" stroke-width="1.54743" stroke-linecap="round" stroke-linejoin="round"/>
<path fill-rule="evenodd" clip-rule="evenodd" d="M119.913 166.461L103.065 144.398L92.3662 99.9238L76.1034 107.61C80.1597 137.487 83.0037 154.666 84.6352 159.145C85.5975 161.787 89.0324 167.133 94.9399 175.182C97.6791 178.914 102.984 185.82 110.855 195.9C108.369 218.951 107.664 235.399 108.738 245.245C128.766 256.141 149.271 259.989 170.251 256.787L177.856 206.539C195.035 195.652 207.05 187.643 213.903 182.514C220.755 177.384 227.801 160.65 235.039 132.313L221.753 126.642L200.698 163.279L171.088 178.597L157.599 182.147C155.7 189.432 152.237 193.335 147.208 193.856C142.179 194.376 137.29 189.215 132.542 178.371L119.913 166.461Z" fill="#6B74C1"/>
<path fill-rule="evenodd" clip-rule="evenodd" d="M163.997 168.017C170.211 167.701 174.181 169.604 175.907 173.726C177.632 177.848 181.128 186.327 186.396 199.163C177.135 199.927 171.225 202.886 168.666 208.039C165.964 196.65 164.76 189.118 165.055 185.443C165.349 181.767 163.669 180.153 160.015 180.601L163.997 168.017Z" fill="#5C8B83"/>
<path fill-rule="evenodd" clip-rule="evenodd" d="M139.911 200.334C137.425 204.707 136.353 208.246 136.696 210.951C137.039 213.659 138.44 213.148 140.9 209.419C139.334 215.277 140.166 217.723 143.396 216.757C146.626 215.79 147.372 211.134 145.633 202.788C149.392 201.943 153.348 199.328 157.503 194.944C161.658 190.561 162.635 185.65 160.433 180.213L155.525 187.374C150.468 193.748 145.743 195.109 141.349 191.458C136.955 187.807 133.663 181.591 131.471 172.808C128.026 175.518 126.695 177.7 127.48 179.355C128.564 181.639 136.586 198.411 139.911 200.334Z" fill="#D37F1D"/>
<path d="M146.181 203.073C144.547 201.466 143.101 200.843 141.842 201.205" stroke="#4B4745" stroke-width="1.54743" stroke-linecap="round"/>
<path d="M131.05 180.847L136.899 192.533" stroke="#4B4745" stroke-width="1.54743" stroke-linecap="round"/>
<path d="M158.719 182.711C158.327 187.824 154.941 192.232 148.56 195.935" stroke="#4B4745" stroke-width="1.54743" stroke-linecap="round"/>
<path fill-rule="evenodd" clip-rule="evenodd" d="M130.219 175.323C131.812 171.409 132.935 168.473 133.588 166.516C131.616 166.323 130.065 159.615 130.72 155.911C131.156 153.441 133.647 152.952 138.192 154.443L138.76 147.022L141.873 142.707L150.436 141.866L166.401 144.287L168.095 153.935C166.519 158.667 165.338 163.511 164.551 168.468C163.37 175.903 160.893 179.347 159.879 181.561C158.865 183.775 158.598 187.961 150.203 186.37C144.606 185.309 140.656 181.23 138.35 174.133" fill="white"/>
<path d="M130.219 175.323C131.812 171.409 132.935 168.473 133.588 166.516C131.616 166.323 130.065 159.615 130.72 155.911C131.156 153.441 133.647 152.952 138.192 154.443L138.76 147.022L141.873 142.707L150.436 141.866L166.401 144.287L168.095 153.935C166.519 158.667 165.338 163.511 164.551 168.468C163.37 175.903 160.893 179.347 159.879 181.561C158.865 183.775 158.598 187.961 150.203 186.37C144.606 185.309 140.656 181.23 138.35 174.133" stroke="#4B4745" stroke-width="1.54743" stroke-linecap="round"/>
<path d="M160.059 158.546C161.389 157.591 162.645 157.601 163.826 158.576" stroke="#4A4A4A" stroke-width="2" stroke-linecap="round"/>
<path d="M150.122 158.379C148.822 157.178 147.49 157.205 146.124 158.461" stroke="#4A4A4A" stroke-width="2" stroke-linecap="round"/>
<path d="M157.973 156.228C156.609 158.721 156.063 160.74 156.335 162.283C156.743 164.599 157.954 169.098 155.827 168.893C154.409 168.756 153.534 168.241 153.202 167.35" stroke="#4B4745" stroke-width="1.54743" stroke-linecap="round"/>
<path fill-rule="evenodd" clip-rule="evenodd" d="M130.94 163.534C125.384 160.71 121.542 161.135 119.415 164.81C116.224 170.323 118.212 180.508 117.656 187.763C117.285 192.6 118.268 197.696 120.605 203.052C121.101 197.222 123.158 193.921 126.776 193.15C130.394 192.378 133.043 192.636 134.722 193.923C133.366 186.07 132.773 181.045 132.941 178.851C133.109 176.656 133.692 172.714 134.689 167.026" fill="#5C8B83"/>
<path d="M128.682 198.724C128.682 198.724 123.511 208.234 120.325 202.379" stroke="white" stroke-width="1.54743" stroke-linecap="round" stroke-linejoin="round"/>
<path fill-rule="evenodd" clip-rule="evenodd" d="M136.927 156.198C135.889 153.402 133.068 152.332 130.558 155.576C128.049 158.821 131.06 162.629 131.209 164.302C131.358 165.974 133.82 167.588 135.436 166.23" fill="white"/>
<path d="M136.927 156.198C135.889 153.402 133.068 152.332 130.558 155.576C128.049 158.821 131.06 162.629 131.209 164.302C131.358 165.974 133.82 167.588 135.436 166.23" stroke="#4B4745" stroke-width="1.54743" stroke-linecap="round"/>
<path d="M151 186.768C150.446 188.096 149.786 188.912 149.019 189.217" stroke="#4B4745" stroke-width="1.54743" stroke-linecap="round"/>
<path fill-rule="evenodd" clip-rule="evenodd" d="M137.012 158.21C137.273 161.774 137.36 164.12 137.274 165.248C137.145 166.94 135.378 173.254 137.346 177.296C139.315 181.337 143.223 185.93 149.701 187.117C156.178 188.304 157.923 187.016 159.32 184.149C160.251 182.237 161.358 179.057 162.639 174.608C161.396 176.041 160.613 176.533 160.289 176.085C159.803 175.412 160.677 173.081 157.234 171.574C153.791 170.068 149.075 168.83 146.557 169.695C144.878 170.272 143.683 171.079 142.97 172.116C143.4 168.161 143.167 165.816 142.269 165.081C140.922 163.979 138.876 164.358 139.221 159.843C139.452 156.834 139.756 153.995 140.135 151.327C142.883 151.215 145.816 150.197 148.933 148.274C147.715 150.341 147.639 151.334 148.706 151.252C149.772 151.171 152.589 150.173 157.156 148.257C154.215 151.103 153.966 152.353 156.409 152.006C158.852 151.66 161.944 150.53 165.685 148.616C166.738 151.707 167.44 153.392 167.793 153.669C167.644 154.078 167.257 155.323 166.632 157.404C167.945 156.617 169.659 154.318 171.775 150.509C174.949 144.794 174.877 142.625 172.466 141.482C174.265 137.981 171.525 136.273 164.245 136.361C153.326 136.492 144.976 129.319 139.489 136.299C134.573 134.71 132.86 141.015 134.351 155.212C135.095 155.723 135.628 156.16 135.949 156.521C136.27 156.883 136.624 157.446 137.012 158.21Z" fill="#4B4745"/>
<path fill-rule="evenodd" clip-rule="evenodd" d="M156.635 173.922L149.239 171.711C149.459 174.8 150.427 176.554 152.143 176.973C153.86 177.392 155.357 176.375 156.635 173.922Z" fill="white"/>
<path fill-rule="evenodd" clip-rule="evenodd" d="M131.399 184.644C127.748 186.555 125.144 189.742 123.588 194.204C122.682 194.946 121.783 196.513 121.542 198.166C121.169 200.725 122.016 204.717 124.122 206.189C126.433 207.805 128.836 204.188 131.331 195.339L131.399 184.644Z" fill="#4B4745"/>
<path fill-rule="evenodd" clip-rule="evenodd" d="M124.669 195.017C125.119 194.608 126.449 184.085 133.333 185.593C140.217 187.101 132.541 198.525 131.305 201.535C130.069 204.544 130.267 208.69 125.162 207.071C120.058 205.451 124.219 195.426 124.669 195.017Z" fill="white"/>
<path d="M136.037 190.804L128.975 188.018" stroke="#D6DCFF" stroke-width="1.54743"/>
<path d="M134.943 195.075L127.881 192.289" stroke="#D6DCFF" stroke-width="1.54743"/>
<path d="M132.406 199.221L125.344 196.435" stroke="#D6DCFF" stroke-width="1.54743"/>
<path d="M130.589 203.43L123.527 200.644" stroke="#D6DCFF" stroke-width="1.54743"/>
<path fill-rule="evenodd" clip-rule="evenodd" d="M187.277 195.427C184.571 194.581 181.216 195.816 177.213 199.131C171.208 204.105 170.679 204.282 169.508 206.96C169.615 209.779 170.582 214.041 171.735 214.146C172.504 214.216 177.684 207.977 187.277 195.427Z" fill="#4B4745"/>
<path fill-rule="evenodd" clip-rule="evenodd" d="M174.196 205.431C179.066 201.185 183.909 192.957 188.141 195.803C190.247 197.22 188.897 200.45 187.525 203.487C186.153 206.525 182.84 208.486 181.669 209.256C179.339 210.789 177.163 215.358 173.428 215.016C169.693 214.674 169.326 209.678 174.196 205.431Z" fill="white"/>
<path d="M187.423 202.864L181.598 198.112" stroke="#D6DCFF" stroke-width="1.54743"/>
<path d="M185.094 206.268L179.27 201.515" stroke="#D6DCFF" stroke-width="1.54743"/>
<path d="M181.537 209.1L175.712 204.347" stroke="#D6DCFF" stroke-width="1.54743"/>
<path d="M177.713 212.604L172.482 208.079" stroke="#D6DCFF" stroke-width="1.54743"/>
<path d="M140.066 211.508L142.129 204.429" stroke="#4B4745" stroke-width="1.54743" stroke-linecap="round"/>
</g>
</svg>
